<svg xmlns="http://www.w3.org/2000/svg" xmlns:xlink="http://www.w3.org/1999/xlink" viewBox="0 0 556 695" version="1.1" xml:space="preserve" style="height:20px;" x="0px" y="0px" fill-rule="evenodd" clip-rule="evenodd" stroke-linejoin="round" stroke-miterlimit="1.41421"><path d="M309.753,233.618c0,0 41.008,41.009 66.405,66.405c10.847,10.848 28.435,10.848 39.283,0c1.787,-1.787 3.598,-3.597 5.385,-5.384c10.848,-10.848 10.848,-28.436 0,-39.284c-33.242,-33.242 -99.219,-99.219 -122.219,-122.219c-5.21,-5.209 -12.275,-8.136 -19.642,-8.136c-0.789,0 -1.585,0 -2.374,0c-7.368,0 -14.433,2.927 -19.642,8.136c-23,23 -88.977,88.977 -122.219,122.219c-10.848,10.848 -10.848,28.436 0,39.284c1.787,1.787 3.597,3.597 5.384,5.384c10.848,10.848 28.436,10.848 39.284,0c25.396,-25.396 66.405,-66.405 66.405,-66.405c0,0 0,114.882 0,169.16c0,15.341 12.436,27.778 27.777,27.778c2.784,0 5.611,0 8.395,0c15.341,0 27.778,-12.437 27.778,-27.778c0,-54.278 0,-169.16 0,-169.16Z" style="" fill="rgb(201,152,24)"/></svg>
