<?xml version="1.0" encoding="UTF-8" standalone="no"?>
<svg width="287px" height="53px" viewBox="0 0 287 53" version="1.1" xmlns="http://www.w3.org/2000/svg" xmlns:xlink="http://www.w3.org/1999/xlink" xmlns:sketch="http://www.bohemiancoding.com/sketch/ns">
    <!-- Generator: Sketch 3.4.2 (15855) - http://www.bohemiancoding.com/sketch -->
    <title>caes_logo</title>
    <desc>Created with Sketch.</desc>
    <defs>
        <path id="path-1" d="M0,0.437893204 L286.806095,0.437893204 L286.806095,53 L0,53"></path>
        <path id="path-3" d="M0,0.437893204 L286.806095,0.437893204 L286.806095,53 L0,53 L0,0.437893204 Z"></path>
    </defs>
    <g id="Page-1" stroke="none" stroke-width="1" fill="none" fill-rule="evenodd" sketch:type="MSPage">
        <g id="caes_logo" sketch:type="MSLayerGroup">
            <g id="Group-3">
                <mask id="mask-2" sketch:name="Clip 2" fill="white">
                    <use xlink:href="#path-1"></use>
                </mask>
                <g id="Clip-2"></g>
                <path d="M35.1243253,20.3918272 C35.4514435,14.5602835 34.3589919,8.98344854 32.1612303,3.98138058 C31.6900977,2.90800194 31.1500439,1.87321553 30.5801586,0.857982524 L-0.000257168459,0.857982524 L-0.000257168459,52.9338272 L8.80981989,52.9338272 C23.2575439,48.986099 34.2340081,36.1755359 35.1243253,20.3918272" id="Fill-1" fill="#BB8D0A" sketch:type="MSShapeGroup" mask="url(#mask-2)"></path>
            </g>
            <path d="M34.1288262,0.857776699 C37.3012563,5.24854369 39.6255448,10.3545534 40.7797168,16.0070291 C43.6481738,30.0679806 38.6354462,43.900466 28.7776649,52.9336214 L52.0555251,52.9336214 L52.0555251,0.857776699 L34.1288262,0.857776699 Z" id="Fill-4" fill="#004A85" sketch:type="MSShapeGroup"></path>
            <path d="M40.7797683,16.007235 C39.6255962,10.3542447 37.3013077,5.24874951 34.1288776,0.857982524 L30.5799529,0.857982524 C31.1498382,1.87321553 31.6898919,2.90800194 32.1610246,3.98138058 C34.3593005,8.98344854 35.4517522,14.5597689 35.1241195,20.3918272 C34.2338023,36.1755359 23.2578525,48.986099 8.80961416,52.9338272 L28.7777163,52.9338272 C38.6354977,43.9006718 43.6482253,30.0676718 40.7797683,16.007235" id="Fill-6" fill="#FEFEFE" sketch:type="MSShapeGroup"></path>
            <path d="M158.702051,18.0403767 L160.563436,13.1211534 L160.884896,13.4010757 C162.025696,14.3319204 163.574878,15.1243476 165.035081,15.1557359 C166.342011,15.1855806 166.979789,14.8377359 166.805943,13.7314252 C166.677873,12.9055515 165.744352,12.7599301 165.162122,12.6456971 L163.884509,12.3904738 C161.399233,11.9247942 159.308454,10.390367 159.308454,7.4836 C159.308454,3.08717282 163.094488,0.622930097 166.903153,0.622930097 C168.903409,0.622930097 170.74062,1.13286214 172.458506,2.25100777 L170.845031,6.61090097 C169.959343,5.97232816 168.619495,5.07441553 166.924241,5.01318252 C166.366699,4.99208544 165.088058,5.28487184 165.497984,6.58105631 C165.674916,7.13369709 166.465966,7.36576505 166.952015,7.4836 L168.395758,7.83195922 C171.087798,8.46024078 173.037649,9.99363883 173.037649,13.1335029 C173.037649,17.5520563 169.227441,19.738435 165.443979,19.738435 C163.234902,19.738435 160.678133,19.1091243 158.702051,18.0403767" id="Fill-8" fill="#BB9107" sketch:type="MSShapeGroup"></path>
            <mask id="mask-4" sketch:name="Clip 11" fill="white">
                <use xlink:href="#path-3"></use>
            </mask>
            <g id="Clip-11"></g>
            <path d="M150.847303,0.924669903 L157.332063,0.924669903 L157.332063,19.4602621 L150.847303,19.4602621 L150.847303,0.924669903 Z" id="Fill-10" fill="#BB9107" sketch:type="MSShapeGroup" mask="url(#mask-4)"></path>
            <path d="M143.536158,0.924618447 L150.177791,0.924618447 L143.393687,19.4602107 L138.004464,19.4602107 L131.242477,0.924618447 L137.860964,0.924618447 L140.699075,12.1096767 L143.536158,0.924618447 Z" id="Fill-12" fill="#BB9107" sketch:type="MSShapeGroup" mask="url(#mask-4)"></path>
            <path d="M125.176233,6.27473689 L125.176233,6.27473689 C125.29453,7.06356214 126.454875,12.7366204 126.454875,12.7366204 L123.905821,12.7366204 L125.176233,6.27473689 Z M115.511328,19.4604165 L122.249142,19.4604165 L122.761935,17.1330476 L127.5679,17.1330476 L128.20722,19.4604165 L134.948634,19.4604165 L128.638235,0.924824272 L121.570217,0.924824272 L115.511328,19.4604165 Z" id="Fill-13" fill="#BB9107" sketch:type="MSShapeGroup" mask="url(#mask-4)"></path>
            <path d="M98.8516466,0.924618447 L105.493794,0.924618447 C111.421012,0.924618447 115.949749,3.64717184 115.949749,10.4605019 C115.949749,15.9493466 112.258867,19.4602107 107.07538,19.4602107 L98.8516466,19.450434 L98.8516466,0.924618447 Z M105.379096,14.138599 L105.81474,14.138599 C107.951295,14.138599 109.536482,12.8552786 109.536482,10.4363175 C109.536482,7.83211359 108.132342,6.37950194 105.784908,6.37950194 L105.379096,6.37950194 L105.379096,14.138599 Z" id="Fill-14" fill="#BB9107" sketch:type="MSShapeGroup" mask="url(#mask-4)"></path>
            <path d="M94.9734948,1.5060233 L95.3196435,4.54812039 C95.4009088,5.27005243 95.813407,7.00258641 95.3036991,6.77000388 C94.9848102,6.6274699 94.7230127,5.8422466 94.4632726,5.14449903 C94.3305737,4.78996505 93.6989679,3.1155767 93.5338658,2.99311068 C92.7351005,2.39570291 90.7441023,1.72213981 89.3975683,1.71545049 C85.3132188,1.70052816 82.611407,4.71483883 82.611407,10.0647515 C82.611407,13.9018485 84.4470754,18.504101 89.117769,18.504101 C90.790907,18.504101 93.996769,17.9771883 94.8685701,15.5947612 C95.2630665,14.5162369 95.6246453,13.5581204 95.8848998,13.8493631 C96.0793192,14.0613631 95.8267797,14.9253146 95.7105396,15.389965 C95.1596848,17.5979553 95.1308819,18.2679165 94.9565217,18.3528194 C92.8461973,19.4143631 90.1397565,19.7627223 87.7712349,19.7627223 C80.2392851,19.7627223 77.639312,15.3668097 77.639312,10.9719262 C77.639312,3.34455728 82.3218353,0.131625243 89.5801579,0.460945631 C91.4163407,0.529382524 93.2540665,0.856130097 94.9734948,1.5060233" id="Fill-15" fill="#BB9107" sketch:type="MSShapeGroup" mask="url(#mask-4)"></path>
            <path d="M72.7354695,1.84419417 L71.5288351,1.42328155 C71.125595,1.05845631 71.6183297,0.956572816 71.6183297,0.956572816 C71.6183297,0.956572816 73.3614176,1.28023301 77.7034498,0.911805825 C77.7034498,0.911805825 78.0804588,0.986932039 77.8202043,1.29309709 L76.395491,1.90336893 C75.4676272,2.30884466 75.4676272,2.07626214 75.4676272,3.09406796 L75.4593978,12.5404175 C75.4593978,19.9285146 67.9480215,19.7628252 66.4857616,19.7628252 C65.7878065,19.7628252 58.8987778,19.7628252 58.8987778,13.8319709 L58.8987778,3.83195146 C58.8987778,2.08912621 59.0854821,2.13440777 58.5063387,1.93064078 L56.7637652,1.2761165 C56.7637652,1.2761165 56.4675072,0.857776699 56.9947025,0.885048544 C58.4189014,0.956572816 60.4803638,1.26170874 65.3295323,0.911805825 C65.3295323,0.911805825 65.7512885,1.01471845 65.4735466,1.31985437 L64.0241452,1.72790291 C62.9203781,2.22291262 63.0659355,1.84419417 63.0371326,2.9777767 L63.0721075,12.837835 C63.0721075,15.2552524 64.3152599,18.2489806 68.2262778,18.2489806 C73.5501792,18.2489806 73.6000699,13.6415825 73.6000699,12.6176019 L73.6098423,2.85016505 C73.6669337,1.93064078 73.5501792,2.1925534 72.7354695,1.84419417" id="Fill-16" fill="#BB9107" sketch:type="MSShapeGroup" mask="url(#mask-4)"></path>
            <path d="M286.738717,24.3408932 L58.9003208,24.3408932 L58.9003208,23.5675049 L286.738717,23.5675049 L286.738717,24.3408932 Z" id="Fill-17" fill="#BB9107" sketch:type="MSShapeGroup" mask="url(#mask-4)"></path>
            <path d="M65.5350099,32.0978806 C65.4105403,31.9291039 65.2685833,31.7814243 65.1101676,31.6548417 C64.9512375,31.5282592 64.7804776,31.4217447 64.597888,31.3352981 C64.4147841,31.2488515 64.2229364,31.1835019 64.022345,31.1392495 C63.8212392,31.0949971 63.6180762,31.0728709 63.4133701,31.0728709 C63.0435618,31.0728709 62.7061568,31.1392495 62.4006407,31.2720068 C62.0956389,31.4042495 61.8343557,31.587434 61.6173056,31.8205311 C61.4002554,32.0536282 61.2315529,32.3268612 61.1106837,32.6407447 C60.9903289,32.9541136 60.9301514,33.291667 60.9301514,33.6534049 C60.9301514,34.0233757 60.9903289,34.3629874 61.1106837,34.6727544 C61.2315529,34.9820068 61.4023127,35.2485505 61.6234776,35.4718709 C61.8441281,35.6946767 62.109526,35.8696282 62.4186425,35.9962107 C62.7282733,36.1227932 63.0718504,36.1860845 63.4493737,36.1860845 C63.6463647,36.1860845 63.8423271,36.1629291 64.0372608,36.117133 C64.2321944,36.0708223 64.4188987,36.0044437 64.597888,35.9179971 C64.7763629,35.8315505 64.9455797,35.7281233 65.1039955,35.607201 C65.2629256,35.4867932 65.4064256,35.3499194 65.5350099,35.1970942 L65.5350099,38.0976864 C65.3339041,38.1578903 65.1451425,38.2155214 64.9682106,38.2695505 C64.791793,38.3240942 64.6189758,38.3698903 64.4502733,38.4084825 C64.2810565,38.4465602 64.1113253,38.4764049 63.9405654,38.4985311 C63.7698056,38.5206573 63.590302,38.5319777 63.4015403,38.5319777 C62.7503898,38.5319777 62.1264991,38.4131136 61.5298683,38.1764146 C60.9332375,37.939201 60.3916407,37.601133 59.9055923,37.1632398 C59.3912554,36.6970456 59.0132177,36.1670456 58.7725081,35.5742689 C58.5312841,34.9814922 58.4104149,34.3372592 58.4104149,33.6415699 C58.4104149,33.0024825 58.5271694,32.3891233 58.760164,31.8025214 C58.9931586,31.2154049 59.3346783,30.6931233 59.7847231,30.2346476 C60.0141174,30.0015505 60.2651138,29.7916087 60.5382267,29.6043078 C60.8113396,29.4175214 61.0998826,29.2585214 61.4033414,29.1283369 C61.7068002,28.9976379 62.02106,28.8978126 62.3466353,28.8293757 C62.6722106,28.7614534 62.9972715,28.7269777 63.3228468,28.7269777 C63.7127142,28.7269777 64.0881801,28.7681427 64.4502733,28.8504728 C64.8118522,28.9333175 65.173431,29.0485796 65.5350099,29.1972883 L65.5350099,32.0978806 Z" id="Fill-18" fill="#004A85" sketch:type="MSShapeGroup" mask="url(#mask-4)"></path>
            <path d="M72.5094699,31.0124612 C72.147891,31.0124612 71.8084287,31.0798689 71.4910828,31.2146845 C71.1732226,31.3489854 70.8949663,31.5301117 70.6557996,31.757034 C70.4171473,31.9844709 70.2278713,32.2453544 70.0895147,32.5412282 C69.9506437,32.8365874 69.8817226,33.1453252 69.8817226,33.4669272 C69.8817226,33.868801 69.9506437,34.2392864 70.0895147,34.5794126 C70.2278713,34.9190243 70.4171473,35.2123252 70.6557996,35.4598301 C70.8949663,35.7068204 71.1732226,35.8997816 71.4910828,36.0387136 C71.8084287,36.1771311 72.147891,36.2465971 72.5094699,36.2465971 C72.8710487,36.2465971 73.2115398,36.1771311 73.530943,36.0387136 C73.8503462,35.8997816 74.1286025,35.7068204 74.3657118,35.4598301 C74.6028211,35.2123252 74.7910685,34.9190243 74.9294251,34.5794126 C75.0682961,34.2392864 75.1372172,33.868801 75.1372172,33.4669272 C75.1372172,33.1453252 75.0682961,32.8365874 74.9294251,32.5412282 C74.7910685,32.2453544 74.6028211,31.9844709 74.3657118,31.757034 C74.1286025,31.5301117 73.8503462,31.3489854 73.530943,31.2146845 C73.2115398,31.0798689 72.8710487,31.0124612 72.5094699,31.0124612 M72.5094699,28.666568 C72.9554,28.666568 73.3925864,28.7200825 73.8205147,28.8265971 C74.248443,28.9331117 74.6532262,29.0849078 75.0348642,29.2819854 C75.4165022,29.4790631 75.7683086,29.7188495 76.0897692,30.0023738 C76.4112297,30.2858981 76.6874287,30.6054417 76.9183659,30.9610049 C77.1493032,31.3170825 77.3303498,31.704034 77.4609914,32.1218592 C77.591633,32.540199 77.6569538,32.984267 77.6569538,33.4545777 C77.6569538,34.2104709 77.5293982,34.9030728 77.2742871,35.5318689 C77.019176,36.1611796 76.6622262,36.7019854 76.2044663,37.1542864 C75.7461921,37.6060728 75.202538,37.9590631 74.5740183,38.2122282 C73.9449842,38.4653932 73.2568014,38.5919757 72.5094699,38.5919757 C72.0110774,38.5919757 71.5378875,38.5348592 71.0899,38.4201117 C70.6419125,38.3058786 70.2278713,38.141733 69.8482907,37.9287039 C69.46871,37.7156748 69.125133,37.4573641 68.8175595,37.1542864 C68.5105004,36.8506942 68.2492172,36.5079951 68.0342244,36.1261893 C67.8192315,35.7438689 67.6536151,35.3291311 67.5368606,34.8809466 C67.4201061,34.4322476 67.361986,33.9573058 67.361986,33.4545777 C67.361986,32.984267 67.4273068,32.540199 67.5579484,32.1218592 C67.68859,31.704034 67.8701509,31.3170825 68.1036599,30.9610049 C68.3366545,30.6054417 68.6128534,30.2858981 68.9322566,30.0023738 C69.2516599,29.7188495 69.6024376,29.4790631 69.9840756,29.2819854 C70.3657136,29.0849078 70.7704968,28.9331117 71.1984251,28.8265971 C71.6263534,28.7200825 72.0635398,28.666568 72.5094699,28.666568" id="Fill-19" fill="#004A85" sketch:type="MSShapeGroup" mask="url(#mask-4)"></path>
            <path d="M82.1514869,36.2345049 L85.0564618,36.2345049 L85.0564618,38.2845243 L79.7346177,38.2845243 L79.7346177,28.974534 L82.1514869,28.974534 L82.1514869,36.2345049 Z" id="Fill-20" fill="#004A85" sketch:type="MSShapeGroup" mask="url(#mask-4)"></path>
            <path d="M89.6457873,36.2345049 L92.5507622,36.2345049 L92.5507622,38.2845243 L87.2289181,38.2845243 L87.2289181,28.974534 L89.6457873,28.974534 L89.6457873,36.2345049 Z" id="Fill-21" fill="#004A85" sketch:type="MSShapeGroup" mask="url(#mask-4)"></path>
            <path d="M97.1400876,31.0245534 L97.1400876,32.5800777 L99.8707023,32.5800777 L99.8707023,34.6306117 L97.1400876,34.6306117 L97.1400876,36.2345049 L100.021403,36.2345049 L100.021403,38.2845243 L94.7232185,38.2845243 L94.7232185,28.974534 L100.021403,28.974534 L100.021403,31.0245534 L97.1400876,31.0245534 Z" id="Fill-22" fill="#004A85" sketch:type="MSShapeGroup" mask="url(#mask-4)"></path>
            <path d="M111.940081,33.0868194 C111.931852,33.4243728 111.917965,33.7521495 111.897905,34.069635 C111.877846,34.3871204 111.834642,34.6979165 111.768292,35.0015087 C111.701943,35.305101 111.607819,35.6025184 111.484893,35.8937612 C111.362481,36.1850039 111.196864,36.475732 110.987529,36.7649165 C110.758649,37.0829165 110.503538,37.3571786 110.222196,37.5882175 C109.940853,37.8192563 109.637395,38.0091301 109.312334,38.1578388 C108.986758,38.3070621 108.643181,38.4161495 108.281603,38.4866447 C107.920024,38.5571398 107.544043,38.5921301 107.154176,38.5921301 C106.422789,38.5921301 105.753122,38.4737806 105.144147,38.236567 C104.535687,37.9993534 104.012092,37.6643728 103.573877,37.2326544 C103.136176,36.8004214 102.795685,36.2827709 102.552404,35.6797029 C102.309122,35.076635 102.187739,34.4092466 102.187739,33.6775379 C102.187739,32.9221592 102.310151,32.235732 102.55549,31.6182563 C102.800314,31.0012951 103.14492,30.4748971 103.589307,30.0385476 C104.03318,29.6027126 104.56449,29.2646447 105.183237,29.0253728 C105.801984,28.7866155 106.487081,28.6667223 107.238527,28.6667223 C108.195194,28.6667223 109.033049,28.8828388 109.752092,29.3150718 C110.471649,29.7473049 111.031762,30.3992563 111.433973,31.2719553 L109.137459,32.2305864 C109.053108,32.0093243 108.94664,31.8086447 108.818056,31.6275184 C108.689472,31.4463922 108.540828,31.2909942 108.372126,31.1602951 C108.202909,31.0295961 108.014147,30.9292563 107.805327,30.8587612 C107.596506,30.788266 107.369169,30.7532757 107.124344,30.7532757 C106.726248,30.7532757 106.377013,30.8397223 106.075611,31.0126155 C105.77421,31.1855087 105.521671,31.4114019 105.319022,31.6908097 C105.115859,31.9702175 104.963615,32.2846155 104.860748,32.6345184 C104.758395,32.9844214 104.706961,33.335868 104.706961,33.6898874 C104.706961,34.0516252 104.760452,34.4061592 104.86692,34.7540039 C104.973387,35.1018485 105.13026,35.4131592 105.337024,35.688965 C105.543787,35.9642563 105.800956,36.1850039 106.108529,36.3522369 C106.416103,36.5189553 106.768423,36.6023146 107.16652,36.6023146 C107.427803,36.6023146 107.671599,36.5683534 107.898936,36.4999165 C108.125758,36.4314796 108.324807,36.3301107 108.495567,36.1952951 C108.666327,36.0604796 108.805712,35.892732 108.914237,35.6915379 C109.022762,35.4908583 109.089111,35.2557029 109.113285,34.9860718 L107.136174,34.9860718 L107.136174,33.0868194 L111.940081,33.0868194 Z" id="Fill-23" fill="#004A85" sketch:type="MSShapeGroup" mask="url(#mask-4)"></path>
            <path d="M116.404371,31.0245534 L116.404371,32.5800777 L119.134986,32.5800777 L119.134986,34.6306117 L116.404371,34.6306117 L116.404371,36.2345049 L119.285687,36.2345049 L119.285687,38.2845243 L113.987502,38.2845243 L113.987502,28.974534 L119.285687,28.974534 L119.285687,31.0245534 L116.404371,31.0245534 Z" id="Fill-24" fill="#004A85" sketch:type="MSShapeGroup" mask="url(#mask-4)"></path>
            <path d="M129.438132,33.0923252 C129.179934,33.0923252 128.937167,33.1401796 128.710859,33.2364029 C128.484551,33.3331408 128.285503,33.4617816 128.115257,33.6238689 C127.944497,33.7864709 127.809227,33.9727427 127.710474,34.1837136 C127.611207,34.3946845 127.562345,34.615432 127.562345,34.8444126 C127.562345,35.1320534 127.611207,35.3965388 127.710474,35.6388981 C127.809227,35.8817718 127.944497,36.0906845 128.115257,36.2676942 C128.285503,36.4441893 128.484551,36.5820922 128.710859,36.6808883 C128.937167,36.780199 129.179934,36.8295971 129.438132,36.8295971 C129.696329,36.8295971 129.93961,36.780199 130.167461,36.6808883 C130.395827,36.5820922 130.594361,36.4441893 130.763578,36.2676942 C130.932795,36.0906845 131.067037,35.8817718 131.165789,35.6388981 C131.265056,35.3965388 131.314433,35.1320534 131.314433,34.8444126 C131.314433,34.615432 131.265056,34.3946845 131.165789,34.1837136 C131.067037,33.9727427 130.932795,33.7864709 130.763578,33.6238689 C130.594361,33.4617816 130.395827,33.3331408 130.167461,33.2364029 C129.93961,33.1401796 129.696329,33.0923252 129.438132,33.0923252 M129.438132,31.4174223 C129.756506,31.4174223 130.068709,31.4555 130.374225,31.5316553 C130.679741,31.6072961 130.968798,31.7158689 131.241397,31.8568592 C131.513995,31.997335 131.764992,32.1686845 131.9949,32.3714223 C132.22378,32.5731311 132.421286,32.8015971 132.586388,33.0557913 C132.750976,33.3099854 132.880074,33.5863058 132.973684,33.8847524 C133.066778,34.183199 133.113583,34.4996553 133.113583,34.8361796 C133.113583,35.3754417 133.022546,35.8699369 132.839956,36.3191505 C132.657881,36.7683641 132.403798,37.154801 132.076166,37.477432 C131.749047,37.8000631 131.361237,38.0527136 130.912221,38.2328107 C130.463205,38.4139369 129.972013,38.5045 129.438132,38.5045 C129.082725,38.5045 128.744291,38.463335 128.424373,38.3815194 C128.104456,38.2997039 127.809227,38.1834126 127.538171,38.0305874 C127.267115,37.8787913 127.021777,37.6940631 126.802155,37.477432 C126.582533,37.260801 126.396343,37.0163835 126.242556,36.7431505 C126.089284,36.470432 125.970986,36.1740437 125.888178,35.8545 C125.804856,35.5339272 125.76268,35.1948301 125.76268,34.8361796 C125.76268,34.4996553 125.809485,34.183199 125.903094,33.8847524 C125.996189,33.5863058 126.126316,33.3099854 126.292447,33.0557913 C126.458578,32.8015971 126.656083,32.5731311 126.883934,32.3714223 C127.1123,32.1686845 127.362268,31.997335 127.634866,31.8568592 C127.907465,31.7158689 128.196522,31.6072961 128.502553,31.5316553 C128.807554,31.4555 129.119757,31.4174223 129.438132,31.4174223" id="Fill-25" fill="#004A85" sketch:type="MSShapeGroup" mask="url(#mask-4)"></path>
            <path d="M135.985846,33.100867 L135.985846,34.2112942 L137.883749,34.2112942 L137.883749,35.6757408 L135.985846,35.6757408 L135.985846,38.2845757 L134.260246,38.2845757 L134.260246,31.636935 L138.07714,31.636935 L138.07714,33.100867 L135.985846,33.100867 Z" id="Fill-26" fill="#004A85" sketch:type="MSShapeGroup" mask="url(#mask-4)"></path>
            <path d="M148.245581,31.850633 L148.221407,31.850633 L147.221022,34.8176039 L149.234137,34.8176039 L148.245581,31.850633 Z M146.55187,36.6684874 L145.913063,38.2847301 L143.345493,38.2847301 L146.925792,28.9742252 L149.56537,28.9742252 L153.073662,38.2847301 L150.493748,38.2847301 L149.885287,36.6684874 L146.55187,36.6684874 Z" id="Fill-27" fill="#004A85" sketch:type="MSShapeGroup" mask="url(#mask-4)"></path>
            <path d="M164.176961,33.0868194 C164.168732,33.4243728 164.154845,33.7521495 164.134786,34.069635 C164.114727,34.3871204 164.071522,34.6979165 164.005173,35.0015087 C163.938823,35.305101 163.8447,35.6025184 163.721773,35.8937612 C163.599361,36.1850039 163.433744,36.475732 163.224409,36.7649165 C162.995529,37.0829165 162.740418,37.3571786 162.459076,37.5882175 C162.177734,37.8192563 161.874275,38.0091301 161.549214,38.1578388 C161.223639,38.3070621 160.880062,38.4161495 160.518483,38.4866447 C160.156904,38.5571398 159.780924,38.5921301 159.391056,38.5921301 C158.659669,38.5921301 157.990003,38.4737806 157.381028,38.236567 C156.772567,37.9993534 156.248972,37.6643728 155.810757,37.2326544 C155.373056,36.8004214 155.032565,36.2827709 154.789284,35.6797029 C154.546003,35.076635 154.424619,34.4092466 154.424619,33.6775379 C154.424619,32.9221592 154.547031,32.235732 154.79237,31.6182563 C155.037194,31.0012951 155.3818,30.4748971 155.826187,30.0385476 C156.27006,29.6027126 156.80137,29.2646447 157.420117,29.0253728 C158.038865,28.7866155 158.723961,28.6667223 159.475408,28.6667223 C160.432074,28.6667223 161.269929,28.8828388 161.988972,29.3150718 C162.708529,29.7473049 163.268642,30.3992563 163.670854,31.2719553 L161.374339,32.2305864 C161.289988,32.0093243 161.18352,31.8086447 161.054936,31.6275184 C160.926352,31.4463922 160.777709,31.2909942 160.609006,31.1602951 C160.439789,31.0295961 160.251028,30.9292563 160.042207,30.8587612 C159.833386,30.788266 159.606049,30.7532757 159.361225,30.7532757 C158.963128,30.7532757 158.613893,30.8397223 158.312492,31.0126155 C158.01109,31.1855087 157.758551,31.4114019 157.555902,31.6908097 C157.352739,31.9702175 157.200495,32.2846155 157.097628,32.6345184 C156.995275,32.9844214 156.943841,33.335868 156.943841,33.6898874 C156.943841,34.0516252 156.997332,34.4061592 157.1038,34.7540039 C157.210268,35.1018485 157.367141,35.4131592 157.573904,35.688965 C157.780667,35.9642563 158.037836,36.1850039 158.345409,36.3522369 C158.652983,36.5189553 159.005304,36.6023146 159.4034,36.6023146 C159.664684,36.6023146 159.908479,36.5683534 160.135816,36.4999165 C160.362639,36.4314796 160.561687,36.3301107 160.732447,36.1952951 C160.903207,36.0604796 161.042592,35.892732 161.151117,35.6915379 C161.259642,35.4908583 161.325992,35.2557029 161.350166,34.9860718 L159.373054,34.9860718 L159.373054,33.0868194 L164.176961,33.0868194 Z" id="Fill-28" fill="#004A85" sketch:type="MSShapeGroup" mask="url(#mask-4)"></path>
            <path d="M169.134963,33.1471262 L169.370015,33.1471262 C169.567006,33.1471262 169.766055,33.1342621 169.966646,33.1080194 C170.167752,33.0817767 170.348284,33.0277476 170.509272,32.9449029 C170.669745,32.8625728 170.800386,32.7462816 170.901196,32.5955146 C171.001492,32.4447476 171.051897,32.2425243 171.051897,31.9893592 C171.051897,31.7361942 171.001492,31.5329417 170.901196,31.3801165 C170.800386,31.2278058 170.669745,31.1099709 170.509272,31.0276408 C170.348284,30.9453107 170.167752,30.890767 169.966646,30.8645243 C169.766055,30.8387961 169.567006,30.8254175 169.370015,30.8254175 L169.134963,30.8254175 L169.134963,33.1471262 Z M174.457322,38.2845243 L171.443308,38.2845243 L169.165309,34.7026505 L169.134963,34.7026505 L169.134963,38.2845243 L166.718094,38.2845243 L166.718094,28.974534 L170.334397,28.974534 C170.792671,28.974534 171.219571,29.0306214 171.615096,29.1433107 C172.011135,29.256 172.353684,29.4283786 172.642741,29.6619903 C172.932313,29.8950874 173.159135,30.1914757 173.324238,30.5511553 C173.488825,30.910835 173.571119,31.3399806 173.571119,31.8385922 C173.571119,32.1601942 173.526886,32.4668738 173.43842,32.7581165 C173.349954,33.0498738 173.219313,33.3117864 173.046496,33.5448835 C172.874193,33.7784951 172.660743,33.9750583 172.407689,34.1361165 C172.154635,34.2966602 171.863521,34.4072913 171.533831,34.4674951 L174.457322,38.2845243 Z" id="Fill-29" fill="#004A85" sketch:type="MSShapeGroup" mask="url(#mask-4)"></path>
            <path d="M178.97536,38.2845243 L176.558491,38.2845243 L176.558491,28.9740194 L178.97536,28.9740194 L178.97536,38.2845243 Z" id="Fill-30" fill="#004A85" sketch:type="MSShapeGroup" mask="url(#mask-4)"></path>
            <path d="M188.412054,32.0978806 C188.287584,31.9291039 188.145627,31.7814243 187.987212,31.6548417 C187.828282,31.5282592 187.657522,31.4217447 187.474932,31.3352981 C187.291828,31.2488515 187.09998,31.1835019 186.899389,31.1392495 C186.698283,31.0949971 186.49512,31.0728709 186.290414,31.0728709 C185.920606,31.0728709 185.583201,31.1392495 185.277685,31.2720068 C184.972683,31.4042495 184.7114,31.587434 184.49435,31.8205311 C184.277299,32.0536282 184.108597,32.3268612 183.987728,32.6407447 C183.867373,32.9541136 183.807196,33.291667 183.807196,33.6534049 C183.807196,34.0233757 183.867373,34.3629874 183.987728,34.6727544 C184.108597,34.9820068 184.279357,35.2485505 184.500522,35.4718709 C184.721172,35.6946767 184.98657,35.8696282 185.295687,35.9962107 C185.605317,36.1227932 185.948894,36.1860845 186.326418,36.1860845 C186.523409,36.1860845 186.719371,36.1629291 186.914305,36.117133 C187.109239,36.0708223 187.295943,36.0044437 187.474932,35.9179971 C187.653407,35.8315505 187.822624,35.7281233 187.98104,35.607201 C188.13997,35.4867932 188.28347,35.3499194 188.412054,35.1970942 L188.412054,38.0976864 C188.210948,38.1578903 188.022187,38.2155214 187.845255,38.2695505 C187.668837,38.3240942 187.49602,38.3698903 187.327317,38.4084825 C187.158101,38.4465602 186.988369,38.4764049 186.817609,38.4985311 C186.64685,38.5206573 186.467346,38.5319777 186.278584,38.5319777 C185.627434,38.5319777 185.003543,38.4131136 184.406912,38.1764146 C183.810282,37.939201 183.268685,37.601133 182.782636,37.1632398 C182.268299,36.6970456 181.890262,36.1670456 181.649552,35.5742689 C181.408328,34.9814922 181.287459,34.3372592 181.287459,33.6415699 C181.287459,33.0024825 181.404213,32.3891233 181.637208,31.8025214 C181.870203,31.2154049 182.211722,30.6931233 182.661767,30.2346476 C182.891161,30.0015505 183.142158,29.7916087 183.415271,29.6043078 C183.688384,29.4175214 183.976927,29.2585214 184.280385,29.1283369 C184.583844,28.9976379 184.898104,28.8978126 185.223679,28.8293757 C185.549255,28.7614534 185.874316,28.7269777 186.199891,28.7269777 C186.589758,28.7269777 186.965224,28.7681427 187.327317,28.8504728 C187.688896,28.9333175 188.050475,29.0485796 188.412054,29.1972883 L188.412054,32.0978806 Z" id="Fill-31" fill="#004A85" sketch:type="MSShapeGroup" mask="url(#mask-4)"></path>
            <path d="M199.372368,28.9743282 L199.372368,34.2084641 C199.372368,34.5099981 199.365167,34.8074155 199.35128,35.1007165 C199.337393,35.394532 199.297789,35.6806291 199.233497,35.9600369 C199.169205,36.2394447 199.071995,36.5090757 198.941354,36.767901 C198.810712,37.0272408 198.631208,37.2696 198.401814,37.4949786 C198.208938,37.6879398 197.98983,37.8495126 197.745006,37.9802117 C197.499667,38.1109107 197.242499,38.2174252 196.973501,38.2997553 C196.704502,38.3820854 196.427789,38.4412602 196.144904,38.4777942 C195.861504,38.5138136 195.585305,38.5318233 195.315793,38.5318233 C195.04268,38.5318233 194.764423,38.5138136 194.481024,38.4777942 C194.197624,38.4412602 193.922454,38.3820854 193.655513,38.2997553 C193.388058,38.2174252 193.131918,38.1109107 192.887094,37.9802117 C192.641755,37.8495126 192.422647,37.6879398 192.229771,37.4949786 C191.996777,37.2696 191.815216,37.0272408 191.684574,36.767901 C191.553932,36.5090757 191.456208,36.2394447 191.391916,35.9600369 C191.327624,35.6806291 191.288535,35.394532 191.274647,35.1007165 C191.26076,34.8074155 191.25356,34.5099981 191.25356,34.2084641 L191.25356,28.9743282 L193.670429,28.9743282 L193.670429,33.8765709 C193.670429,34.077765 193.675572,34.2810175 193.685345,34.4858136 C193.695631,34.6906097 193.717748,34.8866583 193.751694,35.0739592 C193.786155,35.2607456 193.838103,35.4356971 193.908567,35.598299 C193.979031,35.760901 194.075212,35.9029204 194.197624,36.0233282 C194.320551,36.1442505 194.47228,36.2384155 194.652812,36.3068524 C194.833859,36.3752893 195.054509,36.4092505 195.315793,36.4092505 C195.572961,36.4092505 195.793097,36.3752893 195.975687,36.3068524 C196.158791,36.2384155 196.31052,36.1442505 196.430875,36.0233282 C196.551744,35.9029204 196.646897,35.760901 196.717361,35.598299 C196.787825,35.4356971 196.840802,35.2607456 196.876805,35.0739592 C196.913323,34.8866583 196.93544,34.6906097 196.943155,34.4858136 C196.951384,34.2810175 196.955499,34.077765 196.955499,33.8765709 L196.955499,28.9743282 L199.372368,28.9743282 Z" id="Fill-32" fill="#004A85" sketch:type="MSShapeGroup" mask="url(#mask-4)"></path>
            <path d="M204.776917,36.2345049 L207.681892,36.2345049 L207.681892,38.2845243 L202.360048,38.2845243 L202.360048,28.974534 L204.776917,28.974534 L204.776917,36.2345049 Z" id="Fill-33" fill="#004A85" sketch:type="MSShapeGroup" mask="url(#mask-4)"></path>
            <path d="M212.900818,38.2846786 L210.483948,38.2846786 L210.483948,31.0247078 L208.482663,31.0247078 L208.482663,28.9741738 L214.902103,28.9741738 L214.902103,31.0247078 L212.900818,31.0247078 L212.900818,38.2846786 Z" id="Fill-34" fill="#004A85" sketch:type="MSShapeGroup" mask="url(#mask-4)"></path>
            <path d="M225.198202,28.9743282 L225.198202,34.2084641 C225.198202,34.5099981 225.191001,34.8074155 225.177114,35.1007165 C225.163227,35.394532 225.123623,35.6806291 225.059331,35.9600369 C224.995039,36.2394447 224.897829,36.5090757 224.767187,36.767901 C224.636546,37.0272408 224.457042,37.2696 224.227648,37.4949786 C224.034772,37.6879398 223.815664,37.8495126 223.57084,37.9802117 C223.325501,38.1109107 223.068333,38.2174252 222.799334,38.2997553 C222.530336,38.3820854 222.253623,38.4412602 221.970738,38.4777942 C221.687338,38.5138136 221.411139,38.5318233 221.141627,38.5318233 C220.868514,38.5318233 220.590257,38.5138136 220.306858,38.4777942 C220.023458,38.4412602 219.748288,38.3820854 219.481347,38.2997553 C219.213892,38.2174252 218.957752,38.1109107 218.712928,37.9802117 C218.467589,37.8495126 218.248481,37.6879398 218.055605,37.4949786 C217.82261,37.2696 217.641049,37.0272408 217.510408,36.767901 C217.379766,36.5090757 217.282042,36.2394447 217.21775,35.9600369 C217.153458,35.6806291 217.114368,35.394532 217.100481,35.1007165 C217.086594,34.8074155 217.079394,34.5099981 217.079394,34.2084641 L217.079394,28.9743282 L219.496263,28.9743282 L219.496263,33.8765709 C219.496263,34.077765 219.501406,34.2810175 219.511178,34.4858136 C219.521465,34.6906097 219.543582,34.8866583 219.577528,35.0739592 C219.611989,35.2607456 219.663937,35.4356971 219.734401,35.598299 C219.804865,35.760901 219.901046,35.9029204 220.023458,36.0233282 C220.146385,36.1442505 220.298114,36.2384155 220.478646,36.3068524 C220.659693,36.3752893 220.880343,36.4092505 221.141627,36.4092505 C221.398795,36.4092505 221.618931,36.3752893 221.801521,36.3068524 C221.984625,36.2384155 222.136354,36.1442505 222.256709,36.0233282 C222.377578,35.9029204 222.47273,35.760901 222.543195,35.598299 C222.613659,35.4356971 222.666635,35.2607456 222.702639,35.0739592 C222.739157,34.8866583 222.761273,34.6906097 222.768989,34.4858136 C222.777218,34.2810175 222.781333,34.077765 222.781333,33.8765709 L222.781333,28.9743282 L225.198202,28.9743282 Z" id="Fill-35" fill="#004A85" sketch:type="MSShapeGroup" mask="url(#mask-4)"></path>
            <path d="M230.602751,33.1471262 L230.837803,33.1471262 C231.034794,33.1471262 231.233843,33.1342621 231.434434,33.1080194 C231.63554,33.0817767 231.816072,33.0277476 231.977059,32.9449029 C232.137533,32.8625728 232.268174,32.7462816 232.368984,32.5955146 C232.46928,32.4447476 232.519685,32.2425243 232.519685,31.9893592 C232.519685,31.7361942 232.46928,31.5329417 232.368984,31.3801165 C232.268174,31.2278058 232.137533,31.1099709 231.977059,31.0276408 C231.816072,30.9453107 231.63554,30.890767 231.434434,30.8645243 C231.233843,30.8387961 231.034794,30.8254175 230.837803,30.8254175 L230.602751,30.8254175 L230.602751,33.1471262 Z M235.92511,38.2845243 L232.911095,38.2845243 L230.633097,34.7026505 L230.602751,34.7026505 L230.602751,38.2845243 L228.185882,38.2845243 L228.185882,28.974534 L231.802185,28.974534 C232.260459,28.974534 232.687359,29.0306214 233.082884,29.1433107 C233.478923,29.256 233.821472,29.4283786 234.110529,29.6619903 C234.400101,29.8950874 234.626923,30.1914757 234.792025,30.5511553 C234.956613,30.910835 235.038907,31.3399806 235.038907,31.8385922 C235.038907,32.1601942 234.994674,32.4668738 234.906208,32.7581165 C234.817742,33.0498738 234.687101,33.3117864 234.514284,33.5448835 C234.341981,33.7784951 234.128531,33.9750583 233.875477,34.1361165 C233.622423,34.2966602 233.331309,34.4072913 233.001619,34.4674951 L235.92511,38.2845243 Z" id="Fill-36" fill="#004A85" sketch:type="MSShapeGroup" mask="url(#mask-4)"></path>
            <path d="M242.508365,31.850633 L242.484191,31.850633 L241.483806,34.8176039 L243.496921,34.8176039 L242.508365,31.850633 Z M240.814654,36.6684874 L240.175847,38.2847301 L237.608277,38.2847301 L241.188577,28.9742252 L243.828154,28.9742252 L247.336446,38.2847301 L244.756532,38.2847301 L244.148071,36.6684874 L240.814654,36.6684874 Z" id="Fill-37" fill="#004A85" sketch:type="MSShapeGroup" mask="url(#mask-4)"></path>
            <path d="M251.895477,36.2345049 L254.800452,36.2345049 L254.800452,38.2845243 L249.478608,38.2845243 L249.478608,28.974534 L251.895477,28.974534 L251.895477,36.2345049 Z" id="Fill-38" fill="#004A85" sketch:type="MSShapeGroup" mask="url(#mask-4)"></path>
            <path d="M61.5554308,48.0985806 L61.5384577,48.0985806 L60.8240437,50.2170369 L62.2616154,50.2170369 L61.5554308,48.0985806 Z M60.3462247,51.5389495 L59.8900079,52.6926 L58.0569111,52.6926 L60.6131656,46.0449592 L62.4982104,46.0449592 L65.0025168,52.6926 L63.1606763,52.6926 L62.7260616,51.5389495 L60.3462247,51.5389495 Z" id="Fill-39" fill="#004A85" sketch:type="MSShapeGroup" mask="url(#mask-4)"></path>
            <path d="M65.8474181,46.0448563 L67.5730185,46.0448563 L70.7403052,50.1088757 L70.7577927,50.1088757 L70.7577927,46.0448563 L72.483393,46.0448563 L72.483393,52.6924971 L70.7577927,52.6924971 L67.5946206,48.6192155 L67.5730185,48.6192155 L67.5730185,52.6924971 L65.8474181,52.6924971 L65.8474181,46.0448563 Z" id="Fill-40" fill="#004A85" sketch:type="MSShapeGroup" mask="url(#mask-4)"></path>
            <path d="M75.6936783,51.228668 L76.085603,51.228668 C76.3438002,51.228668 76.5881102,51.1931631 76.8190475,51.1206097 C77.0499848,51.0490854 77.2521192,50.9374252 77.4259651,50.7851146 C77.5998109,50.6333184 77.7381676,50.4403573 77.8410349,50.2062311 C77.9444167,49.9721049 77.9963647,49.6932117 77.9963647,49.3690369 C77.9963647,49.0705903 77.94956,48.8050757 77.8564651,48.5740369 C77.7628557,48.3435126 77.6327285,48.1490078 77.4645403,47.9910369 C77.2968665,47.833066 77.0973038,47.7131728 76.8663665,47.6313573 C76.6354292,47.5500563 76.3808324,47.5088913 76.1025762,47.5088913 L75.6936783,47.5088913 L75.6936783,51.228668 Z M73.968078,46.0449592 L76.416836,46.0449592 C76.7233808,46.0449592 77.0206676,46.0835515 77.3076676,46.1607359 C77.5946676,46.238435 77.8636658,46.3485515 78.1146622,46.4905709 C78.3656586,46.6320757 78.5945385,46.8039398 78.801302,47.005134 C79.0075511,47.2063282 79.1839686,47.4296485 79.3300403,47.6766388 C79.4766263,47.9236291 79.5908091,48.1901728 79.6725887,48.4752408 C79.7543683,48.7608233 79.7950009,49.0582408 79.7950009,49.3690369 C79.7950009,49.6782893 79.7543683,49.9762214 79.6725887,50.2623184 C79.5908091,50.547901 79.476112,50.8139301 79.327983,51.0604058 C79.1803683,51.3073961 79.0034364,51.5317456 78.7966729,51.7324252 C78.5899095,51.9331049 78.3620582,52.1044544 78.1126048,52.2469883 C77.8626371,52.3890078 77.5946676,52.4986097 77.3076676,52.5757942 C77.0206676,52.6540078 76.7233808,52.6926 76.416836,52.6926 L73.968078,52.6926 L73.968078,46.0449592 Z" id="Fill-41" fill="#004A85" sketch:type="MSShapeGroup" mask="url(#mask-4)"></path>
            <path d="M88.1585306,45.4323204 L88.1585306,46.9878447 L90.8891453,46.9878447 L90.8891453,49.0383786 L88.1585306,49.0383786 L88.1585306,50.6422718 L91.0398461,50.6422718 L91.0398461,52.6922913 L85.7416615,52.6922913 L85.7416615,43.382301 L91.0398461,43.382301 L91.0398461,45.4323204 L88.1585306,45.4323204 Z" id="Fill-42" fill="#004A85" sketch:type="MSShapeGroup" mask="url(#mask-4)"></path>
            <path d="M93.7554935,43.3820951 L96.1723627,43.3820951 L100.608519,49.0747068 L100.632692,49.0747068 L100.632692,43.3820951 L103.049562,43.3820951 L103.049562,52.6926 L100.632692,52.6926 L96.2027086,46.9881534 L96.1723627,46.9881534 L96.1723627,52.6926 L93.7554935,52.6926 L93.7554935,43.3820951 Z" id="Fill-43" fill="#004A85" sketch:type="MSShapeGroup" mask="url(#mask-4)"></path>
            <path d="M109.710996,49.0382757 L111.971507,43.3821981 L114.599254,43.3821981 L110.62703,52.6927029 L108.746615,52.6927029 L104.835082,43.3821981 L107.469002,43.3821981 L109.710996,49.0382757 Z" id="Fill-44" fill="#004A85" sketch:type="MSShapeGroup" mask="url(#mask-4)"></path>
            <path d="M118.807713,52.6922913 L116.390844,52.6922913 L116.390844,43.3817864 L118.807713,43.3817864 L118.807713,52.6922913 Z" id="Fill-45" fill="#004A85" sketch:type="MSShapeGroup" mask="url(#mask-4)"></path>
            <path d="M124.020518,47.5548932 L124.25557,47.5548932 C124.452561,47.5548932 124.651609,47.5420291 124.852201,47.5157864 C125.053306,47.4895437 125.233839,47.4355146 125.394826,47.3526699 C125.555299,47.2703398 125.685941,47.1540485 125.786751,47.0032816 C125.887047,46.8525146 125.937452,46.6502913 125.937452,46.3971262 C125.937452,46.1439612 125.887047,45.9407087 125.786751,45.7878835 C125.685941,45.6355728 125.555299,45.5177379 125.394826,45.4354078 C125.233839,45.3530777 125.053306,45.298534 124.852201,45.2722913 C124.651609,45.2465631 124.452561,45.2331845 124.25557,45.2331845 L124.020518,45.2331845 L124.020518,47.5548932 Z M129.342876,52.6922913 L126.328862,52.6922913 L124.050864,49.1104175 L124.020518,49.1104175 L124.020518,52.6922913 L121.603649,52.6922913 L121.603649,43.382301 L125.219952,43.382301 C125.678226,43.382301 126.105125,43.4383883 126.500651,43.5510777 C126.89669,43.663767 127.239238,43.8361456 127.528296,44.0697573 C127.817867,44.3028544 128.04469,44.5992427 128.209792,44.9589223 C128.37438,45.3186019 128.456674,45.7477476 128.456674,46.2463592 C128.456674,46.5679612 128.412441,46.8746408 128.323975,47.1658835 C128.235509,47.4576408 128.104867,47.7195534 127.93205,47.9526505 C127.759747,48.1862621 127.546297,48.3828252 127.293244,48.5438835 C127.04019,48.7044272 126.749075,48.8150583 126.419385,48.8752621 L129.342876,52.6922913 Z" id="Fill-46" fill="#004A85" sketch:type="MSShapeGroup" mask="url(#mask-4)"></path>
            <path d="M135.646332,45.4202282 C135.284754,45.4202282 134.945291,45.4876359 134.627945,45.6224515 C134.310085,45.7567524 134.031829,45.9378786 133.792662,46.164801 C133.55401,46.3922379 133.364734,46.6531214 133.226377,46.9489951 C133.087506,47.2443544 133.018585,47.5530922 133.018585,47.8746942 C133.018585,48.276568 133.087506,48.6470534 133.226377,48.9871796 C133.364734,49.3267913 133.55401,49.6200922 133.792662,49.8675971 C134.031829,50.1145874 134.310085,50.3075485 134.627945,50.4464806 C134.945291,50.5848981 135.284754,50.6543641 135.646332,50.6543641 C136.007911,50.6543641 136.348402,50.5848981 136.667806,50.4464806 C136.987209,50.3075485 137.265465,50.1145874 137.502574,49.8675971 C137.739684,49.6200922 137.927931,49.3267913 138.066288,48.9871796 C138.205159,48.6470534 138.27408,48.276568 138.27408,47.8746942 C138.27408,47.5530922 138.205159,47.2443544 138.066288,46.9489951 C137.927931,46.6531214 137.739684,46.3922379 137.502574,46.164801 C137.265465,45.9378786 136.987209,45.7567524 136.667806,45.6224515 C136.348402,45.4876359 136.007911,45.4202282 135.646332,45.4202282 M135.646332,43.074335 C136.092263,43.074335 136.529449,43.1278495 136.957377,43.2343641 C137.385306,43.3408786 137.790089,43.4926748 138.171727,43.6897524 C138.553365,43.8868301 138.905171,44.1266165 139.226632,44.4101408 C139.548092,44.693665 139.824291,45.0132087 140.055228,45.3687718 C140.286166,45.7248495 140.467212,46.111801 140.597854,46.5296262 C140.728496,46.947966 140.793816,47.392034 140.793816,47.8623447 C140.793816,48.6182379 140.666261,49.3108398 140.41115,49.9396359 C140.156039,50.5689466 139.799089,51.1097524 139.341329,51.5620534 C138.883055,52.0138398 138.339401,52.3668301 137.710881,52.6199951 C137.081847,52.8731602 136.393664,52.9997427 135.646332,52.9997427 C135.14794,52.9997427 134.67475,52.9426262 134.226763,52.8278786 C133.778775,52.7136456 133.364734,52.5495 132.985153,52.3364709 C132.605573,52.1234417 132.261996,51.8651311 131.954422,51.5620534 C131.647363,51.2584612 131.38608,50.9157621 131.171087,50.5339563 C130.956094,50.1516359 130.790478,49.7368981 130.673723,49.2887136 C130.556969,48.8400146 130.498849,48.3650728 130.498849,47.8623447 C130.498849,47.392034 130.564169,46.947966 130.694811,46.5296262 C130.825453,46.111801 131.007013,45.7248495 131.240522,45.3687718 C131.473517,45.0132087 131.749716,44.693665 132.069119,44.4101408 C132.388522,44.1266165 132.7393,43.8868301 133.120938,43.6897524 C133.502576,43.4926748 133.907359,43.3408786 134.335288,43.2343641 C134.763216,43.1278495 135.200402,43.074335 135.646332,43.074335" id="Fill-47" fill="#004A85" sketch:type="MSShapeGroup" mask="url(#mask-4)"></path>
            <path d="M143.364884,43.3820951 L145.781753,43.3820951 L150.217909,49.0747068 L150.242083,49.0747068 L150.242083,43.3820951 L152.658952,43.3820951 L152.658952,52.6926 L150.242083,52.6926 L145.812099,46.9881534 L145.781753,46.9881534 L145.781753,52.6926 L143.364884,52.6926 L143.364884,43.3820951 Z" id="Fill-48" fill="#004A85" sketch:type="MSShapeGroup" mask="url(#mask-4)"></path>
            <path d="M156.452855,43.3820951 L158.833721,43.3820951 L160.726481,48.3568913 L162.721594,43.3820951 L165.132291,43.3820951 L166.53643,52.6926 L164.119561,52.6926 L163.438579,47.3318816 L163.414405,47.3318816 L161.178583,52.6926 L160.219859,52.6926 L158.080217,47.3318816 L158.056043,47.3318816 L157.278366,52.6926 L154.873841,52.6926 L156.452855,43.3820951 Z" id="Fill-49" fill="#004A85" sketch:type="MSShapeGroup" mask="url(#mask-4)"></path>
            <path d="M171.200335,45.4323204 L171.200335,46.9878447 L173.930949,46.9878447 L173.930949,49.0383786 L171.200335,49.0383786 L171.200335,50.6422718 L174.08165,50.6422718 L174.08165,52.6922913 L168.783466,52.6922913 L168.783466,43.382301 L174.08165,43.382301 L174.08165,45.4323204 L171.200335,45.4323204 Z" id="Fill-50" fill="#004A85" sketch:type="MSShapeGroup" mask="url(#mask-4)"></path>
            <path d="M176.797298,43.3820951 L179.214167,43.3820951 L183.650323,49.0747068 L183.674497,49.0747068 L183.674497,43.3820951 L186.091366,43.3820951 L186.091366,52.6926 L183.674497,52.6926 L179.244513,46.9881534 L179.214167,46.9881534 L179.214167,52.6926 L176.797298,52.6926 L176.797298,43.3820951 Z" id="Fill-51" fill="#004A85" sketch:type="MSShapeGroup" mask="url(#mask-4)"></path>
            <path d="M192.460451,52.6924456 L190.043582,52.6924456 L190.043582,45.4324748 L188.042297,45.4324748 L188.042297,43.3819408 L194.461736,43.3819408 L194.461736,45.4324748 L192.460451,45.4324748 L192.460451,52.6924456 Z" id="Fill-52" fill="#004A85" sketch:type="MSShapeGroup" mask="url(#mask-4)"></path>
            <path d="M199.886705,46.2584 L199.862531,46.2584 L198.862146,49.2253709 L200.87526,49.2253709 L199.886705,46.2584 Z M198.192993,51.0762544 L197.554187,52.6924971 L194.986617,52.6924971 L198.566916,43.3819922 L201.206493,43.3819922 L204.714785,52.6924971 L202.134872,52.6924971 L201.526411,51.0762544 L198.192993,51.0762544 Z" id="Fill-53" fill="#004A85" sketch:type="MSShapeGroup" mask="url(#mask-4)"></path>
            <path d="M209.273868,50.6422718 L212.178843,50.6422718 L212.178843,52.6922913 L206.856999,52.6922913 L206.856999,43.382301 L209.273868,43.382301 L209.273868,50.6422718 Z" id="Fill-54" fill="#004A85" sketch:type="MSShapeGroup" mask="url(#mask-4)"></path>
            <path d="M224.779789,45.7759971 C224.555023,45.5912689 224.30557,45.4425602 224.032457,45.3298709 C223.759344,45.2171816 223.473887,45.1610942 223.176601,45.1610942 C223.063961,45.1610942 222.947206,45.1770456 222.826851,45.2089485 C222.706497,45.241366 222.594885,45.289735 222.492532,45.3540553 C222.390179,45.4183757 222.305314,45.4996767 222.239479,45.5979583 C222.173129,45.6967544 222.139697,45.8099583 222.139697,45.938599 C222.139697,46.0754728 222.176215,46.1922786 222.248222,46.2885019 C222.320744,46.3852398 222.411267,46.4675699 222.519278,46.5360068 C222.627803,46.6039291 222.744558,46.6615602 222.869027,46.7078709 C222.993497,46.753667 223.108194,46.7932883 223.212604,46.8251913 L223.827237,47.0119777 C224.152812,47.1087155 224.455242,47.2239777 224.734527,47.3587932 C225.013812,47.4936087 225.256065,47.6613563 225.460771,47.8625505 C225.665991,48.0632301 225.827493,48.3014728 225.946305,48.5767641 C226.064602,48.8525699 226.123751,49.1788029 226.123751,49.5570068 C226.123751,49.7859874 226.108835,50.0159971 226.078489,50.2470359 C226.048658,50.4785893 225.996196,50.7024243 225.922131,50.9195699 C225.847552,51.1367155 225.748285,51.3425408 225.623816,51.5375602 C225.498832,51.7325796 225.344531,51.9085602 225.159369,52.0655019 C224.793676,52.3747544 224.381178,52.5980748 223.920846,52.734434 C223.461029,52.8713078 222.993497,52.9397447 222.519278,52.9397447 C221.932934,52.9397447 221.360477,52.8460942 220.801907,52.6593078 C220.243337,52.4725214 219.724885,52.2121524 219.246552,51.878201 L220.283455,49.9249194 C220.436213,50.0571621 220.594629,50.182201 220.759731,50.2984922 C220.924319,50.4152981 221.097136,50.5176961 221.277669,50.606201 C221.458715,50.6947058 221.64542,50.7636573 221.838296,50.8140845 C222.031172,50.8645117 222.230221,50.8897252 222.434927,50.8897252 C222.575855,50.8897252 222.716269,50.871201 222.857197,50.8351816 C222.997611,50.7991621 223.123109,50.7425602 223.233692,50.6664049 C223.344274,50.589735 223.433769,50.4924825 223.502176,50.374133 C223.570068,50.2552689 223.604529,50.1137641 223.604529,49.9485893 C223.604529,49.7798126 223.552066,49.6372786 223.447656,49.5204728 C223.343246,49.4041816 223.21569,49.3043563 223.064989,49.2220262 C222.914289,49.1396961 222.75433,49.0722883 222.585627,49.0203175 C222.416925,48.967832 222.268282,48.9235796 222.139697,48.8875602 C221.758059,48.7789874 221.412425,48.6662981 221.103308,48.5500068 C220.793678,48.433201 220.529308,48.2793466 220.310715,48.0884437 C220.091608,47.8975408 219.921877,47.6572398 219.801007,47.3680553 C219.680653,47.0783563 219.620475,46.7083854 219.620475,46.2581427 C219.620475,45.787832 219.699683,45.3597155 219.858613,44.9737932 C220.017029,44.5878709 220.239222,44.2595796 220.524679,43.9878903 C220.809622,43.7167155 221.148056,43.5067738 221.53998,43.358065 C221.931905,43.2093563 222.360862,43.1347447 222.826851,43.1347447 C223.059846,43.1347447 223.305185,43.1527544 223.562353,43.1892883 C223.819522,43.2253078 224.074633,43.2767641 224.327687,43.3426282 C224.58074,43.4090068 224.828136,43.4897932 225.068846,43.5839583 C225.31007,43.6786379 225.53535,43.7841233 225.74417,43.9004146 L224.779789,45.7759971 Z" id="Fill-55" fill="#004A85" sketch:type="MSShapeGroup" mask="url(#mask-4)"></path>
            <path d="M235.066013,46.5056476 C234.941543,46.3368709 234.799586,46.1891913 234.64117,46.0626087 C234.48224,45.9360262 234.31148,45.8295117 234.128891,45.743065 C233.945787,45.6566184 233.753939,45.5912689 233.553348,45.5470165 C233.352242,45.5027641 233.149079,45.4806379 232.944373,45.4806379 C232.574565,45.4806379 232.23716,45.5470165 231.931644,45.6797738 C231.626642,45.8120165 231.365359,45.995201 231.148308,46.2282981 C230.931258,46.4613951 230.762556,46.7346282 230.641687,47.0485117 C230.521332,47.3618806 230.461154,47.699434 230.461154,48.0611718 C230.461154,48.4311427 230.521332,48.7707544 230.641687,49.0805214 C230.762556,49.3897738 230.933316,49.6563175 231.15448,49.8796379 C231.375131,50.1024437 231.640529,50.2773951 231.949645,50.4039777 C232.259276,50.5305602 232.602853,50.5938515 232.980377,50.5938515 C233.177368,50.5938515 233.37333,50.5706961 233.568264,50.5249 C233.763197,50.4785893 233.949902,50.4122107 234.128891,50.3257641 C234.307366,50.2393175 234.476583,50.1358903 234.634998,50.014968 C234.793928,49.8945602 234.937428,49.7576864 235.066013,49.6048612 L235.066013,52.5054534 C234.864907,52.5656573 234.676145,52.6232883 234.499213,52.6773175 C234.322796,52.7318612 234.149979,52.7776573 233.981276,52.8162495 C233.812059,52.8543272 233.642328,52.8841718 233.471568,52.9062981 C233.300808,52.9284243 233.121305,52.9397447 232.932543,52.9397447 C232.281393,52.9397447 231.657502,52.8208806 231.060871,52.5841816 C230.46424,52.346968 229.922644,52.0089 229.436595,51.5710068 C228.922258,51.1048126 228.544221,50.5748126 228.303511,49.9820359 C228.062287,49.3892592 227.941418,48.7450262 227.941418,48.0493369 C227.941418,47.4102495 228.058172,46.7968903 228.291167,46.2102883 C228.524161,45.6231718 228.865681,45.1008903 229.315726,44.6424146 C229.54512,44.4093175 229.796117,44.1993757 230.06923,44.0120748 C230.342342,43.8252883 230.630885,43.6662883 230.934344,43.5361039 C231.237803,43.4054049 231.552063,43.3055796 231.877638,43.2371427 C232.203213,43.1692204 232.528274,43.1347447 232.85385,43.1347447 C233.243717,43.1347447 233.619183,43.1759097 233.981276,43.2582398 C234.342855,43.3410845 234.704434,43.4563466 235.066013,43.6050553 L235.066013,46.5056476 Z" id="Fill-56" fill="#004A85" sketch:type="MSShapeGroup" mask="url(#mask-4)"></path>
            <path d="M240.212314,52.6922913 L237.795444,52.6922913 L237.795444,43.3817864 L240.212314,43.3817864 L240.212314,52.6922913 Z" id="Fill-57" fill="#004A85" sketch:type="MSShapeGroup" mask="url(#mask-4)"></path>
            <path d="M245.425581,45.4323204 L245.425581,46.9878447 L248.156196,46.9878447 L248.156196,49.0383786 L245.425581,49.0383786 L245.425581,50.6422718 L248.306897,50.6422718 L248.306897,52.6922913 L243.008712,52.6922913 L243.008712,43.382301 L248.306897,43.382301 L248.306897,45.4323204 L245.425581,45.4323204 Z" id="Fill-58" fill="#004A85" sketch:type="MSShapeGroup" mask="url(#mask-4)"></path>
            <path d="M251.264128,43.3820951 L253.680997,43.3820951 L258.117153,49.0747068 L258.141327,49.0747068 L258.141327,43.3820951 L260.558196,43.3820951 L260.558196,52.6926 L258.141327,52.6926 L253.711343,46.9881534 L253.680997,46.9881534 L253.680997,52.6926 L251.264128,52.6926 L251.264128,43.3820951 Z" id="Fill-59" fill="#004A85" sketch:type="MSShapeGroup" mask="url(#mask-4)"></path>
            <path d="M269.754643,46.5056476 C269.630174,46.3368709 269.488217,46.1891913 269.329801,46.0626087 C269.170871,45.9360262 269.000111,45.8295117 268.817521,45.743065 C268.634417,45.6566184 268.44257,45.5912689 268.241978,45.5470165 C268.040873,45.5027641 267.837709,45.4806379 267.633003,45.4806379 C267.263195,45.4806379 266.92579,45.5470165 266.620274,45.6797738 C266.315272,45.8120165 266.053989,45.995201 265.836939,46.2282981 C265.619889,46.4613951 265.451186,46.7346282 265.330317,47.0485117 C265.209962,47.3618806 265.149785,47.699434 265.149785,48.0611718 C265.149785,48.4311427 265.209962,48.7707544 265.330317,49.0805214 C265.451186,49.3897738 265.621946,49.6563175 265.843111,49.8796379 C266.063761,50.1024437 266.329159,50.2773951 266.638276,50.4039777 C266.947907,50.5305602 267.291484,50.5938515 267.669007,50.5938515 C267.865998,50.5938515 268.06196,50.5706961 268.256894,50.5249 C268.451828,50.4785893 268.638532,50.4122107 268.817521,50.3257641 C268.995996,50.2393175 269.165213,50.1358903 269.323629,50.014968 C269.482559,49.8945602 269.626059,49.7576864 269.754643,49.6048612 L269.754643,52.5054534 C269.553537,52.5656573 269.364776,52.6232883 269.187844,52.6773175 C269.011426,52.7318612 268.838609,52.7776573 268.669907,52.8162495 C268.50069,52.8543272 268.330959,52.8841718 268.160199,52.9062981 C267.989439,52.9284243 267.809935,52.9397447 267.621174,52.9397447 C266.970023,52.9397447 266.346132,52.8208806 265.749502,52.5841816 C265.152871,52.346968 264.611274,52.0089 264.125226,51.5710068 C263.610889,51.1048126 263.232851,50.5748126 262.992141,49.9820359 C262.750917,49.3892592 262.630048,48.7450262 262.630048,48.0493369 C262.630048,47.4102495 262.746803,46.7968903 262.979797,46.2102883 C263.212792,45.6231718 263.554312,45.1008903 264.004356,44.6424146 C264.233751,44.4093175 264.484747,44.1993757 264.75786,44.0120748 C265.030973,43.8252883 265.319516,43.6662883 265.622975,43.5361039 C265.926434,43.4054049 266.240693,43.3055796 266.566269,43.2371427 C266.891844,43.1692204 267.216905,43.1347447 267.54248,43.1347447 C267.932347,43.1347447 268.307813,43.1759097 268.669907,43.2582398 C269.031485,43.3410845 269.393064,43.4563466 269.754643,43.6050553 L269.754643,46.5056476 Z" id="Fill-60" fill="#004A85" sketch:type="MSShapeGroup" mask="url(#mask-4)"></path>
            <path d="M274.892509,45.4323204 L274.892509,46.9878447 L277.623124,46.9878447 L277.623124,49.0383786 L274.892509,49.0383786 L274.892509,50.6422718 L277.773824,50.6422718 L277.773824,52.6922913 L272.47564,52.6922913 L272.47564,43.382301 L277.773824,43.382301 L277.773824,45.4323204 L274.892509,45.4323204 Z" id="Fill-61" fill="#004A85" sketch:type="MSShapeGroup" mask="url(#mask-4)"></path>
            <path d="M285.46203,45.7759971 C285.237265,45.5912689 284.987811,45.4425602 284.714698,45.3298709 C284.441585,45.2171816 284.156128,45.1610942 283.858842,45.1610942 C283.746202,45.1610942 283.629447,45.1770456 283.509092,45.2089485 C283.388738,45.241366 283.277127,45.289735 283.174773,45.3540553 C283.07242,45.4183757 282.987555,45.4996767 282.92172,45.5979583 C282.85537,45.6967544 282.821938,45.8099583 282.821938,45.938599 C282.821938,46.0754728 282.858456,46.1922786 282.930463,46.2885019 C283.002985,46.3852398 283.093508,46.4675699 283.201519,46.5360068 C283.310044,46.6039291 283.426799,46.6615602 283.551268,46.7078709 C283.675738,46.753667 283.790435,46.7932883 283.894845,46.8251913 L284.509478,47.0119777 C284.835053,47.1087155 285.137483,47.2239777 285.416768,47.3587932 C285.696053,47.4936087 285.938306,47.6613563 286.143012,47.8625505 C286.348232,48.0632301 286.509734,48.3014728 286.628546,48.5767641 C286.746843,48.8525699 286.805992,49.1788029 286.805992,49.5570068 C286.805992,49.7859874 286.791076,50.0159971 286.76073,50.2470359 C286.730899,50.4785893 286.678437,50.7024243 286.604372,50.9195699 C286.529793,51.1367155 286.430526,51.3425408 286.306057,51.5375602 C286.181073,51.7325796 286.026772,51.9085602 285.84161,52.0655019 C285.475917,52.3747544 285.063419,52.5980748 284.603087,52.734434 C284.14327,52.8713078 283.675738,52.9397447 283.201519,52.9397447 C282.615175,52.9397447 282.042718,52.8460942 281.484148,52.6593078 C280.925578,52.4725214 280.407127,52.2121524 279.928793,51.878201 L280.965696,49.9249194 C281.118454,50.0571621 281.27687,50.182201 281.441972,50.2984922 C281.60656,50.4152981 281.779377,50.5176961 281.95991,50.606201 C282.140956,50.6947058 282.327661,50.7636573 282.520537,50.8140845 C282.713413,50.8645117 282.912462,50.8897252 283.117168,50.8897252 C283.258096,50.8897252 283.39851,50.871201 283.539438,50.8351816 C283.679852,50.7991621 283.805351,50.7425602 283.915933,50.6664049 C284.026515,50.589735 284.11601,50.4924825 284.184417,50.374133 C284.252309,50.2552689 284.28677,50.1137641 284.28677,49.9485893 C284.28677,49.7798126 284.234308,49.6372786 284.129897,49.5204728 C284.025487,49.4041816 283.897931,49.3043563 283.74723,49.2220262 C283.59653,49.1396961 283.436571,49.0722883 283.267868,49.0203175 C283.099166,48.967832 282.950523,48.9235796 282.821938,48.8875602 C282.4403,48.7789874 282.094666,48.6662981 281.785549,48.5500068 C281.475919,48.433201 281.211549,48.2793466 280.992956,48.0884437 C280.773849,47.8975408 280.604118,47.6572398 280.483248,47.3680553 C280.362894,47.0783563 280.302716,46.7083854 280.302716,46.2581427 C280.302716,45.787832 280.381924,45.3597155 280.540854,44.9737932 C280.69927,44.5878709 280.921463,44.2595796 281.20692,43.9878903 C281.491863,43.7167155 281.830297,43.5067738 282.222222,43.358065 C282.614146,43.2093563 283.043103,43.1347447 283.509092,43.1347447 C283.742087,43.1347447 283.987426,43.1527544 284.244594,43.1892883 C284.501763,43.2253078 284.756874,43.2767641 285.009928,43.3426282 C285.262981,43.4090068 285.510377,43.4897932 285.751087,43.5839583 C285.992311,43.6786379 286.217591,43.7841233 286.426411,43.9004146 L285.46203,45.7759971 Z" id="Fill-62" fill="#004A85" sketch:type="MSShapeGroup" mask="url(#mask-4)"></path>
        </g>
    </g>
</svg>