<?xml version="1.0" encoding="UTF-8"?>
<svg width="417px" height="75px" viewBox="0 0 417 75" version="1.1" xmlns="http://www.w3.org/2000/svg" xmlns:xlink="http://www.w3.org/1999/xlink">
    <title>caes</title>
    <g id="Symbols" stroke="none" stroke-width="1" fill="none" fill-rule="evenodd">
        <g id="footer" transform="translate(-660, -110)">
            <g id="caes-logo" transform="translate(660, 110)">
                <path d="M51.0686207,28.4714831 C51.544539,20.1495875 49.9554897,12.1923185 46.760465,5.05521532 C46.0754613,3.52339218 45.2898974,2.04728947 44.4615208,0.598558207 L0,0.598558207 L0,74.9051775 L12.8079766,74.9051775 C33.8150894,69.272526 49.7752779,50.9942687 51.0686207,28.4714831" id="Fill-1" fill="#DAAA00"></path>
                <path d="M49.620953,0.598558207 C54.233776,6.86368553 57.6139906,14.148399 59.2916523,22.2151537 C63.4614134,42.2784199 56.1732924,62.0161615 41.8409833,74.9051775 L75.6859421,74.9051775 L75.6859421,0.598558207 L49.620953,0.598558207" id="Fill-2" fill="#002855"></path>
                <path d="M230.743704,25.1165264 L233.449867,18.0967294 L233.91782,18.4965479 C235.576564,19.8250404 237.827718,20.9550899 239.951428,21.0000572 C241.851119,21.0430695 242.778064,20.5464733 242.526166,18.9677277 C242.339981,17.7897782 240.983912,17.5815598 240.135623,17.4183087 L238.278745,17.053682 C234.664554,16.3899245 231.62485,14.2011868 231.62485,10.0524584 C231.62485,3.78048822 237.130766,0.263258056 242.668543,0.263258056 C245.576822,0.263258056 248.248138,0.990556344 250.74422,2.58689788 L248.399476,8.80705784 C247.111111,7.89597987 245.164625,6.61440991 242.698413,6.52740783 C241.887958,6.49710373 240.030084,6.91647331 240.624484,8.76502312 C240.881361,9.5529296 242.031331,9.88431955 242.739234,10.0524584 L244.838054,10.5500321 C248.751934,11.4454692 251.586535,13.6351845 251.586535,18.1143253 C251.586535,24.4195322 246.046767,27.538899 240.545828,27.538899 C237.333878,27.538899 233.616139,26.6415067 230.743704,25.1165264" id="Fill-3" fill="#DAAA00"></path>
                <polygon id="Fill-4" fill="#DAAA00" points="219.324652 27.1420131 228.752414 27.1420131 228.752414 0.694358251 219.324652 0.694358251"></polygon>
                <polyline id="Fill-5" fill="#DAAA00" points="208.693155 0.693380699 218.34892 0.693380699 208.485065 27.1420131 200.650335 27.1420131 190.818341 0.693380699 200.44125 0.693380699 204.569194 16.6538634 208.693155 0.693380699"></polyline>
                <path d="M181.998918,8.32805762 L181.998918,8.32805762 C182.170169,9.45321935 183.858783,17.548323 183.858783,17.548323 L180.151997,17.548323 L181.998918,8.32805762 Z M167.946386,27.1420131 L177.742536,27.1420131 L178.488274,23.8202932 L185.477702,23.8202932 L186.405643,27.1420131 L196.207767,27.1420131 L187.032899,0.694358251 L176.756848,0.694358251 L167.946386,27.1420131 L167.946386,27.1420131 Z" id="Fill-6" fill="#DAAA00"></path>
                <path d="M143.724335,0.693380699 L153.381096,0.693380699 C162.000394,0.693380699 168.583598,4.57817021 168.583598,14.2999195 C168.583598,22.1320618 163.219063,27.1420131 155.682031,27.1420131 L143.724335,27.1273498 L143.724335,0.693380699 Z M153.215819,19.5483933 L153.848053,19.5483933 C156.955461,19.5483933 159.261375,17.7174394 159.261375,14.2657052 C159.261375,10.5500321 157.219307,8.47762299 153.80524,8.47762299 L153.215819,8.47762299 L153.215819,19.5483933 L153.215819,19.5483933 Z" id="Fill-7" fill="#DAAA00"></path>
                <path d="M138.085998,1.52332189 L138.589794,5.86462793 C138.70728,6.89398962 139.307654,9.36523972 138.564903,9.03482733 C138.102924,8.83149662 137.721592,7.71122265 137.343247,6.71509771 C137.151087,6.2097036 136.233103,3.82056783 135.993152,3.64460856 C134.831235,2.79316124 131.936895,1.8312506 129.978461,1.82245264 C124.040435,1.80094651 120.112615,6.10217294 120.112615,13.7358723 C120.112615,19.2101605 122.780944,25.7773512 129.572238,25.7773512 C132.005594,25.7773512 136.665213,25.0256141 137.93466,21.6266677 C138.508151,20.0880017 139.031861,18.7204072 139.411201,19.1368441 C139.693965,19.4389075 139.326572,20.6706224 139.157312,21.3343798 C138.356813,24.4850282 138.313005,25.440096 138.061107,25.5622899 C134.993525,27.0765171 131.05774,27.5740908 127.6148,27.5740908 C116.662706,27.5740908 112.882242,21.3011431 112.882242,15.0301504 C112.882242,4.14707002 119.691458,-0.436668791 130.244298,0.0325559106 C132.914618,0.130311057 135.585933,0.596603104 138.085998,1.52332189" id="Fill-9" fill="#DAAA00"></path>
                <path d="M105.753424,2.00623231 L103.999097,1.40503816 C103.412663,0.884980786 104.129527,0.739325618 104.129527,0.739325618 C104.129527,0.739325618 106.663443,1.20170746 112.976828,0.674807221 C112.976828,0.674807221 113.524433,0.783315434 113.147083,1.21930339 L111.07415,2.09127929 C109.725052,2.6690122 109.725052,2.33762226 109.725052,3.78928618 L109.713104,17.2677657 C109.713104,27.8106583 98.7938657,27.5740908 96.6661724,27.5740908 C95.6516102,27.5740908 85.635422,27.5740908 85.635422,19.1114278 L85.635422,4.8421091 C85.635422,2.35521818 85.9072331,2.41973658 85.0649175,2.1294038 L82.5319967,1.19584215 C82.5319967,1.19584215 82.1018781,0.598558207 82.8665334,0.636682714 C84.9374749,0.739325618 87.9343662,1.17433602 94.9845281,0.674807221 C94.9845281,0.674807221 95.598841,0.822417492 95.1946092,1.25742789 L93.0868288,1.84102612 C91.4828448,2.54681827 91.6949172,2.00623231 91.6521045,3.62407998 L91.7028824,17.6920231 C91.7028824,21.1418022 93.5109736,25.4137021 99.1971019,25.4137021 C106.937246,25.4137021 107.010923,18.8396685 107.010923,17.3772515 L107.023867,3.44127786 C107.106505,2.1294038 106.937246,2.50282846 105.753424,2.00623231" id="Fill-11" fill="#DAAA00"></path>
                <polygon id="Fill-12" fill="#DAAA00" points="85.6374133 34.1060897 416.901431 34.1060897 416.901431 33.0014565 85.6374133 33.0014565"></polygon>
                <path d="M95.2842172,45.1749049 C95.1040055,44.9334497 94.8969114,44.7222986 94.6669174,44.5424291 C94.4359277,44.3606045 94.1880121,44.2100616 93.9211793,44.0859126 C93.6553421,43.9627411 93.3775572,43.8698737 93.0848375,43.8063328 C92.7931136,43.7437695 92.497407,43.7115103 92.1997092,43.7115103 C91.6620609,43.7115103 91.171208,43.8063328 90.7261547,43.9959778 C90.2830927,44.1846453 89.9027563,44.446629 89.5881325,44.7789965 C89.272513,45.111364 89.0265887,45.5014071 88.8513552,45.9491256 C88.6771174,46.3958667 88.5895006,46.8787771 88.5895006,47.3949243 C88.5895006,47.922802 88.6771174,48.40669 88.8513552,48.8485433 C89.0265887,49.2903965 89.2755,49.6706641 89.5960976,49.9893458 C89.917691,50.3070501 90.3040012,50.5573032 90.7530371,50.7371727 C91.2030686,50.9170422 91.7018867,51.0069769 92.2524784,51.0069769 C92.5382285,51.0069769 92.8219873,50.9756953 93.1057461,50.9092218 C93.3895049,50.8437258 93.661316,50.7489033 93.9211793,50.6257318 C94.1810426,50.5015828 94.4269669,50.3539725 94.6569609,50.1819235 C94.8879505,50.0098744 95.0980316,49.8153417 95.2842172,49.5973477 L95.2842172,53.7363006 C94.9914976,53.8213476 94.7176953,53.9034619 94.4608189,53.981666 C94.2039425,54.057915 93.9520443,54.1243885 93.70612,54.1791314 C93.4611913,54.2338743 93.215267,54.2768866 92.9653602,54.3081682 C92.7174446,54.3404274 92.4555899,54.3560682 92.1827832,54.3560682 C91.2349292,54.3560682 90.3278967,54.1859743 89.4606899,53.8477415 C88.5924875,53.5095087 87.805928,53.0275758 87.0980245,52.4019428 C86.3512908,51.7372079 85.8016947,50.980583 85.4512277,50.135001 C85.1007607,49.289419 84.9255272,48.3695431 84.9255272,47.3783059 C84.9255272,46.4652728 85.0957825,45.5903643 85.4343018,44.7535802 C85.772821,43.9158186 86.2696479,43.1699468 86.9237866,42.5159649 C87.2573277,42.1835974 87.6217337,41.8834891 88.018996,41.6166176 C88.4162584,41.3507236 88.8364205,41.1229541 89.2774913,40.9362417 C89.7165707,40.750507 90.1745674,40.6077845 90.6484944,40.5110069 C91.1214257,40.4132517 91.5943571,40.3643741 92.0672884,40.3643741 C92.634806,40.3643741 93.1814151,40.4240048 93.70612,40.541311 C94.2328162,40.6595947 94.7585167,40.8238233 95.2842172,41.0369295 L95.2842172,45.1749049" id="Fill-13" fill="#002855"></path>
                <path d="M105.424861,43.6254858 C104.899161,43.6254858 104.404325,43.7212859 103.943341,43.9138635 C103.482358,44.1064411 103.07713,44.3645147 102.72965,44.6890618 C102.383166,45.0126313 102.107372,45.386056 101.906252,45.8064031 C101.705132,46.2287054 101.603576,46.6695811 101.603576,47.1280527 C101.603576,47.7018754 101.705132,48.2307308 101.906252,48.7155963 C102.107372,49.1994843 102.383166,49.6178763 102.72965,49.9707724 C103.07713,50.3236684 103.482358,50.599338 103.943341,50.7968033 C104.404325,50.9952463 104.899161,51.0949565 105.424861,51.0949565 C105.949566,51.0949565 106.445397,50.9952463 106.909368,50.7968033 C107.374334,50.599338 107.779561,50.3236684 108.123059,49.9707724 C108.467552,49.6178763 108.741354,49.1994843 108.941479,48.7155963 C109.144591,48.2307308 109.246146,47.7018754 109.246146,47.1280527 C109.246146,46.6695811 109.144591,46.2287054 108.941479,45.8064031 C108.741354,45.386056 108.467552,45.0126313 108.123059,44.6890618 C107.779561,44.3645147 107.374334,44.1064411 106.909368,43.9138635 C106.445397,43.7212859 105.949566,43.6254858 105.424861,43.6254858 M105.424861,40.2783496 C106.073026,40.2783496 106.708247,40.3545986 107.330525,40.5070967 C107.952804,40.6595947 108.54123,40.874656 109.095804,41.1561908 C109.651374,41.4367481 110.163135,41.7808462 110.630093,42.184575 C111.098046,42.5892813 111.499291,43.0448203 111.834823,43.553147 C112.171351,44.0604962 112.434201,44.6128128 112.62437,45.2091192 C112.813542,45.8054256 112.909124,46.4398565 112.909124,47.1104568 C112.909124,48.188696 112.723934,49.1770006 112.352559,50.0743928 C111.981183,50.9727626 111.462452,51.7440507 110.796366,52.3892347 C110.130279,53.0353962 109.340733,53.5378576 108.425735,53.8995517 C107.511733,54.2602682 106.51111,54.4411152 105.424861,54.4411152 C104.699036,54.4411152 104.012041,54.3599784 103.360889,54.1967273 C102.709737,54.0334762 102.107372,53.7988639 101.554789,53.4948454 C101.003202,53.1918044 100.504384,52.8213124 100.057339,52.3892347 C99.6092989,51.9561794 99.2299582,51.4674036 98.9173257,50.9229075 C98.6056888,50.3774338 98.3637471,49.78406 98.1954831,49.1457189 C98.0262234,48.5054227 97.940598,47.8279796 97.940598,47.1104568 C97.940598,46.4398565 98.0361799,45.8054256 98.2253524,45.2091192 C98.4155206,44.6128128 98.6793665,44.0604962 99.0188814,43.553147 C99.3574007,43.0448203 99.7586456,42.5892813 100.223612,42.184575 C100.687582,41.7808462 101.198348,41.4367481 101.752922,41.1561908 C102.307497,40.874656 102.895923,40.6595947 103.518201,40.5070967 C104.141475,40.3545986 104.775701,40.2783496 105.424861,40.2783496" id="Fill-14" fill="#002855"></path>
                <polyline id="Fill-15" fill="#002855" points="119.443542 51.0773606 123.668063 51.0773606 123.668063 54.0031721 115.928915 54.0031721 115.928915 40.7172702 119.443542 40.7172702 119.443542 51.0773606"></polyline>
                <polyline id="Fill-16" fill="#002855" points="130.33988 51.0773606 134.564402 51.0773606 134.564402 54.0031721 126.825254 54.0031721 126.825254 40.7172702 130.33988 40.7172702 130.33988 51.0773606"></polyline>
                <polyline id="Fill-17" fill="#002855" points="141.236219 43.6430817 141.236219 45.8621236 145.204859 45.8621236 145.204859 48.7889126 141.236219 48.7889126 141.236219 51.0773606 145.424897 51.0773606 145.424897 54.001217 137.721592 54.001217 137.721592 40.7172702 145.424897 40.7172702 145.424897 43.6430817 141.236219 43.6430817"></polyline>
                <path d="M162.754097,46.5855116 C162.744141,47.0674445 162.722237,47.5347141 162.693363,47.988298 C162.664489,48.4409043 162.600768,48.8847127 162.50419,49.317768 C162.409604,49.7498457 162.271209,50.1760582 162.092989,50.59054 C161.914768,51.0069769 161.672827,51.4214587 161.370151,51.834963 C161.03661,52.2875693 160.665234,52.6785899 160.258015,53.0080248 C159.84781,53.3384371 159.406739,53.6101965 158.932812,53.8223251 C158.460876,54.0334762 157.961062,54.190862 157.436358,54.2905723 C156.908666,54.3912601 156.362057,54.4411152 155.79653,54.4411152 C154.733181,54.4411152 153.758445,54.2719988 152.874312,53.9347435 C151.989184,53.5955332 151.227516,53.1184881 150.591298,52.5016531 C149.954086,51.8838406 149.45925,51.1467668 149.104801,50.2855439 C148.751347,49.4252986 148.575117,48.4731635 148.575117,47.428161 C148.575117,46.3499217 148.753338,45.3704152 149.109779,44.4906189 C149.46622,43.6108225 149.968025,42.8590855 150.612207,42.2363852 C151.257385,41.6146625 152.031001,41.1327296 152.931064,40.7905866 C153.830132,40.4494211 154.825776,40.2783496 155.918995,40.2783496 C157.309911,40.2783496 158.527584,40.5872559 159.573012,41.2040908 C160.619434,41.8209258 161.433872,42.7515548 162.018316,43.9959778 L158.680914,45.3645499 C158.557454,45.0488007 158.402133,44.7623782 158.215948,44.5043046 C158.026775,44.2452534 157.811716,44.0223717 157.566787,43.8366369 C157.320863,43.6499246 157.04706,43.5072021 156.742393,43.4065143 C156.438721,43.306804 156.109163,43.2569489 155.753718,43.2569489 C155.175248,43.2569489 154.664482,43.3791429 154.227394,43.6264634 C153.78931,43.8728063 153.422913,44.1953983 153.127206,44.5932618 C152.832495,44.9930803 152.610466,45.4417764 152.462115,45.9403277 C152.312769,46.4398565 152.238095,46.9413404 152.238095,47.4467345 C152.238095,47.9628817 152.315756,48.4682758 152.470081,48.9658495 C152.625401,49.4604905 152.853404,49.9052764 153.154089,50.2982521 C153.454773,50.6912278 153.82814,51.0069769 154.27618,51.2454995 C154.722229,51.484022 155.235982,51.6023058 155.814452,51.6023058 C156.192797,51.6023058 156.548242,51.5544057 156.878796,51.455673 C157.208355,51.3579179 157.497092,51.2122627 157.746003,51.0216402 C157.993919,50.8290625 158.19703,50.5895624 158.354342,50.3021623 C158.51265,50.0157397 158.609227,49.6804396 158.644075,49.2962619 L155.770644,49.2962619 L155.770644,46.5855116 L162.754097,46.5855116" id="Fill-18" fill="#002855"></path>
                <polyline id="Fill-19" fill="#002855" points="169.245702 43.6430817 169.245702 45.8621236 173.215339 45.8621236 173.215339 48.7889126 169.245702 48.7889126 169.245702 51.0773606 173.434381 51.0773606 173.434381 54.001217 165.731076 54.001217 165.731076 40.7172702 173.434381 40.7172702 173.434381 43.6430817 169.245702 43.6430817"></polyline>
                <path d="M188.195813,46.5933321 C187.820454,46.5933321 187.467996,46.6617607 187.138438,46.7986179 C186.808879,46.9374302 186.519146,47.1202323 186.272227,47.3528895 C186.023315,47.5845692 185.827173,47.8504632 185.6838,48.1505715 C185.539432,48.4516574 185.468741,48.7674065 185.468741,49.0929311 C185.468741,49.5044803 185.539432,49.8808376 185.6838,50.2278684 C185.827173,50.5739216 186.023315,50.8720748 186.272227,51.1252606 C186.519146,51.3755138 186.808879,51.5729792 187.138438,51.7147242 C187.467996,51.8554916 187.820454,51.9268528 188.195813,51.9268528 C188.571171,51.9268528 188.924625,51.8554916 189.256174,51.7147242 C189.58872,51.5729792 189.877457,51.3755138 190.123381,51.1252606 C190.369305,50.8720748 190.563456,50.5739216 190.707825,50.2278684 C190.851198,49.8808376 190.92388,49.5044803 190.92388,49.0929311 C190.92388,48.7674065 190.851198,48.4516574 190.707825,48.1505715 C190.563456,47.8504632 190.369305,47.5845692 190.123381,47.3528895 C189.877457,47.1202323 189.58872,46.9374302 189.256174,46.7986179 C188.924625,46.6617607 188.571171,46.5933321 188.195813,46.5933321 M188.195813,44.2041963 C188.658787,44.2041963 189.111806,44.2579616 189.555864,44.3664698 C190.000917,44.4759556 190.420083,44.6294312 190.817346,44.8308068 C191.212617,45.0302273 191.58001,45.2746151 191.912555,45.5649479 C192.245101,45.8533256 192.533838,46.1778727 192.772792,46.5415218 C193.011747,46.9041934 193.198928,47.2981467 193.336327,47.7243591 C193.470739,48.149594 193.538443,48.6022003 193.538443,49.0812005 C193.538443,49.8515111 193.406023,50.5582808 193.141181,51.1975994 C192.876339,51.8378957 192.507951,52.3902122 192.031037,52.8516165 C191.556114,53.3110657 190.992579,53.6717822 190.33844,53.9298558 C189.685297,54.1869518 188.972416,54.3159886 188.195813,54.3159886 C187.678077,54.3159886 187.187224,54.2592906 186.722258,54.1410069 C186.256296,54.0237007 185.827173,53.8584945 185.432898,53.6385454 C185.038622,53.4234841 184.682182,53.1605228 184.36258,52.8516165 C184.043973,52.5407552 183.773158,52.1917693 183.549138,51.8027038 C183.327109,51.4146159 183.154862,50.9903585 183.034389,50.5357971 C182.911925,50.0773255 182.852186,49.5934375 182.852186,49.0812005 C182.852186,48.6022003 182.91989,48.149594 183.057289,47.7243591 C183.191701,47.2981467 183.379878,46.9041934 183.62182,46.5415218 C183.863761,46.1778727 184.151503,45.8533256 184.482057,45.5649479 C184.813607,45.2746151 185.178013,45.0302273 185.574279,44.8308068 C185.970546,44.6294312 186.390708,44.4759556 186.834766,44.3664698 C187.279819,44.2579616 187.731842,44.2041963 188.195813,44.2041963" id="Fill-20" fill="#002855"></path>
                <polyline id="Fill-21" fill="#002855" points="197.715174 46.6060402 197.715174 48.1906511 200.475102 48.1906511 200.475102 50.2796786 197.715174 50.2796786 197.715174 54.0031721 195.206149 54.0031721 195.206149 44.5179903 200.755874 44.5179903 200.755874 46.6060402 197.715174 46.6060402"></polyline>
                <path d="M215.540205,44.8220088 L215.506354,44.8220088 L214.050721,49.0548066 L216.976921,49.0548066 L215.540205,44.8220088 Z M213.077975,51.6961507 L212.149039,54.001217 L208.416366,54.001217 L213.621598,40.7172702 L217.459809,40.7172702 L222.560498,54.001217 L218.809903,54.001217 L217.924775,51.6961507 L213.077975,51.6961507 L213.077975,51.6961507 Z" id="Fill-22" fill="#002855"></path>
                <path d="M238.703885,46.5855116 C238.691937,47.0674445 238.671029,47.5347141 238.643151,47.988298 C238.613281,48.4409043 238.550556,48.8847127 238.453978,49.317768 C238.358396,49.7498457 238.220002,50.1760582 238.042777,50.59054 C237.863561,51.0069769 237.622615,51.4214587 237.318943,51.834963 C236.986398,52.2875693 236.615022,52.6785899 236.206808,53.0080248 C235.797598,53.3384371 235.356527,53.6101965 234.8826,53.8223251 C234.410664,54.0334762 233.91085,54.190862 233.38515,54.2905723 C232.857458,54.3912601 232.311845,54.4411152 231.746318,54.4411152 C230.681974,54.4411152 229.707237,54.2719988 228.823105,53.9347435 C227.936981,53.5955332 227.176308,53.1184881 226.540091,52.5016531 C225.903874,51.8838406 225.409038,51.1467668 225.055584,50.2855439 C224.700139,49.4252986 224.524905,48.4731635 224.524905,47.428161 C224.524905,46.3499217 224.703126,45.3704152 225.058571,44.4906189 C225.416008,43.6108225 225.916817,42.8590855 226.561995,42.2363852 C227.208169,41.6146625 227.980789,41.1327296 228.879856,40.7905866 C229.780915,40.4494211 230.77656,40.2783496 231.868783,40.2783496 C233.259699,40.2783496 234.476377,40.5872559 235.521804,41.2040908 C236.568227,41.8209258 237.382664,42.7515548 237.968104,43.9959778 L234.629706,45.3645499 C234.506246,45.0488007 234.350925,44.7623782 234.16474,44.5043046 C233.977559,44.2452534 233.762499,44.0223717 233.515579,43.8366369 C233.270651,43.6499246 232.996848,43.5072021 232.692181,43.4065143 C232.387514,43.306804 232.058951,43.2569489 231.701514,43.2569489 C231.123045,43.2569489 230.616261,43.3791429 230.176186,43.6264634 C229.739098,43.8728063 229.372701,44.1953983 229.07799,44.5932618 C228.782283,44.9930803 228.560254,45.4417764 228.411903,45.9403277 C228.262557,46.4398565 228.187883,46.9413404 228.187883,47.4467345 C228.187883,47.9628817 228.264548,48.4682758 228.418873,48.9658495 C228.575189,49.4604905 228.802196,49.9052764 229.103877,50.2982521 C229.404561,50.6912278 229.778924,51.0069769 230.224973,51.2454995 C230.672017,51.484022 231.184775,51.6023058 231.763244,51.6023058 C232.142585,51.6023058 232.497035,51.5544057 232.827589,51.455673 C233.157147,51.3579179 233.44688,51.2122627 233.695791,51.0216402 C233.943707,50.8290625 234.146818,50.5895624 234.30413,50.3021623 C234.462438,50.0157397 234.559015,49.6804396 234.593863,49.2962619 L231.720431,49.2962619 L231.720431,46.5855116 L238.703885,46.5855116" id="Fill-23" fill="#002855"></path>
                <path d="M245.91335,46.6725137 L246.253861,46.6725137 C246.540607,46.6725137 246.830339,46.6529627 247.122063,46.6158157 C247.414783,46.5786688 247.676637,46.5014422 247.91161,46.384136 C248.144591,46.2648748 248.333763,46.0996686 248.480123,45.8846072 C248.625487,45.6705235 248.699165,45.3821458 248.699165,45.0194742 C248.699165,44.6587577 248.625487,44.3684249 248.480123,44.150431 C248.333763,43.932437 248.144591,43.7642981 247.91161,43.646992 C247.676637,43.5296858 247.414783,43.4524592 247.122063,43.4143347 C246.830339,43.3771877 246.540607,43.3595918 246.253861,43.3595918 L245.91335,43.3595918 L245.91335,46.6725137 Z M253.650507,54.0031721 L249.268674,54.0031721 L245.957159,48.8925331 L245.91335,48.8925331 L245.91335,54.0031721 L242.398724,54.0031721 L242.398724,40.7172702 L247.656725,40.7172702 C248.322811,40.7172702 248.943098,40.7974294 249.518581,40.9587254 C250.094063,41.1200214 250.592881,41.3653868 251.013044,41.6997094 C251.434201,42.0310994 251.76376,42.4543792 252.002715,42.9666161 C252.242665,43.4808082 252.362143,44.0927554 252.362143,44.8034353 C252.362143,45.2638621 252.298421,45.69985 252.169983,46.1172645 C252.040549,46.5337014 251.850381,46.9071261 251.599479,47.2394936 C251.348576,47.5728386 251.03893,47.8533959 250.670542,48.0831205 C250.303149,48.3128451 249.879004,48.4702309 249.401094,48.5562554 L253.650507,54.0031721 L253.650507,54.0031721 Z" id="Fill-24" fill="#002855"></path>
                <polygon id="Fill-25" fill="#002855" points="256.705146 54.001217 260.219773 54.001217 260.219773 40.7172702 256.705146 40.7172702"></polygon>
                <path d="M273.940756,45.1749049 C273.759548,44.9334497 273.55345,44.7222986 273.32246,44.5424291 C273.092466,44.3606045 272.843555,44.2100616 272.576722,44.0859126 C272.31188,43.9627411 272.0331,43.8698737 271.74038,43.8063328 C271.448656,43.7437695 271.153945,43.7115103 270.856247,43.7115103 C270.318599,43.7115103 269.826751,43.8063328 269.382693,43.9959778 C268.938635,44.1846453 268.558299,44.446629 268.244671,44.7789965 C267.928056,45.111364 267.683127,45.5014071 267.507894,45.9491256 C267.33266,46.3958667 267.246039,46.8787771 267.246039,47.3949243 C267.246039,47.922802 267.33266,48.40669 267.507894,48.8485433 C267.683127,49.2903965 267.931043,49.6706641 268.25164,49.9893458 C268.574229,50.3070501 268.959544,50.5573032 269.40858,50.7371727 C269.860603,50.9170422 270.358425,51.0069769 270.908021,51.0069769 C271.193771,51.0069769 271.479521,50.9756953 271.762284,50.9092218 C272.046043,50.8437258 272.316859,50.7489033 272.576722,50.6257318 C272.837581,50.5015828 273.083505,50.3539725 273.313499,50.1819235 C273.543493,50.0098744 273.753574,49.8153417 273.940756,49.5973477 L273.940756,53.7363006 C273.648036,53.8213476 273.374234,53.9034619 273.116362,53.981666 C272.859485,54.057915 272.607587,54.1243885 272.362658,54.1791314 C272.116734,54.2338743 271.87081,54.2768866 271.621898,54.3081682 C271.373983,54.3404274 271.112128,54.3560682 270.838326,54.3560682 C269.892463,54.3560682 268.984435,54.1859743 268.117228,53.8477415 C267.249026,53.5095087 266.461471,53.0275758 265.755558,52.4019428 C265.007829,51.7372079 264.458233,50.980583 264.107766,50.135001 C263.757299,49.289419 263.582065,48.3695431 263.582065,47.3783059 C263.582065,46.4652728 263.751325,45.5903643 264.09084,44.7535802 C264.428364,43.9158186 264.926186,43.1699468 265.580325,42.5159649 C265.91287,42.1835974 266.278272,41.8834891 266.674539,41.6166176 C267.072797,41.3507236 267.491963,41.1229541 267.933034,40.9362417 C268.3751,40.750507 268.83011,40.6077845 269.304037,40.5110069 C269.777964,40.4132517 270.2499,40.3643741 270.724822,40.3643741 C271.291344,40.3643741 271.836958,40.4240048 272.362658,40.541311 C272.888359,40.6595947 273.415055,40.8238233 273.940756,41.0369295 L273.940756,45.1749049" id="Fill-26" fill="#002855"></path>
                <path d="M289.876053,40.7172702 L289.876053,48.1857634 C289.876053,48.615886 289.866096,49.0411209 289.845188,49.4595129 C289.825275,49.8788825 289.768523,50.2865215 289.674933,50.68634 C289.581342,51.0842035 289.43996,51.4693588 289.248797,51.8398508 C289.059624,52.2093652 288.798765,52.5544409 288.465224,52.8750778 C288.184452,53.1507473 287.866841,53.3814494 287.510401,53.5681617 C287.15396,53.7548741 286.779597,53.9063945 286.388309,54.0237007 C285.996025,54.1419844 285.59478,54.2260539 285.181587,54.2788417 C284.771381,54.3286968 284.369141,54.3550907 283.977852,54.3550907 C283.58059,54.3550907 283.176358,54.3286968 282.764161,54.2788417 C282.351964,54.2260539 281.95271,54.1419844 281.562418,54.0237007 C281.175112,53.9063945 280.802741,53.7548741 280.4463,53.5681617 C280.090854,53.3814494 279.771252,53.1507473 279.49048,52.8750778 C279.152957,52.5544409 278.888115,52.2093652 278.698943,51.8398508 C278.507779,51.4693588 278.367393,51.0842035 278.273802,50.68634 C278.180212,50.2865215 278.121469,49.8788825 278.103547,49.4595129 C278.081643,49.0411209 278.071686,48.615886 278.071686,48.1857634 L278.071686,40.7172702 L281.586313,40.7172702 L281.586313,47.7126285 C281.586313,47.9990511 281.593283,48.2903614 281.608217,48.5816717 C281.621161,48.8749372 281.654017,49.1535393 281.703799,49.4213884 C281.753581,49.6863049 281.82925,49.9375356 281.931802,50.1692153 C282.034353,50.4018726 282.173744,50.6032482 282.351964,50.7752972 C282.53118,50.9473463 282.751218,51.0832259 283.013072,51.1809811 C283.276918,51.2777587 283.597516,51.3266362 283.977852,51.3266362 C284.352215,51.3266362 284.671817,51.2777587 284.937654,51.1809811 C285.203491,51.0832259 285.424524,50.9473463 285.599758,50.7752972 C285.774991,50.6032482 285.913386,50.4018726 286.014942,50.1692153 C286.118489,49.9375356 286.196149,49.6863049 286.247923,49.4213884 C286.299696,49.1535393 286.332553,48.8749372 286.343505,48.5816717 C286.355452,48.2903614 286.362422,47.9990511 286.362422,47.7126285 L286.362422,40.7172702 L289.876053,40.7172702" id="Fill-27" fill="#002855"></path>
                <polyline id="Fill-28" fill="#002855" points="297.734679 51.0773606 301.958204 51.0773606 301.958204 54.0031721 294.219056 54.0031721 294.219056 40.7172702 297.734679 40.7172702 297.734679 51.0773606"></polyline>
                <polyline id="Fill-29" fill="#002855" points="309.545019 54.0031721 306.031388 54.0031721 306.031388 43.6440593 303.122113 43.6440593 303.122113 40.7172702 312.456285 40.7172702 312.456285 43.6440593 309.545019 43.6440593 309.545019 54.0031721"></polyline>
                <path d="M327.424811,40.7172702 L327.424811,48.1857634 C327.424811,48.615886 327.414854,49.0411209 327.393946,49.4595129 C327.374033,49.8788825 327.317281,50.2865215 327.224686,50.68634 C327.1301,51.0842035 326.988718,51.4693588 326.79855,51.8398508 C326.608382,52.2093652 326.348519,52.5544409 326.015973,52.8750778 C325.734206,53.1507473 325.414604,53.3814494 325.060154,53.5681617 C324.702718,53.7548741 324.328355,53.9063945 323.937067,54.0237007 C323.544783,54.1419844 323.144533,54.2260539 322.731341,54.2788417 C322.321135,54.3286968 321.917899,54.3550907 321.527606,54.3550907 C321.131339,54.3550907 320.725116,54.3286968 320.312919,54.2788417 C319.900722,54.2260539 319.501468,54.1419844 319.113167,54.0237007 C318.724865,53.9063945 318.352494,53.7548741 317.996053,53.5681617 C317.639612,53.3814494 317.322002,53.1507473 317.04123,52.8750778 C316.701715,52.5544409 316.436873,52.2093652 316.247701,51.8398508 C316.057533,51.4693588 315.915155,51.0842035 315.82256,50.68634 C315.72897,50.2865215 315.671222,49.8788825 315.652305,49.4595129 C315.630401,49.0411209 315.620444,48.615886 315.620444,48.1857634 L315.620444,40.7172702 L319.135071,40.7172702 L319.135071,47.7126285 C319.135071,47.9990511 319.142041,48.2903614 319.156975,48.5816717 C319.170914,48.8749372 319.203771,49.1535393 319.253553,49.4213884 C319.303335,49.6863049 319.378008,49.9375356 319.481555,50.1692153 C319.584107,50.4018726 319.723497,50.6032482 319.900722,50.7752972 C320.079938,50.9473463 320.300971,51.0832259 320.562826,51.1809811 C320.825676,51.2777587 321.147269,51.3266362 321.527606,51.3266362 C321.900973,51.3266362 322.22157,51.2777587 322.487408,51.1809811 C322.753245,51.0832259 322.973282,50.9473463 323.149511,50.7752972 C323.324745,50.6032482 323.461148,50.4018726 323.565691,50.1692153 C323.668243,49.9375356 323.744907,49.6863049 323.795685,49.4213884 C323.84945,49.1535393 323.881311,48.8749372 323.893258,48.5816717 C323.905206,48.2903614 323.91118,47.9990511 323.91118,47.7126285 L323.91118,40.7172702 L327.424811,40.7172702" id="Fill-30" fill="#002855"></path>
                <path d="M335.283436,46.6725137 L335.623947,46.6725137 C335.910693,46.6725137 336.200425,46.6529627 336.491154,46.6158157 C336.783873,46.5786688 337.047719,46.5014422 337.281696,46.384136 C337.515672,46.2648748 337.704845,46.0996686 337.8522,45.8846072 C337.997565,45.6705235 338.069251,45.3821458 338.069251,45.0194742 C338.069251,44.6587577 337.997565,44.3684249 337.8522,44.150431 C337.704845,43.932437 337.515672,43.7642981 337.281696,43.646992 C337.047719,43.5296858 336.783873,43.4524592 336.491154,43.4143347 C336.200425,43.3771877 335.910693,43.3595918 335.623947,43.3595918 L335.283436,43.3595918 L335.283436,46.6725137 Z M343.021589,54.0031721 L338.63876,54.0031721 L335.327245,48.8925331 L335.283436,48.8925331 L335.283436,54.0031721 L331.76881,54.0031721 L331.76881,40.7172702 L337.026811,40.7172702 C337.691902,40.7172702 338.313184,40.7974294 338.889662,40.9587254 C339.465145,41.1200214 339.963963,41.3653868 340.384126,41.6997094 C340.803292,42.0310994 341.133846,42.4543792 341.373797,42.9666161 C341.612751,43.4808082 341.732229,44.0927554 341.732229,44.8034353 C341.732229,45.2638621 341.668508,45.69985 341.540069,46.1172645 C341.411631,46.5337014 341.221463,46.9071261 340.97056,47.2394936 C340.719658,47.5728386 340.410012,47.8533959 340.041624,48.0831205 C339.674231,48.3128451 339.250086,48.4702309 338.771181,48.5562554 L343.021589,54.0031721 L343.021589,54.0031721 Z" id="Fill-31" fill="#002855"></path>
                <path d="M352.591728,44.8220088 L352.558872,44.8220088 L351.102243,49.0548066 L354.02944,49.0548066 L352.591728,44.8220088 Z M350.130494,51.6961507 L349.202553,54.001217 L345.467889,54.001217 L350.675112,40.7172702 L354.512327,40.7172702 L359.612021,54.001217 L355.861426,54.001217 L354.977294,51.6961507 L350.130494,51.6961507 L350.130494,51.6961507 Z" id="Fill-32" fill="#002855"></path>
                <polyline id="Fill-33" fill="#002855" points="366.242021 51.0773606 370.465546 51.0773606 370.465546 54.0031721 362.727394 54.0031721 362.727394 40.7172702 366.242021 40.7172702 366.242021 51.0773606"></polyline>
                <path d="M89.4985244,68.0065968 L89.4726377,68.0065968 L88.43418,71.0282084 L90.5250344,71.0282084 L89.4985244,68.0065968 Z M87.7402155,72.9148827 L87.0771159,74.5610794 L84.4107788,74.5610794 L88.128517,65.0758976 L90.8685319,65.0758976 L94.5096055,74.5610794 L91.8313206,74.5610794 L91.2000817,72.9148827 L87.7402155,72.9148827 L87.7402155,72.9148827 Z" id="Fill-34" fill="#002855"></path>
                <polyline id="Fill-35" fill="#002855" points="95.7382313 65.0758976 98.2472566 65.0758976 102.852114 70.8747328 102.878997 70.8747328 102.878997 65.0758976 105.386031 65.0758976 105.386031 74.5610794 102.878997 74.5610794 98.2791172 68.7485584 98.2472566 68.7485584 98.2472566 74.5610794 95.7382313 74.5610794 95.7382313 65.0758976"></polyline>
                <path d="M110.053614,72.4730295 L110.624119,72.4730295 C110.998481,72.4730295 111.354922,72.4212192 111.690455,72.3195539 C112.025987,72.216911 112.320698,72.055615 112.572596,71.8395761 C112.82549,71.6235372 113.02661,71.3468902 113.175957,71.0135451 C113.326299,70.6792225 113.400973,70.2813591 113.400973,69.8179997 C113.400973,69.3927648 113.333269,69.0134748 113.197861,68.68404 C113.062453,68.3555827 112.873281,68.0779581 112.629348,67.8531213 C112.384419,67.6273069 112.094687,67.4562354 111.759154,67.3399067 C111.423622,67.2226006 111.053242,67.1629699 110.648014,67.1629699 L110.053614,67.1629699 L110.053614,72.4730295 Z M107.545585,65.0758976 L111.106011,65.0758976 C111.55206,65.0758976 111.98417,65.1306404 112.401345,65.2411038 C112.81852,65.3515671 113.208813,65.5089529 113.574215,65.711306 C113.939617,65.9136592 114.271166,66.1590246 114.571851,66.4454472 C114.872536,66.7328473 115.128417,67.0525066 115.34248,67.4044251 C115.553557,67.7573212 115.71983,68.1356336 115.839307,68.5442501 C115.958785,68.949934 116.016532,69.3751689 116.016532,69.8179997 C116.016532,70.2608305 115.958785,70.6860654 115.839307,71.0937044 C115.71983,71.5003658 115.552561,71.8816108 115.338498,72.2325518 C115.123438,72.5844703 114.865566,72.9041297 114.564882,73.1905522 C114.265193,73.4769748 113.933643,73.7213627 113.571228,73.9246934 C113.207818,74.1270465 112.81852,74.2844323 112.401345,74.3948956 C111.98417,74.505359 111.55206,74.5610794 111.106011,74.5610794 L107.545585,74.5610794 L107.545585,65.0758976 L107.545585,65.0758976 Z" id="Fill-36" fill="#002855"></path>
                <polyline id="Fill-37" fill="#002855" points="128.177339 64.2019665 128.177339 66.4219859 132.146976 66.4219859 132.146976 69.3477974 128.177339 69.3477974 128.177339 71.6362454 132.366018 71.6362454 132.366018 74.5601018 124.663708 74.5601018 124.663708 61.2751775 132.366018 61.2751775 132.366018 64.2019665 128.177339 64.2019665"></polyline>
                <polyline id="Fill-38" fill="#002855" points="136.315741 61.276155 139.829372 61.276155 146.278165 69.3986301 146.314008 69.3986301 146.314008 61.276155 149.828634 61.276155 149.828634 74.5610794 146.314008 74.5610794 139.873181 66.4219859 139.829372 66.4219859 139.829372 74.5610794 136.315741 74.5610794 136.315741 61.276155"></polyline>
                <polyline id="Fill-39" fill="#002855" points="159.513273 69.3477974 162.798901 61.2751775 166.620187 61.2751775 160.845446 74.5620569 158.110409 74.5620569 152.42229 61.2751775 156.253531 61.2751775 159.513273 69.3477974"></polyline>
                <polygon id="Fill-40" fill="#002855" points="169.224794 74.5591243 172.73942 74.5591243 172.73942 61.2751775 169.224794 61.2751775"></polygon>
                <path d="M180.319265,67.2313985 L180.660772,67.2313985 C180.947517,67.2313985 181.236254,67.2118475 181.527978,67.1747005 C181.820698,67.136576 182.082553,67.0593495 182.317525,66.9420433 C182.54951,66.8247371 182.740674,66.6585534 182.886038,66.4434921 C183.033394,66.2264756 183.106076,65.940053 183.106076,65.5773815 C183.106076,65.216665 183.033394,64.9273097 182.886038,64.7093158 C182.740674,64.4913218 182.54951,64.3231829 182.317525,64.2048992 C182.082553,64.087593 181.820698,64.0103665 181.527978,63.9741971 C181.236254,63.9360726 180.947517,63.9165215 180.660772,63.9165215 L180.319265,63.9165215 L180.319265,67.2313985 Z M188.056422,74.5610794 L183.674589,74.5610794 L180.362078,69.4504403 L180.319265,69.4504403 L180.319265,74.5610794 L176.804639,74.5610794 L176.804639,61.276155 L182.06264,61.276155 C182.728726,61.276155 183.350009,61.3563142 183.924496,61.5166327 C184.500974,61.6779287 184.998797,61.9242716 185.418959,62.2566391 C185.840117,62.5899842 186.168679,63.0122864 186.40863,63.5255009 C186.647585,64.039693 186.768058,64.6516402 186.768058,65.3632977 C186.768058,65.8217693 186.704336,66.2597124 186.575898,66.6751717 C186.44746,67.0916087 186.257292,67.4650333 186.005394,67.7974008 C185.754491,68.1307459 185.444846,68.4122807 185.076457,68.6420053 C184.709064,68.8697748 184.284919,69.0291157 183.80701,69.1141626 L188.056422,74.5610794 L188.056422,74.5610794 Z" id="Fill-41" fill="#002855"></path>
                <path d="M197.22233,64.1833931 C196.695633,64.1833931 196.202789,64.2801707 195.74081,64.4717708 C195.278831,64.6653259 194.874599,64.922422 194.526123,65.2469691 C194.179639,65.5715161 193.903845,65.9439633 193.70372,66.3652879 C193.501604,66.7875902 193.401044,67.2274883 193.401044,67.6869375 C193.401044,68.2588051 193.501604,68.788638 193.70372,69.2744811 C193.903845,69.7583691 194.179639,70.1757835 194.526123,70.5306347 C194.874599,70.8835308 195.278831,71.1562677 195.74081,71.3547106 C196.202789,71.5541311 196.695633,71.6528638 197.22233,71.6528638 C197.747035,71.6528638 198.242866,71.5541311 198.707832,71.3547106 C199.171802,71.1562677 199.576034,70.8835308 199.920527,70.5306347 C200.267012,70.1757835 200.538823,69.7583691 200.740939,69.2744811 C200.942059,68.788638 201.042619,68.2588051 201.042619,67.6869375 C201.042619,67.2274883 200.942059,66.7875902 200.740939,66.3652879 C200.538823,65.9439633 200.267012,65.5715161 199.920527,65.2469691 C199.576034,64.922422 199.171802,64.6653259 198.707832,64.4717708 C198.242866,64.2801707 197.747035,64.1833931 197.22233,64.1833931 M197.22233,60.8362569 C197.870495,60.8362569 198.506712,60.9134834 199.127994,61.0659815 C199.750272,61.2175019 200.338698,61.4345184 200.893273,61.7160532 C201.448842,61.9966104 201.959608,62.3387535 202.426566,62.7434598 C202.894519,63.1481661 203.296759,63.6027275 203.632292,64.1110543 C203.96882,64.6184035 204.23167,65.1697425 204.421838,65.768004 C204.611011,66.3643104 204.706593,66.9967862 204.706593,67.668364 C204.706593,68.7475808 204.520407,69.7349078 204.150027,70.6323001 C203.777656,71.5306699 203.259921,72.301958 202.59483,72.9471419 C201.927748,73.594281 201.137206,74.0957649 200.223204,74.4574589 C199.308206,74.8181754 198.308578,75 197.22233,75 C196.4975,75 195.809509,74.9188632 195.157362,74.753657 C194.507206,74.5913835 193.903845,74.3577487 193.352258,74.0527526 C192.80067,73.7497117 192.300857,73.3811748 191.854808,72.9471419 C191.407763,72.5140866 191.027427,72.0253109 190.714794,71.4808147 C190.403157,70.9363186 190.162211,70.3429448 189.992952,69.7036262 C189.822696,69.0652851 189.738067,68.3858868 189.738067,67.668364 C189.738067,66.9967862 189.833649,66.3643104 190.021825,65.768004 C190.211994,65.1697425 190.476835,64.6184035 190.81635,64.1110543 C191.154869,63.6027275 191.556114,63.1481661 192.020085,62.7434598 C192.485051,62.3387535 192.994821,61.9966104 193.549395,61.7160532 C194.104965,61.4345184 194.693391,61.2175019 195.31567,61.0659815 C195.937948,60.9134834 196.573169,60.8362569 197.22233,60.8362569" id="Fill-43" fill="#002855"></path>
                <polyline id="Fill-45" fill="#002855" points="208.444244 61.276155 211.958871 61.276155 218.408659 69.3986301 218.443506 69.3986301 218.443506 61.276155 221.957137 61.276155 221.957137 74.5610794 218.443506 74.5610794 212.002679 66.4219859 211.958871 66.4219859 211.958871 74.5610794 208.444244 74.5610794 208.444244 61.276155"></polyline>
                <polyline id="Fill-46" fill="#002855" points="227.47301 61.276155 230.934868 61.276155 233.68683 68.3751337 236.587144 61.276155 240.09281 61.276155 242.134878 74.5610794 238.621247 74.5610794 237.629584 66.9117392 237.594737 66.9117392 234.343956 74.5610794 232.950053 74.5610794 229.838663 66.9117392 229.804811 66.9117392 228.673758 74.5610794 225.179044 74.5610794 227.47301 61.276155"></polyline>
                <polyline id="Fill-47" fill="#002855" points="248.91522 64.2019665 248.91522 66.4219859 252.885852 66.4219859 252.885852 69.3477974 248.91522 69.3477974 248.91522 71.6362454 253.102902 71.6362454 253.102902 74.5601018 245.400593 74.5601018 245.400593 61.2751775 253.102902 61.2751775 253.102902 64.2019665 248.91522 64.2019665"></polyline>
                <polyline id="Fill-48" fill="#002855" points="257.052626 61.276155 260.568248 61.276155 267.017041 69.3986301 267.050892 69.3986301 267.050892 61.276155 270.566515 61.276155 270.566515 74.5610794 267.050892 74.5610794 260.611061 66.4219859 260.568248 66.4219859 260.568248 74.5610794 257.052626 74.5610794 257.052626 61.276155"></polyline>
                <polyline id="Fill-49" fill="#002855" points="279.826013 74.5610794 276.312382 74.5610794 276.312382 64.2019665 273.402112 64.2019665 273.402112 61.276155 282.736283 61.276155 282.736283 64.2019665 279.826013 64.2019665 279.826013 74.5610794"></polyline>
                <path d="M290.623782,65.3799161 L290.588935,65.3799161 L289.134297,69.6127139 L292.060498,69.6127139 L290.623782,65.3799161 Z M288.160557,72.2540579 L287.232616,74.5610794 L283.498947,74.5610794 L288.705174,61.276155 L292.543386,61.276155 L297.644075,74.5610794 L293.892485,74.5610794 L293.008352,72.2540579 L288.160557,72.2540579 L288.160557,72.2540579 Z" id="Fill-50" fill="#002855"></path>
                <polyline id="Fill-51" fill="#002855" points="304.272083 71.6362454 308.496605 71.6362454 308.496605 74.5620569 300.757457 74.5620569 300.757457 61.2751775 304.272083 61.2751775 304.272083 71.6362454"></polyline>
                <path d="M326.817467,64.6917198 C326.4899,64.4287585 326.127486,64.2156523 325.731219,64.0553338 C325.331965,63.8940378 324.917777,63.8138786 324.485667,63.8138786 C324.321386,63.8138786 324.153122,63.8383174 323.976892,63.8823072 C323.802655,63.9292297 323.639369,63.9986358 323.492013,64.0895481 C323.341671,64.1824155 323.218211,64.2977666 323.122629,64.438534 C323.027047,64.5793014 322.978261,64.7405974 322.978261,64.9233995 C322.978261,65.1189098 323.03103,65.2860711 323.136568,65.4229283 C323.241111,65.5607631 323.373532,65.6780693 323.530844,65.7758244 C323.688155,65.872602 323.857415,65.9556939 324.038622,66.0211898 C324.218834,66.0876633 324.387098,66.1433838 324.539432,66.1883511 L325.43153,66.4562002 C325.905457,66.594035 326.344536,66.7572861 326.750759,66.9508413 C327.155987,67.1424413 327.510436,67.3819415 327.807139,67.6693416 C328.105832,67.9557642 328.339809,68.2959521 328.514046,68.6889278 C328.684302,69.0809259 328.771919,69.5481955 328.771919,70.0868264 C328.771919,70.4133285 328.750014,70.7427634 328.706206,71.0712207 C328.662398,71.4016331 328.585733,71.7212924 328.478203,72.0311762 C328.369678,72.34106 328.225309,72.635303 328.044102,72.9139052 C327.862895,73.1915298 327.636883,73.441783 327.368059,73.6656423 C326.83738,74.1084731 326.238002,74.4261773 325.567933,74.62071 C324.89886,74.8171979 324.218834,74.9139755 323.530844,74.9139755 C322.677576,74.9139755 321.844221,74.7800509 321.033766,74.5131794 C320.22132,74.2463078 319.467616,73.8758158 318.773652,73.3997483 L320.279067,70.6107939 C320.502092,70.802394 320.733081,70.9793308 320.972036,71.1455146 C321.210991,71.3116983 321.462889,71.4573535 321.723748,71.5844352 C321.989585,71.7095618 322.258409,71.809272 322.540177,71.8806333 C322.819953,71.9519945 323.109686,71.9891415 323.408379,71.9891415 C323.612486,71.9891415 323.817589,71.9627476 324.021696,71.9119149 C324.224808,71.8591272 324.409002,71.7789679 324.568306,71.6704597 C324.730596,71.5599964 324.861025,71.4221616 324.959594,71.2530452 C325.059159,71.0829513 325.107945,70.8815757 325.107945,70.6469633 C325.107945,70.4055081 325.032276,70.2011999 324.879942,70.0359937 C324.728604,69.8688324 324.542419,69.7261099 324.322381,69.6078261 C324.104335,69.4914975 323.873345,69.3956975 323.627421,69.320426 C323.381497,69.2471096 323.165442,69.1835688 322.978261,69.1317586 C322.423686,68.9763279 321.920886,68.8150319 321.470854,68.6498257 C321.021818,68.4826644 320.638495,68.2636929 320.318893,67.9919336 C320.000287,67.7201743 319.753367,67.3760761 319.579129,66.9635494 C319.4029,66.5500452 319.314287,66.0221674 319.314287,65.3789385 C319.314287,64.7093158 319.429782,64.0983461 319.659776,63.5470071 C319.892757,62.9966456 320.216341,62.5274209 320.629534,62.1403105 C321.044718,61.7541777 321.536567,61.4540694 322.106076,61.2409632 C322.67658,61.0288345 323.299854,60.9232589 323.976892,60.9232589 C324.316407,60.9232589 324.671853,60.9486753 325.046215,61.0004855 C325.419582,61.0522957 325.790958,61.1256121 326.159346,61.219457 C326.527735,61.3142795 326.887163,61.4296306 327.236634,61.5645327 C327.587101,61.6994348 327.914668,61.8499777 328.219336,62.0161615 L326.817467,64.6917198" id="Fill-52" fill="#002855"></path>
                <path d="M341.772055,65.7328121 C341.591843,65.4913569 341.383753,65.2821609 341.154755,65.1013139 C340.924761,64.9194893 340.67585,64.7679688 340.409017,64.6438198 C340.144175,64.5206483 339.865395,64.429736 339.572675,64.3652176 C339.281947,64.3016768 338.985244,64.2703952 338.686551,64.2703952 C338.149898,64.2703952 337.660041,64.3652176 337.215983,64.5538851 C336.77093,64.7435301 336.390594,65.0045363 336.076966,65.3369038 C335.76035,65.6692713 335.515422,66.0593143 335.340188,66.5080104 C335.164955,66.955729 335.077338,67.4376619 335.077338,67.9528315 C335.077338,68.4807093 335.164955,68.9645973 335.340188,69.4064505 C335.515422,69.8483038 335.762342,70.2295489 336.083935,70.5472531 C336.405528,70.8649573 336.791839,71.1142329 337.240874,71.2960575 C337.690906,71.475927 338.19072,71.5658617 338.740316,71.5658617 C339.026066,71.5658617 339.31082,71.5336025 339.594579,71.4681066 C339.878338,71.4006555 340.150149,71.3068106 340.409017,71.1846166 C340.670871,71.0614452 340.9158,70.9118798 341.144798,70.7408083 C341.375788,70.5687592 341.586865,70.3742265 341.772055,70.155255 L341.772055,74.2942078 C341.479335,74.3802324 341.206528,74.4613691 340.948656,74.5395733 C340.69178,74.6158223 340.440877,74.6832733 340.194953,74.7370387 C339.950024,74.7917815 339.702109,74.8357714 339.454193,74.867053 C339.206278,74.8983346 338.945419,74.9139755 338.670621,74.9139755 C337.722767,74.9139755 336.81673,74.7438815 335.948527,74.4066263 C335.081321,74.0683935 334.293765,73.585483 333.586857,72.9598501 C332.839128,72.2951151 332.290528,71.5394678 331.940061,70.6929083 C331.589594,69.8473262 331.415356,68.9274503 331.415356,67.9352356 C331.415356,67.0241576 331.58362,66.1482715 331.922139,65.3114875 C332.260658,64.4737259 332.757485,63.7288316 333.41262,63.0738722 C333.745165,62.7415047 334.111562,62.4413964 334.506833,62.1745248 C334.904096,61.9096084 335.324258,61.6818389 335.765329,61.4951265 C336.207395,61.3093918 336.662405,61.1666693 337.136332,61.0689141 C337.610259,60.9721365 338.08319,60.9232589 338.556121,60.9232589 C339.123639,60.9232589 339.670248,60.981912 340.194953,61.1001958 C340.720654,61.2175019 341.248345,61.3817306 341.772055,61.5938592 L341.772055,65.7328121" id="Fill-53" fill="#002855"></path>
                <polygon id="Fill-54" fill="#002855" points="345.7397 74.5591243 349.255322 74.5591243 349.255322 61.2751775 345.7397 61.2751775"></polygon>
                <polyline id="Fill-55" fill="#002855" points="356.835167 64.2019665 356.835167 66.4219859 360.803808 66.4219859 360.803808 69.3477974 356.835167 69.3477974 356.835167 71.6362454 361.023845 71.6362454 361.023845 74.5601018 353.32054 74.5601018 353.32054 61.2751775 361.023845 61.2751775 361.023845 64.2019665 356.835167 64.2019665"></polyline>
                <polyline id="Fill-56" fill="#002855" points="365.32304 61.276155 368.837667 61.276155 375.288451 69.3986301 375.321307 69.3986301 375.321307 61.276155 378.837925 61.276155 378.837925 74.5610794 375.321307 74.5610794 368.882471 66.4219859 368.837667 66.4219859 368.837667 74.5610794 365.32304 74.5610794 365.32304 61.276155"></polyline>
                <path d="M392.207445,65.7328121 C392.027233,65.4913569 391.820139,65.2821609 391.590145,65.1013139 C391.360151,64.9194893 391.11124,64.7679688 390.844407,64.6438198 C390.580561,64.5206483 390.299789,64.429736 390.00707,64.3652176 C389.716341,64.3016768 389.421631,64.2703952 389.122937,64.2703952 C388.586284,64.2703952 388.095431,64.3652176 387.650378,64.5538851 C387.206321,64.7435301 386.825984,65.0045363 386.512356,65.3369038 C386.195741,65.6692713 385.950812,66.0593143 385.775579,66.5080104 C385.600345,66.955729 385.512728,67.4376619 385.512728,67.9528315 C385.512728,68.4807093 385.600345,68.9645973 385.775579,69.4064505 C385.950812,69.8483038 386.197732,70.2295489 386.519326,70.5472531 C386.841915,70.8649573 387.227229,71.1142329 387.677261,71.2960575 C388.128288,71.475927 388.62611,71.5658617 389.175706,71.5658617 C389.462452,71.5658617 389.746211,71.5336025 390.02997,71.4681066 C390.312733,71.4006555 390.584544,71.3068106 390.844407,71.1846166 C391.105266,71.0614452 391.35119,70.9118798 391.580189,70.7408083 C391.811178,70.5687592 392.02126,70.3742265 392.207445,70.155255 L392.207445,74.2942078 C391.91373,74.3802324 391.640923,74.4613691 391.383051,74.5395733 C391.126175,74.6158223 390.875272,74.6832733 390.630344,74.7370387 C390.385415,74.7917815 390.137499,74.8357714 389.888588,74.867053 C389.640672,74.8983346 389.380809,74.9139755 389.106011,74.9139755 C388.158157,74.9139755 387.251125,74.7438815 386.383918,74.4066263 C385.516711,74.0683935 384.729156,73.585483 384.023244,72.9598501 C383.274519,72.2951151 382.724923,71.5394678 382.374456,70.6929083 C382.023989,69.8473262 381.849751,68.9274503 381.849751,67.9352356 C381.849751,67.0241576 382.018015,66.1482715 382.356534,65.3114875 C382.696049,64.4737259 383.193871,63.7288316 383.847014,63.0738722 C384.180556,62.7415047 384.545957,62.4413964 384.942224,62.1745248 C385.339486,61.9096084 385.758653,61.6818389 386.199724,61.4951265 C386.64179,61.3093918 387.098791,61.1666693 387.572718,61.0689141 C388.045649,60.9721365 388.517585,60.9232589 388.992508,60.9232589 C389.558034,60.9232589 390.104643,60.981912 390.630344,61.1001958 C391.15704,61.2175019 391.68274,61.3817306 392.207445,61.5938592 L392.207445,65.7328121" id="Fill-57" fill="#002855"></path>
                <polyline id="Fill-58" fill="#002855" points="399.677769 64.2019665 399.677769 66.4219859 403.648401 66.4219859 403.648401 69.3477974 399.677769 69.3477974 399.677769 71.6362454 403.865452 71.6362454 403.865452 74.5601018 396.163143 74.5601018 396.163143 61.2751775 403.865452 61.2751775 403.865452 64.2019665 399.677769 64.2019665"></polyline>
                <path d="M415.045549,64.6917198 C414.717982,64.4287585 414.355567,64.2156523 413.958305,64.0553338 C413.561042,63.8940378 413.14785,63.8138786 412.714744,63.8138786 C412.550463,63.8138786 412.381203,63.8383174 412.20597,63.8823072 C412.030736,63.9292297 411.868446,63.9986358 411.720095,64.0895481 C411.571744,64.1824155 411.447288,64.2977666 411.350711,64.438534 C411.255129,64.5793014 411.206342,64.7405974 411.206342,64.9233995 C411.206342,65.1189098 411.259111,65.2860711 411.365645,65.4229283 C411.470188,65.5607631 411.600617,65.6780693 411.759921,65.7758244 C411.916237,65.872602 412.085497,65.9556939 412.266704,66.0211898 C412.447911,66.0876633 412.614184,66.1433838 412.767513,66.1883511 L413.659611,66.4562002 C414.133538,66.594035 414.573613,66.7572861 414.979836,66.9508413 C415.38606,67.1424413 415.738518,67.3819415 416.03522,67.6693416 C416.333914,67.9557642 416.568886,68.2959521 416.740137,68.6889278 C416.913379,69.0809259 417,69.5481955 417,70.0868264 C417,70.4133285 416.9771,70.7427634 416.933292,71.0712207 C416.890479,71.4016331 416.813814,71.7212924 416.706285,72.0311762 C416.596764,72.34106 416.453391,72.635303 416.272184,72.9139052 C416.090976,73.1915298 415.86596,73.441783 415.598132,73.6656423 C415.065462,74.1084731 414.466084,74.4261773 413.796015,74.62071 C413.127937,74.8171979 412.447911,74.9139755 411.759921,74.9139755 C410.906653,74.9139755 410.073298,74.7800509 409.261847,74.5131794 C408.450397,74.2463078 407.695698,73.8758158 407.001733,73.3997483 L408.508144,70.6107939 C408.730173,70.802394 408.960167,70.9793308 409.200117,71.1455146 C409.439072,71.3116983 409.69097,71.4573535 409.953821,71.5844352 C410.217667,71.7095618 410.488482,71.809272 410.769254,71.8806333 C411.04903,71.9519945 411.337767,71.9891415 411.636461,71.9891415 C411.840568,71.9891415 412.045671,71.9627476 412.249778,71.9119149 C412.453885,71.8591272 412.637084,71.7789679 412.797383,71.6704597 C412.958677,71.5599964 413.087115,71.4221616 413.187675,71.2530452 C413.286244,71.0829513 413.337022,70.8815757 413.337022,70.6469633 C413.337022,70.4055081 413.261353,70.2011999 413.10902,70.0359937 C412.956686,69.8688324 412.771496,69.7261099 412.551458,69.6078261 C412.333412,69.4914975 412.101427,69.3956975 411.856498,69.320426 C411.61157,69.2471096 411.393523,69.1835688 411.206342,69.1317586 C410.651768,68.9763279 410.148967,68.8150319 409.699931,68.6498257 C409.248904,68.4826644 408.864585,68.2636929 408.54797,67.9919336 C408.227372,67.7201743 407.981448,67.3760761 407.805219,66.9635494 C407.631977,66.5500452 407.54436,66.0221674 407.54436,65.3789385 C407.54436,64.7093158 407.658859,64.0983461 407.888853,63.5470071 C408.120838,62.9966456 408.444423,62.5274209 408.858611,62.1403105 C409.273795,61.7541777 409.764648,61.4540694 410.334157,61.2409632 C410.905657,61.0288345 411.528931,60.9232589 412.20597,60.9232589 C412.544489,60.9232589 412.90093,60.9486753 413.275292,61.0004855 C413.649655,61.0522957 414.020035,61.1256121 414.388423,61.219457 C414.755816,61.3142795 415.11624,61.4296306 415.465711,61.5645327 C415.815183,61.6994348 416.14275,61.8499777 416.447417,62.0161615 L415.045549,64.6917198" id="Fill-59" fill="#002855"></path>
            </g>
        </g>
    </g>
</svg>