<?xml version="1.0" encoding="UTF-8"?>
<svg width="80px" height="121px" viewBox="0 0 80 121" version="1.1" xmlns="http://www.w3.org/2000/svg" xmlns:xlink="http://www.w3.org/1999/xlink">
    <title>feedbackbot-logo</title>
    <g id="Portfolio-Photos" stroke="none" stroke-width="1" fill="none" fill-rule="evenodd">
        <g id="feedbackbot" transform="translate(-24, -4)">
            <g id="feedbackbot-logo" transform="translate(27, 6)">
                <g id="Group" transform="translate(0, 15.6049)">
                    <g transform="translate(27.6553, 0)">
                        <g id="Group-5" fill="#002855">
                            <path d="M9.53648593,5.49898836 C6.77507895,5.49898836 4.52868397,7.75848029 4.52868397,10.5363557 C4.52868397,13.314231 6.77507895,15.5736397 9.53648593,15.5736397 C12.2976413,15.5736397 14.5439524,13.314231 14.5439524,10.5363557 C14.5439524,7.75848029 12.2976413,5.49898836 9.53648593,5.49898836 M9.53648593,20.072628 C4.27809679,20.072628 -3.60600438e-13,15.7945067 -3.60600438e-13,10.5363557 C-3.60600438e-13,5.27812136 4.27809679,1 9.53648593,1 C14.7948751,1 19.0726364,5.27812136 19.0726364,10.5363557 C19.0726364,15.7945067 14.7948751,20.072628 9.53648593,20.072628" id="Fill-3"></path>
                        </g>
                        <line x1="9.53632826" y1="16.4457854" x2="9.53632826" y2="31.7336888" id="Path-2" stroke="#002855" stroke-width="6.6754198"></line>
                    </g>
                </g>
                <line x1="20.0262594" y1="8.58330346" x2="27.0478155" y2="15.6048595" id="Path" stroke="#002855" stroke-width="3.8145256" stroke-linecap="round" stroke-linejoin="round"></line>
                <line x1="53.3662454" y1="8.58330346" x2="46.3446894" y2="15.6048595" id="Path-Copy" stroke="#002855" stroke-width="3.8145256" stroke-linecap="round" stroke-linejoin="round"></line>
                <line x1="37.0001903" y1="11.408809" x2="36.9999853" y2="0" id="Path" stroke="#002855" stroke-width="3.8145256" stroke-linecap="round" stroke-linejoin="round"></line>
                <line x1="19.9230769" y1="67.364803" x2="54.0769231" y2="67.364803" id="-path" stroke="#DDB307" stroke-width="5.7217884" stroke-linecap="round" stroke-linejoin="round"></line>
                <line x1="19.9230769" y1="78.8083788" x2="37" y2="78.8083788" id="-path" stroke="#DDB307" stroke-width="5.7217884" stroke-linecap="round" stroke-linejoin="round"></line>
                <path d="M0,84.5683119 C0,90.6715523 4.26164103,95.9890005 10.2727179,96.8777849 C14.5571282,97.5109961 18.8870769,97.9954408 23.2625641,98.32349 C24.5907692,98.4226676 25.8051282,99.1245403 26.5451282,100.234567 L37,116 L47.4548718,100.234567 C48.1980593,99.1235899 49.4089209,98.418638 50.7374359,98.32349 C55.0831434,97.9973722 59.4158602,97.5151625 63.7272821,96.8777849 C69.738359,95.9890005 74,90.6753668 74,84.5644974 L74,61.6086844 C74,55.4978149 69.738359,50.1841813 63.7272821,49.2953969 C54.8774845,47.9897372 45.9446148,47.3357126 37,47.3385363 C27.9226667,47.3385363 18.9971282,48.0060873 10.2727179,49.2953969 C4.26164103,50.1841813 0,55.5016295 0,61.6086844 L0,84.5644974 L0,84.5683119 Z" id="-path" stroke="#002855" stroke-width="5.7217884" stroke-linecap="round" stroke-linejoin="round"></path>
            </g>
        </g>
    </g>
</svg>