<?xml version="1.0" encoding="UTF-8" standalone="no"?>
<svg width="182px" height="22px" viewBox="0 0 182 22" version="1.1" xmlns="http://www.w3.org/2000/svg" xmlns:xlink="http://www.w3.org/1999/xlink">
    <!-- Generator: Sketch 39.1 (31720) - http://www.bohemiancoding.com/sketch -->
    <title>Title</title>
    <desc>Created with Sketch.</desc>
    <defs></defs>
    <g id="Symbols" stroke="none" stroke-width="1" fill="none" fill-rule="evenodd">
        <g id="Header" transform="translate(-202.000000, -28.000000)" fill="#00573F">
            <path d="M213.292,38.5 C213.292,39.1533366 213.208001,39.8813293 213.04,40.684 L207.636,40.684 L207.636,44.66 L214.664,44.66 C214.832001,45.4440039 214.916,46.1533302 214.916,46.788 C214.916,47.4786701 214.832001,48.2159961 214.664,49 L202.68,49 L202.68,28.868 L214.496,28.868 C214.570667,29.2786687 214.626666,29.6613316 214.664,30.016 C214.701334,30.3706684 214.72,30.7066651 214.72,31.024 C214.72,31.6400031 214.645334,32.377329 214.496,33.236 L207.636,33.236 L207.636,36.316 L213.04,36.316 C213.208001,37.1373374 213.292,37.8653302 213.292,38.5 L213.292,38.5 Z M222.09,34.188 C223.602008,34.188 224.894661,34.3653316 225.968,34.72 C227.041339,35.0746684 227.92333,35.5739968 228.614,36.218 C229.30467,36.8620032 229.808665,37.6413288 230.126,38.556 C230.443335,39.4706712 230.602,40.4879944 230.602,41.608 C230.602,42.7840059 230.438668,43.8479952 230.112,44.8 C229.785332,45.7520048 229.272004,46.5639966 228.572,47.236 C227.871997,47.9080034 226.966672,48.4259982 225.856,48.79 C224.745328,49.1540018 223.406008,49.336 221.838,49.336 C220.923329,49.336 220.10667,49.3033337 219.388,49.238 C218.66933,49.1726663 217.918004,49.0840006 217.134,48.972 L217.134,34.58 C217.918004,34.4866662 218.748662,34.3980004 219.626,34.314 C220.503338,34.2299996 221.324663,34.188 222.09,34.188 L222.09,34.188 Z M221.866,45.332 C221.940667,45.332 222.038666,45.3413332 222.16,45.36 C222.281334,45.3786668 222.463332,45.388 222.706,45.388 C223.751339,45.388 224.530664,45.0940029 225.044,44.506 C225.557336,43.9179971 225.814,42.9520067 225.814,41.608 C225.814,40.4133274 225.562003,39.5406694 225.058,38.99 C224.553997,38.4393306 223.835338,38.164 222.902,38.164 C222.677999,38.164 222.472668,38.1733332 222.286,38.192 C222.099332,38.2106668 221.959334,38.2293332 221.866,38.248 L221.866,45.332 Z M237.58,48.972 C237.094664,49.046667 236.656002,49.1026665 236.264,49.14 C235.871998,49.1773335 235.517335,49.196 235.2,49.196 C234.882665,49.196 234.528002,49.1773335 234.136,49.14 C233.743998,49.1026665 233.314669,49.046667 232.848,48.972 L232.848,34.524 C233.258669,34.4306662 233.664665,34.3653335 234.066,34.328 C234.467335,34.2906665 234.854665,34.272 235.228,34.272 C235.582668,34.272 235.965331,34.2906665 236.376,34.328 C236.786669,34.3653335 237.187998,34.4306662 237.58,34.524 L237.58,48.972 Z M240.526,34.58 C240.899335,34.5239997 241.328664,34.4726669 241.814,34.426 C242.299336,34.3793331 242.793997,34.3373335 243.298,34.3 C243.802003,34.2626665 244.291998,34.2346668 244.768,34.216 C245.244002,34.1973332 245.659332,34.188 246.014,34.188 C248.347345,34.188 250.092661,34.51933 251.25,35.182 C252.407339,35.84467 252.986,36.875993 252.986,38.276 C252.986,38.9853369 252.822668,39.5873309 252.496,40.082 C252.169332,40.5766691 251.726003,41.0013316 251.166,41.356 C251.950004,41.6360014 252.593997,42.0373307 253.098,42.56 C253.602003,43.0826693 253.854,43.8199952 253.854,44.772 C253.854,46.4893419 253.21934,47.67933 251.95,48.342 C250.68066,49.00467 248.804679,49.336 246.322,49.336 C245.668663,49.336 244.814672,49.3126669 243.76,49.266 C242.705328,49.2193331 241.627339,49.1213341 240.526,48.972 L240.526,34.58 Z M245.202,43.008 L245.202,45.892 C245.258,45.892 245.407332,45.9013332 245.65,45.92 C245.892668,45.9386668 246.219331,45.948 246.63,45.948 C247.414004,45.948 247.973998,45.8173346 248.31,45.556 C248.646002,45.2946654 248.814,44.930669 248.814,44.464 C248.814,44.2773324 248.781334,44.0953342 248.716,43.918 C248.650666,43.7406658 248.534001,43.5866673 248.366,43.456 C248.197999,43.3253327 247.964668,43.2180004 247.666,43.134 C247.367332,43.0499996 246.975336,43.008 246.49,43.008 L245.202,43.008 Z M245.202,40.068 L246.574,40.068 C247.283337,40.068 247.759332,39.9140015 248.002,39.606 C248.244668,39.2979985 248.366,38.9760017 248.366,38.64 C248.366,38.3226651 248.240001,38.028668 247.988,37.758 C247.735999,37.487332 247.274003,37.352 246.602,37.352 C246.396666,37.352 246.158668,37.3566666 245.888,37.366 C245.617332,37.3753334 245.388668,37.3893332 245.202,37.408 L245.202,40.068 Z M260.804,45.052 L266.096,45.052 C266.189334,45.4253352 266.25,45.7706651 266.278,46.088 C266.306,46.4053349 266.32,46.7133318 266.32,47.012 C266.32,47.3106682 266.306,47.6233317 266.278,47.95 C266.25,48.2766683 266.189334,48.6266648 266.096,49 L256.072,49 L256.1,34.524 C256.510669,34.4306662 256.916665,34.3653335 257.318,34.328 C257.719335,34.2906665 258.106665,34.272 258.48,34.272 C258.834668,34.272 259.217331,34.2906665 259.628,34.328 C260.038669,34.3653335 260.439998,34.4306662 260.832,34.524 L260.804,45.052 Z M271.898,43.26 C272.103334,44.0253372 272.462664,44.5666651 272.976,44.884 C273.489336,45.2013349 274.165996,45.36 275.006,45.36 C275.547336,45.36 276.153997,45.2946673 276.826,45.164 C277.498003,45.0333327 278.160663,44.8373346 278.814,44.576 C279.075335,45.0613358 279.303999,45.6399966 279.5,46.312 C279.696001,46.9840034 279.803333,47.6839964 279.822,48.412 C278.160658,49.0280031 276.462009,49.336 274.726,49.336 C273.381993,49.336 272.229338,49.1493352 271.268,48.776 C270.306662,48.4026648 269.52267,47.88467 268.916,47.222 C268.30933,46.55933 267.861335,45.7706712 267.572,44.856 C267.282665,43.9413288 267.138,42.9426721 267.138,41.86 C267.138,40.7959947 267.287332,39.797338 267.586,38.864 C267.884668,37.930662 268.332664,37.1186701 268.93,36.428 C269.527336,35.7373299 270.273996,35.1913353 271.17,34.79 C272.066004,34.3886647 273.111327,34.188 274.306,34.188 C275.295338,34.188 276.177329,34.3559983 276.952,34.692 C277.726671,35.0280017 278.384664,35.4899971 278.926,36.078 C279.467336,36.6660029 279.882665,37.3753292 280.172,38.206 C280.461335,39.0366708 280.606,39.9373285 280.606,40.908 C280.606,41.4120025 280.582667,41.8646647 280.536,42.266 C280.489333,42.6673353 280.447334,42.9986654 280.41,43.26 L271.898,43.26 Z M274.138,37.744 C273.540664,37.744 273.027335,37.9306648 272.598,38.304 C272.168665,38.6773352 271.916667,39.2559961 271.842,40.04 L276.322,40.04 C276.284666,39.3866634 276.084002,38.8406689 275.72,38.402 C275.355998,37.9633311 274.82867,37.744 274.138,37.744 L274.138,37.744 Z M293.498,38.976 C293.498,42.9333531 295.159317,44.912 298.482,44.912 C299.079336,44.912 299.643997,44.8560006 300.176,44.744 C300.708003,44.6319994 301.356663,44.4453346 302.122,44.184 C302.738003,45.5280067 303.148666,46.9093262 303.354,48.328 C302.812664,48.5333344 302.308669,48.7013327 301.842,48.832 C301.375331,48.9626673 300.927335,49.0606663 300.498,49.126 C300.068665,49.1913337 299.644002,49.2379999 299.224,49.266 C298.803998,49.2940001 298.370002,49.308 297.922,49.308 C296.335325,49.308 294.940006,49.0513359 293.736,48.538 C292.531994,48.0246641 291.524004,47.3106712 290.712,46.396 C289.899996,45.4813288 289.288669,44.3893397 288.878,43.12 C288.467331,41.8506603 288.262,40.4693408 288.262,38.976 C288.262,37.4826592 288.476665,36.0966731 288.906,34.818 C289.335335,33.5393269 289.955996,32.433338 290.768,31.5 C291.580004,30.566662 292.583327,29.8386693 293.778,29.316 C294.972673,28.7933307 296.325992,28.532 297.838,28.532 C298.734004,28.532 299.583329,28.5973327 300.386,28.728 C301.188671,28.8586673 302.084662,29.119998 303.074,29.512 C303.036666,30.2773372 302.896668,31.0193297 302.654,31.738 C302.411332,32.4566703 302.159335,33.086664 301.898,33.628 C301.524665,33.4973327 301.184002,33.3853338 300.876,33.292 C300.567998,33.1986662 300.274001,33.1240003 299.994,33.068 C299.713999,33.0119997 299.434001,32.9700001 299.154,32.942 C298.873999,32.9139999 298.575335,32.9 298.258,32.9 C296.745992,32.9 295.574671,33.4086616 294.744,34.426 C293.913329,35.4433384 293.498,36.9599899 293.498,38.976 L293.498,38.976 Z M304.536,44.268 C304.536,43.3533288 304.731998,42.5973363 305.124,42 C305.516002,41.4026637 306.019997,40.9266684 306.636,40.572 C307.252003,40.2173316 307.93333,39.9700007 308.68,39.83 C309.42667,39.6899993 310.154663,39.62 310.864,39.62 L312.572,39.62 C312.553333,39.2839983 312.460001,39.0040011 312.292,38.78 C312.123999,38.5559989 311.909335,38.3833339 311.648,38.262 C311.386665,38.1406661 311.097335,38.0566669 310.78,38.01 C310.462665,37.9633331 310.136002,37.94 309.8,37.94 C309.351998,37.94 308.829336,37.9913328 308.232,38.094 C307.634664,38.1966672 307.01867,38.3599989 306.384,38.584 C306.215999,38.2666651 306.071334,37.9773346 305.95,37.716 C305.828666,37.4546654 305.735334,37.188668 305.67,36.918 C305.604666,36.647332 305.558,36.3673348 305.53,36.078 C305.502,35.7886652 305.488,35.4573352 305.488,35.084 C306.384004,34.7853318 307.275329,34.5613341 308.162,34.412 C309.048671,34.2626659 309.846663,34.188 310.556,34.188 C311.526672,34.188 312.403996,34.3046655 313.188,34.538 C313.972004,34.7713345 314.639331,35.1306642 315.19,35.616 C315.740669,36.1013358 316.165332,36.7219962 316.464,37.478 C316.762668,38.2340038 316.912,39.1346614 316.912,40.18 L316.912,48.384 C316.202663,48.5893344 315.344005,48.7946656 314.336,49 C313.327995,49.2053344 312.264006,49.308 311.144,49.308 C310.173328,49.308 309.282004,49.2193342 308.47,49.042 C307.657996,48.8646658 306.96267,48.580002 306.384,48.188 C305.80533,47.795998 305.352668,47.2780032 305.026,46.634 C304.699332,45.9899968 304.536,45.201338 304.536,44.268 L304.536,44.268 Z M311.144,45.836 C311.312001,45.836 311.554665,45.8173335 311.872,45.78 C312.189335,45.7426665 312.422666,45.7053335 312.572,45.668 L312.572,42.588 L310.976,42.588 C310.322663,42.588 309.772002,42.7279986 309.324,43.008 C308.875998,43.2880014 308.652,43.6799975 308.652,44.184 C308.652,44.5573352 308.735999,44.8513323 308.904,45.066 C309.072001,45.2806677 309.281999,45.4439994 309.534,45.556 C309.786001,45.6680006 310.056665,45.7426665 310.346,45.78 C310.635335,45.8173335 310.901332,45.836 311.144,45.836 L311.144,45.836 Z M325.542,34.244 C326.307337,34.244 327.06333,34.3046661 327.81,34.426 C328.55667,34.5473339 329.24733,34.7946648 329.882,35.168 C330.367336,34.9253321 330.936663,34.7106676 331.59,34.524 C332.243337,34.3373324 332.980663,34.244 333.802,34.244 C334.530004,34.244 335.281329,34.3139993 336.056,34.454 C336.830671,34.5940007 337.530664,34.8879978 338.156,35.336 C338.781336,35.7840022 339.294665,36.4279958 339.696,37.268 C340.097335,38.1080042 340.298,39.2186598 340.298,40.6 L340.298,48.972 C339.812664,49.0653338 339.374002,49.1259999 338.982,49.154 C338.589998,49.1820001 338.244668,49.196 337.946,49.196 C337.628665,49.196 337.274002,49.1820001 336.882,49.154 C336.489998,49.1259999 336.051336,49.0653338 335.566,48.972 L335.566,41.104 C335.566,40.1146617 335.398002,39.4053355 335.062,38.976 C334.725998,38.5466645 334.175337,38.332 333.41,38.332 C333.148665,38.332 332.892001,38.3599997 332.64,38.416 C332.387999,38.4720003 332.215334,38.5186665 332.122,38.556 C332.290001,39.2093366 332.374,39.9559958 332.374,40.796 L332.374,48.972 C331.888664,49.0653338 331.450002,49.1259999 331.058,49.154 C330.665998,49.1820001 330.320668,49.196 330.022,49.196 C329.704665,49.196 329.350002,49.1820001 328.958,49.154 C328.565998,49.1259999 328.127336,49.0653338 327.642,48.972 L327.642,41.104 C327.642,40.1146617 327.483335,39.4053355 327.166,38.976 C326.848665,38.5466645 326.307337,38.332 325.542,38.332 C325.336666,38.332 325.117335,38.3506665 324.884,38.388 C324.650666,38.4253335 324.506,38.4626665 324.45,38.5 L324.45,48.972 C323.964664,49.0653338 323.526002,49.1259999 323.134,49.154 C322.741998,49.1820001 322.396668,49.196 322.098,49.196 C321.780665,49.196 321.426002,49.1820001 321.034,49.154 C320.641998,49.1259999 320.203336,49.0653338 319.718,48.972 L319.718,35.224 C320.371337,34.9999989 321.155329,34.7806677 322.07,34.566 C322.984671,34.3513323 324.141993,34.244 325.542,34.244 L325.542,34.244 Z M347.724,42 C347.817334,42.0186668 347.933999,42.0326666 348.074,42.042 C348.214001,42.0513334 348.330666,42.056 348.424,42.056 C349.077337,42.056 349.613998,41.8926683 350.034,41.566 C350.454002,41.2393317 350.664,40.6840039 350.664,39.9 C350.664,39.2279966 350.454002,38.7100018 350.034,38.346 C349.613998,37.9819982 349.096003,37.8 348.48,37.8 L348.158,37.8 C348.017999,37.8 347.873334,37.8093332 347.724,37.828 L347.724,42 Z M343.104,34.58 C343.962671,34.4493327 344.844662,34.3513337 345.75,34.286 C346.655338,34.2206663 347.527996,34.188 348.368,34.188 C349.226671,34.188 350.066663,34.2673325 350.888,34.426 C351.709337,34.5846675 352.446663,34.8739979 353.1,35.294 C353.753337,35.7140021 354.280665,36.292663 354.682,37.03 C355.083335,37.767337 355.284,38.7239941 355.284,39.9 C355.284,40.9640053 355.102002,41.8599964 354.738,42.588 C354.373998,43.3160036 353.893336,43.9039978 353.296,44.352 C352.698664,44.8000022 352.022004,45.121999 351.266,45.318 C350.509996,45.514001 349.740004,45.612 348.956,45.612 C348.638665,45.612 348.368001,45.6026668 348.144,45.584 C347.919999,45.5653332 347.78,45.5466668 347.724,45.528 L347.724,48.972 C347.238664,49.0653338 346.804669,49.1259999 346.422,49.154 C346.039331,49.1820001 345.698668,49.196 345.4,49.196 C345.082665,49.196 344.742002,49.1820001 344.378,49.154 C344.013998,49.1259999 343.589336,49.0653338 343.104,48.972 L343.104,34.58 Z M370.046,48.328 C369.728665,48.4400006 369.350669,48.5519994 368.912,48.664 C368.473331,48.7760006 368.006669,48.8833328 367.512,48.986 C367.017331,49.0886672 366.508669,49.1679997 365.986,49.224 C365.463331,49.2800003 364.950003,49.308 364.446,49.308 C363.493995,49.308 362.579338,49.2333341 361.702,49.084 C360.824662,48.9346659 360.05467,48.6313356 359.392,48.174 C358.72933,47.7166644 358.202002,47.0540043 357.81,46.186 C357.417998,45.3179957 357.222,44.1560073 357.222,42.7 L357.222,34.524 C357.632669,34.4306662 358.038665,34.3653335 358.44,34.328 C358.841335,34.2906665 359.228665,34.272 359.602,34.272 C359.956668,34.272 360.339331,34.2906665 360.75,34.328 C361.160669,34.3653335 361.561998,34.4306662 361.954,34.524 L361.954,42.308 C361.954,43.4280056 362.140665,44.1933313 362.514,44.604 C362.887335,45.0146687 363.456663,45.22 364.222,45.22 C364.539335,45.22 364.781999,45.2106668 364.95,45.192 C365.118001,45.1733332 365.239333,45.1546668 365.314,45.136 L365.314,34.524 C365.724669,34.4306662 366.130665,34.3653335 366.532,34.328 C366.933335,34.2906665 367.320665,34.272 367.694,34.272 C368.048668,34.272 368.431331,34.2906665 368.842,34.328 C369.252669,34.3653335 369.653998,34.4306662 370.046,34.524 L370.046,48.328 Z M379.964,39.928 C380.524003,40.0773341 381.032664,40.2593323 381.49,40.474 C381.947336,40.6886677 382.339332,40.9639983 382.666,41.3 C382.992668,41.6360017 383.249332,42.0466642 383.436,42.532 C383.622668,43.0173358 383.716,43.6053299 383.716,44.296 C383.716,45.0053369 383.571335,45.6679969 383.282,46.284 C382.992665,46.9000031 382.563336,47.4319978 381.994,47.88 C381.424664,48.3280022 380.724671,48.6826654 379.894,48.944 C379.063329,49.2053346 378.106672,49.336 377.024,49.336 C376.127996,49.336 375.297337,49.2706673 374.532,49.14 C373.766663,49.0093327 372.954671,48.7853349 372.096,48.468 C372.189334,47.1986603 372.534664,45.9106732 373.132,44.604 C373.729336,44.8840014 374.354663,45.0939993 375.008,45.234 C375.661337,45.3740007 376.314663,45.444 376.968,45.444 C377.192001,45.444 377.425332,45.4346668 377.668,45.416 C377.910668,45.3973332 378.125332,45.3553337 378.312,45.29 C378.498668,45.2246663 378.652666,45.1360006 378.774,45.024 C378.895334,44.9119994 378.956,44.7626676 378.956,44.576 C378.956,44.3333321 378.834668,44.1513339 378.592,44.03 C378.349332,43.9086661 378.069335,43.8013338 377.752,43.708 L375.848,43.176 C374.858662,42.8959986 374.037337,42.4200034 373.384,41.748 C372.730663,41.0759966 372.404,40.1613391 372.404,39.004 C372.404,38.2759964 372.553332,37.6133363 372.852,37.016 C373.150668,36.4186637 373.570664,35.9100021 374.112,35.49 C374.653336,35.0699979 375.292663,34.7480011 376.03,34.524 C376.767337,34.2999989 377.583996,34.188 378.48,34.188 C379.189337,34.188 379.963996,34.2626659 380.804,34.412 C381.644004,34.5613341 382.474663,34.7759986 383.296,35.056 C383.258667,35.6533363 383.137334,36.2926633 382.932,36.974 C382.726666,37.6553367 382.493335,38.2573307 382.232,38.78 C381.727998,38.5746656 381.121337,38.3880008 380.412,38.22 C379.702663,38.0519992 379.049336,37.968 378.452,37.968 C377.574662,37.968 377.136,38.2106642 377.136,38.696 C377.136,38.9013344 377.238666,39.0599994 377.444,39.172 C377.649334,39.2840006 377.882665,39.377333 378.144,39.452 L379.964,39.928 Z" id="Title"></path>
        </g>
    </g>
</svg>