<svg width="224" height="36" viewBox="0 0 224 36" version="1.1" xmlns="http://www.w3.org/2000/svg" xmlns:xlink="http://www.w3.org/1999/xlink" xmlns:figma="http://www.figma.com/figma/ns">
<title>FeedbackBot</title>
<desc>Created using Figma</desc>
<g id="Canvas" transform="translate(317 -2545)" figma:type="canvas">
<g id="FeedbackBot" style="mix-blend-mode:normal;" figma:type="text">
<use xlink:href="#path0_fill" transform="translate(-319.779 2535.07)" fill="#1959A3" style="mix-blend-mode:normal;"/>
</g>
</g>
<defs>
<path id="path0_fill" d="M 17.15 10L 17.15 11.55C 17.15 12.0833 17.0667 12.45 16.9 12.65C 16.7667 12.8167 16.4333 12.9 15.9 12.9L 7.6 12.9L 7.6 25.4L 15.65 25.4L 15.65 26.95C 15.65 27.4833 15.5667 27.85 15.4 28.05C 15.2667 28.2167 14.9333 28.3 14.4 28.3L 7.6 28.3L 7.6 43.65C 7.6 44.1833 7.5 44.55 7.3 44.75C 7.13333 44.9167 6.78333 45 6.25 45L 3.6 45L 3.6 11.35C 3.6 10.8167 3.68333 10.4667 3.85 10.3C 4.05 10.1 4.41667 10 4.95 10L 17.15 10ZM 34.9617 42.1L 34.9617 43.65C 34.9617 44.1833 34.8784 44.55 34.7117 44.75C 34.5784 44.9167 34.2451 45 33.7117 45L 26.1617 45C 24.4284 45 23.1951 44.65 22.4617 43.95C 21.7617 43.2167 21.4117 41.9833 21.4117 40.25L 21.4117 24.35C 21.4117 22.6167 21.7617 21.4 22.4617 20.7C 23.1951 19.9667 24.4284 19.6 26.1617 19.6L 31.6617 19.6C 33.3951 19.6 34.6117 19.9667 35.3117 20.7C 36.0451 21.4 36.4117 22.6167 36.4117 24.35L 36.4117 29.95C 36.4117 31.6833 36.0451 32.9167 35.3117 33.65C 34.6117 34.35 33.3951 34.7 31.6617 34.7L 28.6617 34.7C 28.1284 34.7 27.7784 34.6167 27.6117 34.45C 27.4784 34.25 27.4117 33.8833 27.4117 33.35L 27.4117 31.8L 30.3117 31.8C 31.3451 31.8 31.9951 31.5833 32.2617 31.15C 32.5284 30.7167 32.6617 29.9833 32.6617 28.95L 32.6617 25.1C 32.6617 24.0667 32.4951 23.3833 32.1617 23.05C 31.8284 22.6833 31.1451 22.5 30.1117 22.5L 27.9617 22.5C 26.8617 22.5 26.1617 22.7 25.8617 23.1C 25.5617 23.4667 25.4117 24.2167 25.4117 25.35L 25.4117 39.25C 25.4117 40.2833 25.5451 41.0167 25.8117 41.45C 26.0784 41.8833 26.7284 42.1 27.7617 42.1L 34.9617 42.1ZM 55.616 42.1L 55.616 43.65C 55.616 44.1833 55.5327 44.55 55.366 44.75C 55.2327 44.9167 54.8993 45 54.366 45L 46.816 45C 45.0827 45 43.8493 44.65 43.116 43.95C 42.416 43.2167 42.066 41.9833 42.066 40.25L 42.066 24.35C 42.066 22.6167 42.416 21.4 43.116 20.7C 43.8493 19.9667 45.0827 19.6 46.816 19.6L 52.316 19.6C 54.0493 19.6 55.266 19.9667 55.966 20.7C 56.6993 21.4 57.066 22.6167 57.066 24.35L 57.066 29.95C 57.066 31.6833 56.6993 32.9167 55.966 33.65C 55.266 34.35 54.0493 34.7 52.316 34.7L 49.316 34.7C 48.7827 34.7 48.4327 34.6167 48.266 34.45C 48.1327 34.25 48.066 33.8833 48.066 33.35L 48.066 31.8L 50.966 31.8C 51.9993 31.8 52.6493 31.5833 52.916 31.15C 53.1827 30.7167 53.316 29.9833 53.316 28.95L 53.316 25.1C 53.316 24.0667 53.1493 23.3833 52.816 23.05C 52.4827 22.6833 51.7993 22.5 50.766 22.5L 48.616 22.5C 47.516 22.5 46.816 22.7 46.516 23.1C 46.216 23.4667 46.066 24.2167 46.066 25.35L 46.066 39.25C 46.066 40.2833 46.1993 41.0167 46.466 41.45C 46.7327 41.8833 47.3827 42.1 48.416 42.1L 55.616 42.1ZM 79.2203 10L 79.2203 43.65C 79.2203 44.1833 79.1203 44.55 78.9203 44.75C 78.7536 44.9167 78.4036 45 77.8703 45L 75.2203 45L 75.2203 11.35C 75.2203 10.8167 75.3036 10.4667 75.4703 10.3C 75.6703 10.1 76.037 10 76.5703 10L 79.2203 10ZM 67.4703 45C 65.737 45 64.5036 44.65 63.7703 43.95C 63.0703 43.2167 62.7203 41.9833 62.7203 40.25L 62.7203 24.35C 62.7203 22.6167 63.0703 21.4 63.7703 20.7C 64.5036 19.9667 65.737 19.6 67.4703 19.6L 72.2203 19.6C 73.187 19.6 73.8703 19.85 74.2703 20.35C 74.7036 20.8167 75.0203 21.5333 75.2203 22.5L 69.0703 22.5C 68.037 22.5 67.387 22.7167 67.1203 23.15C 66.8536 23.5833 66.7203 24.3167 66.7203 25.35L 66.7203 39.25C 66.7203 40.2833 66.8536 41.0167 67.1203 41.45C 67.387 41.8833 68.037 42.1 69.0703 42.1L 73.2203 42.1L 73.2203 43.65C 73.2203 44.1833 73.137 44.55 72.9703 44.75C 72.837 44.9167 72.5036 45 71.9703 45L 67.4703 45ZM 97.5207 19.6C 99.254 19.6 100.471 19.9667 101.171 20.7C 101.904 21.4 102.271 22.6167 102.271 24.35L 102.271 40.25C 102.271 41.9833 101.904 43.2167 101.171 43.95C 100.471 44.65 99.254 45 97.5207 45L 92.7707 45C 91.804 45 91.104 44.7667 90.6707 44.3C 90.2707 43.8 89.9707 43.0667 89.7707 42.1L 89.7707 43.65C 89.7707 44.1833 89.6707 44.55 89.4707 44.75C 89.304 44.9167 88.954 45 88.4207 45L 85.7707 45L 85.7707 11.35C 85.7707 10.8167 85.854 10.4667 86.0207 10.3C 86.2207 10.1 86.5874 10 87.1207 10L 89.7707 10L 89.7707 42.1L 95.9207 42.1C 96.954 42.1 97.604 41.8833 97.8707 41.45C 98.1374 41.0167 98.2707 40.2833 98.2707 39.25L 98.2707 25.35C 98.2707 24.3167 98.1374 23.5833 97.8707 23.15C 97.604 22.7167 96.954 22.5 95.9207 22.5L 91.7707 22.5L 91.7707 20.95C 91.7707 20.4167 91.8374 20.0667 91.9707 19.9C 92.1374 19.7 92.4874 19.6 93.0207 19.6L 97.5207 19.6ZM 119.97 25.35C 119.97 24.3167 119.837 23.5833 119.57 23.15C 119.303 22.7167 118.653 22.5 117.62 22.5L 108.97 22.5C 109.17 21.5333 109.47 20.8167 109.87 20.35C 110.303 19.85 111.003 19.6 111.97 19.6L 119.22 19.6C 120.953 19.6 122.17 19.9667 122.87 20.7C 123.603 21.4 123.97 22.6167 123.97 24.35L 123.97 45L 121.32 45C 120.787 45 120.42 44.9167 120.22 44.75C 120.053 44.55 119.97 44.1833 119.97 43.65L 119.97 25.35ZM 112.72 45C 110.987 45 109.753 44.65 109.02 43.95C 108.32 43.2167 107.97 41.9833 107.97 40.25L 107.97 34.75C 107.97 33.0167 108.32 31.8 109.02 31.1C 109.753 30.3667 110.987 30 112.72 30L 116.97 30C 117.937 30 118.62 30.25 119.02 30.75C 119.453 31.2167 119.77 31.9333 119.97 32.9L 114.32 32.9C 113.287 32.9 112.637 33.1167 112.37 33.55C 112.103 33.9833 111.97 34.7167 111.97 35.75L 111.97 39.65C 111.97 40.6833 112.153 41.35 112.52 41.65C 112.92 41.95 113.637 42.1 114.67 42.1L 117.97 42.1L 117.97 43.65C 117.97 44.1833 117.887 44.55 117.72 44.75C 117.587 44.9167 117.253 45 116.72 45L 112.72 45ZM 141.597 19.6C 142.131 19.6 142.464 19.7 142.597 19.9C 142.764 20.0667 142.847 20.4167 142.847 20.95L 142.847 22.5L 136.697 22.5C 135.664 22.5 135.014 22.7167 134.747 23.15C 134.481 23.5833 134.347 24.3167 134.347 25.35L 134.347 39.25C 134.347 40.2833 134.481 41.0167 134.747 41.45C 135.014 41.8833 135.664 42.1 136.697 42.1L 142.847 42.1L 142.847 43.65C 142.847 44.1833 142.764 44.55 142.597 44.75C 142.464 44.9167 142.131 45 141.597 45L 135.097 45C 133.364 45 132.131 44.65 131.397 43.95C 130.697 43.2167 130.347 41.9833 130.347 40.25L 130.347 24.35C 130.347 22.6167 130.697 21.4 131.397 20.7C 132.131 19.9667 133.364 19.6 135.097 19.6L 141.597 19.6ZM 152.271 43.65C 152.271 44.1833 152.171 44.55 151.971 44.75C 151.804 44.9167 151.454 45 150.921 45L 148.271 45L 148.271 11.35C 148.271 10.8167 148.354 10.4667 148.521 10.3C 148.721 10.1 149.087 10 149.621 10L 152.271 10L 152.271 43.65ZM 153.771 29.65L 159.271 20.95C 159.537 20.4833 159.787 20.15 160.021 19.95C 160.254 19.7167 160.637 19.6 161.171 19.6L 164.321 19.6L 156.721 30.9L 164.821 45L 161.371 45C 160.837 45 160.454 44.9 160.221 44.7C 159.987 44.4667 159.737 44.1167 159.471 43.65L 153.771 32.85L 153.771 29.65ZM 176.719 45C 176.186 45 175.836 44.9167 175.669 44.75C 175.536 44.55 175.469 44.1833 175.469 43.65L 175.469 42.1L 179.319 42.1C 180.352 42.1 181.002 41.8833 181.269 41.45C 181.536 41.0167 181.669 40.2833 181.669 39.25L 181.669 31.15C 181.669 30.1167 181.536 29.3833 181.269 28.95C 181.002 28.5167 180.352 28.3 179.319 28.3L 173.469 28.3L 173.469 45L 169.469 45L 169.469 11.35C 169.469 10.8167 169.552 10.4667 169.719 10.3C 169.919 10.1 170.286 10 170.819 10L 180.919 10C 182.652 10 183.869 10.3667 184.569 11.1C 185.302 11.8 185.669 13.0167 185.669 14.75L 185.669 22.05C 185.669 24.6167 184.752 26.1167 182.919 26.55L 182.919 26.65C 183.886 26.9167 184.586 27.4 185.019 28.1C 185.452 28.8 185.669 29.8167 185.669 31.15L 185.669 40.25C 185.669 41.9833 185.302 43.2167 184.569 43.95C 183.869 44.65 182.652 45 180.919 45L 176.719 45ZM 173.469 12.9L 173.469 25.4L 179.619 25.4C 180.486 25.3667 181.036 25.1333 181.269 24.7C 181.536 24.2333 181.669 23.5167 181.669 22.55L 181.669 15.75C 181.669 14.7167 181.536 13.9833 181.269 13.55C 181.002 13.1167 180.352 12.9 179.319 12.9L 173.469 12.9ZM 192.261 24.35C 192.261 22.6167 192.611 21.4 193.311 20.7C 194.045 19.9667 195.278 19.6 197.011 19.6L 204.011 19.6C 205.745 19.6 206.961 19.9667 207.661 20.7C 208.395 21.4 208.761 22.6167 208.761 24.35L 208.761 40.25C 208.761 41.9833 208.395 43.2167 207.661 43.95C 206.961 44.65 205.745 45 204.011 45L 197.011 45C 195.278 45 194.045 44.65 193.311 43.95C 192.611 43.2167 192.261 41.9833 192.261 40.25L 192.261 24.35ZM 198.611 22.5C 197.578 22.5 196.928 22.7167 196.661 23.15C 196.395 23.5833 196.261 24.3167 196.261 25.35L 196.261 39.25C 196.261 40.2833 196.395 41.0167 196.661 41.45C 196.928 41.8833 197.578 42.1 198.611 42.1L 202.411 42.1C 203.445 42.1 204.095 41.8833 204.361 41.45C 204.628 41.0167 204.761 40.2833 204.761 39.25L 204.761 25.35C 204.761 24.3167 204.628 23.5833 204.361 23.15C 204.095 22.7167 203.445 22.5 202.411 22.5L 198.611 22.5ZM 224.114 19.6C 224.647 19.6 224.981 19.7 225.114 19.9C 225.281 20.0667 225.364 20.4167 225.364 20.95L 225.364 22.5L 219.214 22.5L 219.214 39.25C 219.214 40.2833 219.347 41.0167 219.614 41.45C 219.881 41.8833 220.531 42.1 221.564 42.1L 225.914 42.1C 225.847 43.0667 225.647 43.8 225.314 44.3C 225.014 44.7667 224.381 45 223.414 45L 219.964 45C 218.231 45 216.997 44.65 216.264 43.95C 215.564 43.2167 215.214 41.9833 215.214 40.25L 215.214 15.15C 215.214 14.6167 215.297 14.2667 215.464 14.1C 215.664 13.9 216.031 13.8 216.564 13.8L 219.214 13.8L 219.214 19.6L 224.114 19.6Z"/>
</defs>
</svg>
