<?xml version="1.0" encoding="UTF-8" standalone="no"?>
<svg width="22px" height="22px" viewBox="0 0 22 22" version="1.1" xmlns="http://www.w3.org/2000/svg" xmlns:xlink="http://www.w3.org/1999/xlink" xmlns:sketch="http://www.bohemiancoding.com/sketch/ns">
    <!-- Generator: Sketch 3.5.1 (25234) - http://www.bohemiancoding.com/sketch -->
    <title>search_form</title>
    <desc>Created with Sketch.</desc>
    <defs></defs>
    <g id="Page-1" stroke="none" stroke-width="1" fill="none" fill-rule="evenodd" sketch:type="MSPage">
        <g id="search_form" sketch:type="MSArtboardGroup" transform="translate(-5.000000, -6.000000)" fill="#9FA1A7">
            <g sketch:type="MSLayerGroup" transform="translate(5.000000, 6.000000)" id="Fill-1">
                <path d="M21.6167417,18.5822 L17.4939917,14.4575333 C17.129825,14.0933667 16.4724083,14.1278667 15.8149917,14.47095 L14.013325,12.6731167 C16.3574083,9.60836667 16.140825,5.21345 13.3367417,2.40936667 C10.2854083,-0.64005 5.33849167,-0.64005 2.28715833,2.40936667 C-0.762258333,5.46261667 -0.762258333,10.4076167 2.28715833,13.45895 C5.089325,16.2611167 9.488075,16.4815333 12.5489917,14.1355333 L14.3487417,15.9352833 C14.0056583,16.5946167 13.9711583,17.2520333 14.3334083,17.6123667 L18.458075,21.73895 C18.9774917,22.2602833 20.1102417,21.9766167 20.9804083,21.1007 C21.8544083,20.23245 22.1361583,19.1016167 21.6167417,18.5822 M3.44865833,12.29745 C1.03940833,9.8882 1.03940833,5.98011667 3.44865833,3.57086667 C5.859825,1.16161667 9.76024167,1.16353333 12.173325,3.57086667 C14.582575,5.98011667 14.582575,9.88436667 12.173325,12.29745 C9.76024167,14.7067 5.85790833,14.7067 3.44865833,12.29745" sketch:type="MSShapeGroup"></path>
            </g>
        </g>
    </g>
</svg>