<?xml version="1.0" encoding="UTF-8" standalone="no"?>
<svg width="120px" height="20px" viewBox="0 0 120 20" version="1.1" xmlns="http://www.w3.org/2000/svg" xmlns:xlink="http://www.w3.org/1999/xlink">
    <!-- Generator: Sketch 3.6.1 (26313) - http://www.bohemiancoding.com/sketch -->
    <title>ucdavis</title>
    <desc>Created with Sketch.</desc>
    <defs></defs>
    <g id="Page-1" stroke="none" stroke-width="1" fill="none" fill-rule="evenodd">
        <g id="gf-content" transform="translate(-1280.000000, -37.000000)" fill="#68483B">
            <g id="header">
                <g id="ucdavis" transform="translate(1280.000000, 37.000000)">
                    <path d="M104.695187,18.0484786 L106.590764,13.0673463 L106.91813,13.3507915 C108.079885,14.293351 109.657525,15.0957509 111.14455,15.1275343 C112.475487,15.1577546 113.12498,14.8055323 112.947941,13.6852985 C112.817518,12.849031 111.866849,12.701577 111.273924,12.5859063 L109.972843,12.327471 C107.441915,11.8559308 105.312729,10.3021927 105.312729,7.35884365 C105.312729,2.90708691 109.16831,0.411831399 113.046936,0.411831399 C115.083935,0.411831399 116.954895,0.928180994 118.704336,2.06039862 L117.061223,6.4751616 C116.159266,5.82855227 114.794806,4.91933931 113.068411,4.85733568 C112.500629,4.83597308 111.198499,5.13244424 111.615956,6.44494134 C111.796138,7.00453717 112.601719,7.23952573 113.096696,7.35884365 L114.56696,7.71158702 C117.308449,8.34777557 119.294118,9.90047162 119.294118,13.0798513 C119.294118,17.5540127 115.41392,19.7679072 111.560959,19.7679072 C109.311303,19.7679072 106.707568,19.1306765 104.695187,18.0484786" id="Fill-1"></path>
                    <path d="M96.3529412,0.411831399 L103.026738,0.411831399 L103.026738,18.9442444 L96.3529412,18.9442444 L96.3529412,0.411831399 Z" id="Fill-3"></path>
                    <path d="M88.7887459,0.411831399 L95.5187166,0.411831399 L88.6443796,18.9442444 L83.1834771,18.9442444 L76.3315508,0.411831399 L83.0380685,0.411831399 L85.9139284,11.5949712 L88.7887459,0.411831399 Z" id="Fill-5"></path>
                    <path d="M70.4366153,5.76082639 L70.4366153,5.76082639 C70.5584676,6.54951633 71.7536796,12.2216015 71.7536796,12.2216015 L69.1280277,12.2216015 L70.4366153,5.76082639 Z M60.4812834,18.9442444 L67.4215659,18.9442444 L67.949769,16.6172746 L72.9001507,16.6172746 L73.5586828,18.9442444 L80.5026738,18.9442444 L74.002649,0.411831399 L66.7222397,0.411831399 L60.4812834,18.9442444 Z" id="Fill-6"></path>
                    <path d="M42.9625668,0.411831399 L49.768111,0.411831399 C55.8411396,0.411831399 60.4812834,3.13391782 60.4812834,9.94607928 C60.4812834,15.4339825 56.6996058,18.9442444 51.3886042,18.9442444 L42.9625668,18.9344693 L42.9625668,0.411831399 Z M49.6505924,13.6235455 L50.0969526,13.6235455 C52.2860675,13.6235455 53.9102496,12.3404452 53.9102496,9.92189896 C53.9102496,7.31814176 52.4715679,5.86577926 50.0663872,5.86577926 L49.6505924,5.86577926 L49.6505924,13.6235455 Z" id="Fill-7"></path>
                    <path d="M39.452914,1.06968988 L39.8076273,4.11673366 C39.8909033,4.83983962 40.3136077,6.57519084 39.7912884,6.34223011 C39.4645094,6.19946436 39.1962344,5.41296422 38.9300676,4.71408206 C38.7940854,4.35897158 38.1468521,2.68186054 37.9776649,2.55919538 C37.1591362,1.96081618 35.1188756,1.2861578 33.7390249,1.27945761 C29.5536183,1.26451101 26.7849568,4.2837232 26.7849568,9.64233521 C26.7849568,13.4856717 28.6660443,18.0954078 33.4523027,18.0954078 C35.1668384,18.0954078 38.4520215,17.5676384 39.3453932,15.1813372 C39.7496504,14.1010591 40.1201757,13.1413846 40.3868695,13.4331009 C40.5860993,13.6454457 40.3273114,14.510802 40.2081952,14.976208 C39.6437108,17.1877887 39.6141953,17.8588393 39.4355209,17.9438802 C37.2729818,19.0071501 34.4995767,19.3560758 32.072452,19.3560758 C24.3541426,19.3560758 21.6898396,14.953015 21.6898396,10.5509851 C21.6898396,2.91121346 26.4882204,-0.306943064 33.9261323,0.0229128255 C35.8077469,0.0914610026 37.6909427,0.418739893 39.452914,1.06968988" id="Fill-8"></path>
                    <path d="M16.4016332,1.37555554 L15.1689212,0.953196324 C14.7569663,0.58711725 15.26035,0.484883601 15.26035,0.484883601 C15.26035,0.484883601 17.0411091,0.809656151 21.4769807,0.439962755 C21.4769807,0.439962755 21.8621375,0.515347163 21.5962585,0.82256444 L20.1407545,1.43493367 C19.1928379,1.84180294 19.1928379,1.60842107 19.1928379,2.62972489 L19.1844306,12.1085396 C19.1844306,19.5220281 11.5107196,19.3557694 10.0168576,19.3557694 C9.30381829,19.3557694 2.26590499,19.3557694 2.26590499,13.4045318 L2.26590499,3.37014435 C2.26590499,1.62132936 2.45664431,1.66676654 1.86498459,1.46229924 L0.0847508772,0.805525499 C0.0847508772,0.805525499 -0.217909871,0.385747942 0.320679134,0.413113514 C1.77565763,0.484883601 3.881672,0.791068215 8.83563995,0.439962755 C8.83563995,0.439962755 9.26651115,0.543229067 8.9827667,0.849413681 L7.50204102,1.25886461 C6.37441956,1.75557557 6.52312267,1.37555554 6.49369732,2.51303396 L6.5294281,12.4069793 C6.5294281,14.8327049 7.79944725,17.8367219 11.7949895,17.8367219 C17.2339503,17.8367219 17.2849192,13.2134892 17.2849192,12.1859894 L17.2949028,2.38498373 C17.353228,1.46229924 17.2339503,1.725112 16.4016332,1.37555554" id="Fill-9"></path>
                </g>
            </g>
        </g>
    </g>
</svg>