<?xml version="1.0" encoding="UTF-8"?>
<svg width="127px" height="127px" viewBox="0 0 127 127" version="1.1" xmlns="http://www.w3.org/2000/svg" xmlns:xlink="http://www.w3.org/1999/xlink">
    <title>CRP</title>
    <defs>
        <path d="M0,0 L127,0 L127,127 L0,127 L0,0 Z" id="path-1"></path>
    </defs>
    <g id="CRP" stroke="none" fill="none" xlink:href="#path-1" stroke-linecap="round" stroke-linejoin="round" stroke-width="7.9375">
        <path d="M87.3125,31.75 L87.3125,35.71875 M87.3125,51.59375 L87.3125,55.5625 M87.3125,71.4375 L87.3125,75.40625 M87.3125,91.28125 L87.3125,95.25 M39.6875,67.46875 L67.46875,67.46875 M39.6875,79.375 L55.5625,79.375 M17.859375,27.78125 C14.57325,27.78125 11.90625,30.44825 11.90625,33.734375 L11.90625,49.7469583 C16.8256099,52.5793203 19.8575312,57.8235243 19.8575312,63.5 C19.8575312,69.1764757 16.8256099,74.4206797 11.90625,77.2530417 L11.90625,93.265625 C11.90625,96.55175 14.57325,99.21875 17.859375,99.21875 L109.140625,99.21875 C112.42675,99.21875 115.09375,96.55175 115.09375,93.265625 L115.09375,77.2530417 C110.17439,74.4206797 107.142469,69.1764757 107.142469,63.5 C107.142469,57.8235243 110.17439,52.5793203 115.09375,49.7469583 L115.09375,33.734375 C115.09375,30.44825 112.42675,27.78125 109.140625,27.78125 L17.859375,27.78125 Z" id="Shape" stroke="#000000"></path>
    </g>
</svg>