<?xml version="1.0" encoding="UTF-8"?>
<svg width="127px" height="127px" viewBox="0 0 127 127" version="1.1" xmlns="http://www.w3.org/2000/svg" xmlns:xlink="http://www.w3.org/1999/xlink">
    <title>feedbackbot</title>
    <defs>
        <path d="M0,0 L127,0 L127,127 L0,127 L0,0 Z" id="path-1"></path>
    </defs>
    <g id="feedbackbot" stroke="none" fill="none" xlink:href="#path-1" fill-rule="evenodd" stroke-width="1">
        <g id="feedbackbot-logo" transform="translate(27, 6)">
            <g id="Group" transform="translate(0, 15.6049)">
                <path d="M19.9230769,51.7599435 L54.0769231,51.7599435 M19.9230769,63.2035193 L37,63.2035193 M0,68.9634524 C0,75.0666928 4.26164103,80.384141 10.2727179,81.2729254 C14.5571282,81.9061366 18.8870769,82.3905813 23.2625641,82.7186305 C24.5907692,82.8178081 25.8051282,83.5196808 26.5451282,84.6297076 L37,100.39514 L47.4548718,84.6297076 C48.1980593,83.5187304 49.4089209,82.8137784 50.7374359,82.7186305 C55.0831434,82.3925127 59.4158602,81.9103029 63.7272821,81.2729254 C69.738359,80.384141 74,75.0705073 74,68.9596379 L74,46.0038249 C74,39.8929554 69.738359,34.5793217 63.7272821,33.6905374 C54.8774845,32.3848777 45.9446148,31.7308531 37,31.7336767 C27.9226667,31.7336767 18.9971282,32.4012278 10.2727179,33.6905374 C4.26164103,34.5793217 0,39.89677 0,46.0038249 L0,68.9596379 L0,68.9634524 Z" id="Shape" stroke="#000000" stroke-width="5.7217884" stroke-linecap="round" stroke-linejoin="round"></path>
                <g transform="translate(27.6553, 0)">
                    <g id="Group-5" fill="#000000">
                        <path d="M9.53648593,4.49898836 C6.77507895,4.49898836 4.52868397,6.75848029 4.52868397,9.53635566 C4.52868397,12.314231 6.77507895,14.5736397 9.53648593,14.5736397 C12.2976413,14.5736397 14.5439524,12.314231 14.5439524,9.53635566 C14.5439524,6.75848029 12.2976413,4.49898836 9.53648593,4.49898836 M9.53648593,19.072628 C4.27809679,19.072628 0,14.7945067 0,9.53635566 C0,4.27812136 4.27809679,0 9.53648593,0 C14.7948751,0 19.0726364,4.27812136 19.0726364,9.53635566 C19.0726364,14.7945067 14.7948751,19.072628 9.53648593,19.072628" id="Fill-3"></path>
                    </g>
                    <line x1="9.53632826" y1="16.4457854" x2="9.53632826" y2="31.7336888" id="Path-2" stroke="#000000" stroke-width="6.6754198"></line>
                </g>
            </g>
            <line x1="20.0262594" y1="8.58330346" x2="27.0478155" y2="15.6048595" id="Path" stroke="#000000" stroke-width="3.8145256" stroke-linecap="round" stroke-linejoin="round"></line>
            <line x1="53.3662454" y1="8.58330346" x2="46.3446894" y2="15.6048595" id="Path-Copy" stroke="#000000" stroke-width="3.8145256" stroke-linecap="round" stroke-linejoin="round"></line>
            <line x1="37.0001903" y1="11.408809" x2="36.9999853" y2="0" id="Path" stroke="#000000" stroke-width="3.8145256" stroke-linecap="round" stroke-linejoin="round"></line>
        </g>
    </g>
</svg>