<?xml version="1.0" encoding="UTF-8"?>
<svg width="127px" height="127px" viewBox="0 0 127 127" version="1.1" xmlns="http://www.w3.org/2000/svg" xmlns:xlink="http://www.w3.org/1999/xlink">
    <title>finjector</title>
    <defs>
        <path d="M0,0 L127,0 L127,127 L0,127 L0,0 Z" id="path-1"></path>
    </defs>
    <g id="finjector" stroke="none" fill="none" xlink:href="#path-1" fill-rule="evenodd" stroke-width="1">
        <g id="$" transform="translate(23, 0)" fill="#1F1F1F">
            <path d="M81,82.8133641 C81,62.9147465 64.0636364,57.062212 48.7472727,53.1117512 L48.7472727,32.6278802 C55.3745455,34.2373272 61.8545455,37.3099078 67.0090909,42.1382488 L78.6436364,26.921659 C70.6909091,19.7523041 60.6763636,15.0702765 48.7472727,13.8997696 L48.7472727,0 L34.7563636,0 L34.7563636,13.6071429 C15.0218182,15.5092166 3.09272727,28.0921659 3.09272727,43.016129 C3.09272727,62.7684332 19.5872727,68.6209677 34.7563636,72.2788018 L34.7563636,95.25 C24.8890909,93.4942396 16.9363636,88.5195853 11.34,82.8133641 L0,98.6152074 C8.1,106.662442 19.2927273,112.514977 34.7563636,113.831797 L34.7563636,127 L48.7472727,127 L48.7472727,113.685484 C70.3963636,111.490783 81,98.9078341 81,82.8133641 Z M24.5945455,41.2603687 C24.5945455,35.9930876 28.5709091,32.1889401 36.0818182,31.4573733 L36.0818182,50.0391705 C29.3072727,48.2834101 24.5945455,45.7960829 24.5945455,41.2603687 Z M47.4218182,75.2050691 C54.4909091,77.2534562 59.6454545,79.7407834 59.6454545,85.1543779 C59.6454545,89.9827189 55.8163636,94.5184332 47.4218182,95.6889401 L47.4218182,75.2050691 Z" id="Shape" fill-rule="nonzero"></path>
        </g>
    </g>
</svg>