<?xml version="1.0" encoding="UTF-8"?>
<svg width="127px" height="127px" viewBox="0 0 127 127" version="1.1" xmlns="http://www.w3.org/2000/svg" xmlns:xlink="http://www.w3.org/1999/xlink">
    <title>hippo</title>
    <defs>
        <path d="M0,0 L127,0 L127,127 L0,127 L0,0 Z" id="path-1"></path>
    </defs>
    <g id="hippo" stroke="none" fill="none" xlink:href="#path-1" fill-rule="evenodd" stroke-width="1">
        <g transform="translate(14, 0)" fill="#1F1F1F">
            <polygon id="Path-60" points="25.0204202 17.6108783 23.7095863 28.8091525 15.3687989 33.1579969"></polygon>
            <polygon id="Path-71" points="7.03577944 15.0539908 15.9358559 7.18141757 25.1641264 14.6171649 21.4141705 20.6589522"></polygon>
            <polygon id="Path-72" points="14.4754899 6.52714946 6.52892367 13.5571341 7.27852645 4.18576271"></polygon>
            <polygon id="Path-75" points="26.5623492 16.9527273 25.2049079 28.5489985 32.3902195 28.5489985"></polygon>
            <polygon id="Path-77" points="49.500971 17.9564561 34.9147884 29.1624961 49.5 36.8681048 64.0871535 29.1624961"></polygon>
            <polygon id="Path-79" points="66.6097805 28.5489985 73.7970341 28.5489985 72.4395928 16.9527273"></polygon>
            <polygon id="Path-80" points="73.8397575 14.6210478 77.5877714 20.6608937 91.9739304 15.0539908 83.0738539 7.18141757"></polygon>
            <polygon id="Path-82" points="84.532278 6.52714946 92.4788442 13.5571341 91.7292415 4.18576271"></polygon>
            <polygon id="Path-84" points="73.9815218 17.6108783 83.6331431 33.1579969 75.2923557 28.8091525"></polygon>
            <polygon id="Path-89" points="26.1564762 30.0050847 33.3903372 30.0050847 48.603778 38.0407396 31.4988525 86.6953775 25.4787265 88.8542681 9.59530395 70.2357781 25.7544871 56.9659784 30.7861472 49.6641911 30.9143177 35.0314946"></polygon>
            <polygon id="Path-90" points="50.396222 38.0426779 65.5097501 30.0050847 72.8454658 30.0050847 68.0876243 35.0314946 68.0876243 49.482823 73.2474548 56.9659784 89.4046961 70.2357781 73.5212735 88.8542681 67.5011475 86.6953775"></polygon>
            <polygon id="Path-91" points="33.1009828 86.5361787 65.9009592 86.5361787 49.500971 39.8889985"></polygon>
            <polygon id="Path-92" points="33.3903372 87.992265 42.4886203 102.952362 38.1656564 108.282342 49.4973526 118.41282 60.8343436 108.282342 56.4972535 102.952362 65.6096628 87.992265"></polygon>
            <polygon id="Path-94" points="73.0590832 97.8179353 74.4320603 90.0327273 90.3776261 71.3365794 98.677632 83.3929738"></polygon>
            <polygon id="Path-100" points="57.522787 126 50.5748838 119.429857 61.7422174 109.406441 75.4011063 126"></polygon>
            <polygon id="Path-102" points="48.4270582 119.4049 41.5097393 126 23.5988937 126 37.2412758 109.406441"></polygon>
            <polygon id="Path-109" points="8.62237392 71.3365794 0.322368034 83.3929738 25.9428588 97.8179353 24.5679397 90.0327273"></polygon>
            <polygon id="Path-32" points="13.7724946 37.3165794 24.22421 56.3738367 9.53121874 68.4088752"></polygon>
            <polygon id="Path-76" points="27.3740952 15.3238521 33.8272818 28.1607088 47.6211381 17.5642835"></polygon>
            <polygon id="Path-78" points="51.3788619 17.5642835 65.1746602 28.1607088 71.6278468 15.3238521"></polygon>
            <polygon id="Path-88" points="85.2294474 37.3165794 74.77579 56.3738367 89.4687813 68.4088752"></polygon>
            <polygon id="Path-95" points="73.643618 99.1614176 99 84.8820647 99 111.491556"></polygon>
            <polygon id="Path-96" points="62.8462308 108.451341 77.1022774 125.774792 97.8464662 112.961233 66.0873889 105.537134"></polygon>
            <polygon id="Path-97" points="67.4137586 104.352851 72.1968458 100.07584 93.5605249 110.46453"></polygon>
            <polygon id="Path-106" points="32.9347411 105.609938 36.1537692 108.433775 21.8977226 125.774792 1.15547578 112.961233"></polygon>
            <polygon id="Path-107" points="31.5881834 104.352851 26.8050962 100.07584 5.44141705 110.46453"></polygon>
            <polygon id="Path-108" points="0 111.491556 25.358324 99.160289 0 84.8820647"></polygon>
            <polygon id="Path-101" points="49.4973526 120.395039 55.3793327 126 43.6206673 126"></polygon>
            <polygon id="Path-33" points="22.3793327 49.9787057 25.2262696 55.1662558 28.8014477 49.9787057"></polygon>
            <polygon id="Path-34" points="21.5811805 48.5226194 29.4578356 48.5226194 29.4578356 35.7595378 14.5784146 35.7595378"></polygon>
            <polygon id="Path-35" points="24.22421 30.1681664 16.3203672 34.3034515 28.4169364 34.3034515"></polygon>
            <polygon id="Path-85" points="74.7505443 30.1681664 70.5850056 34.3034515 82.6815748 34.3034515"></polygon>
            <polygon id="Path-86" points="77.4207615 48.5226194 69.5441064 48.5226194 69.5441064 35.7595378 84.4215854 35.7595378"></polygon>
            <polygon id="Path-87" points="73.7756723 55.1662558 76.6206673 49.9787057 70.2004943 49.9787057"></polygon>
            <polygon id="Path-93" points="67.2350968 88.1456394 58.764197 101.595994 71.4414171 98.6100462 72.9270288 90.1880431"></polygon>
            <polygon id="Path-98" points="65.6815159 103.949029 69.4567175 100.572851 60.3857471 102.710385"></polygon>
            <polygon id="Path-99" points="61.9218502 107.309676 64.3570882 105.133313 59.1273466 103.9102"></polygon>
            <polygon id="Path-103" points="27.5585829 98.6100462 26.0749132 90.1880431 31.7649032 88.1456394 40.237745 101.595994"></polygon>
            <polygon id="Path-104" points="29.5452245 100.572851 38.6161949 102.710385 33.3184841 103.949029"></polygon>
            <polygon id="Path-105" points="39.8726534 103.9102 34.6448538 105.133313 37.0781498 107.309676"></polygon>
            <polygon id="Path-73" points="15.2697581 5.25550077 15.7533102 0 8.66898135 3.10631741"></polygon>
            <polygon id="Path-74" points="16.6738069 5.90588598 17.1146354 1.09303544 23.3211911 11.2604006"></polygon>
            <polygon id="Path-81" points="75.6885188 11.2604006 82.335903 5.90588598 81.8950744 1.09303544"></polygon>
            <polygon id="Path-83" points="83.7380098 5.25550077 90.3387866 3.10631741 83.2544577 0"></polygon>
        </g>
    </g>
</svg>