<?xml version="1.0" encoding="UTF-8"?>
<svg width="127px" height="127px" viewBox="0 0 127 127" version="1.1" xmlns="http://www.w3.org/2000/svg" xmlns:xlink="http://www.w3.org/1999/xlink">
    <title>PEAKS</title>
    <defs>
        <path d="M0,0 L127,0 L127,127 L0,127 L0,0 Z" id="path-1"></path>
    </defs>
    <g id="PEAKS" stroke="none" fill="none" xlink:href="#path-1" fill-rule="evenodd" stroke-width="1">
        <g id="Group" transform="translate(14, 0)" fill="#1F1F1F">
            <path d="M21.872864,0 C25.836637,0 29.0498975,3.21230953 29.0498975,7.17490961 C29.0498975,11.1375097 25.836637,14.3498192 21.872864,14.3498192 C17.9090909,14.3498192 14.6958305,11.1375097 14.6958305,7.17490961 C14.6958305,3.21230953 17.9090909,0 21.872864,0 Z M29.6283664,14.8531562 L26.8954887,14.1701048 C23.5347232,16.5866827 19.461039,16.0474028 16.8503076,14.1701048 L14.1174299,14.8531562 C11.9265208,15.4007043 10.3896104,17.3685429 10.3896104,19.6261794 L10.3896104,23.7797004 C10.3896104,25.1382866 11.4913192,26.2396694 12.8503076,26.2396694 L30.8954204,26.2396694 C32.2544087,26.2396694 33.3561176,25.1382866 33.3561176,23.7797004 L33.3561176,19.6261794 C33.3561176,17.3685429 31.8192071,15.4007043 29.6283664,14.8531562 Z M36.0902256,16.1264635 C38.7327409,16.1264635 40.8749146,13.9849238 40.8749146,11.3431904 C40.8749146,8.70145704 38.7327409,6.55991736 36.0902256,6.55991736 C33.4477102,6.55991736 31.3055366,8.70145704 31.3055366,11.3431904 C31.3055366,13.9849238 33.4477102,16.1264635 36.0902256,16.1264635 Z M7.65550239,16.1264635 C10.2980178,16.1264635 12.4401914,13.9849238 12.4401914,11.3431904 C12.4401914,8.70145704 10.2980178,6.55991736 7.65550239,6.55991736 C5.01298701,6.55991736 2.8708134,8.70145704 2.8708134,11.3431904 C2.8708134,13.9849238 5.01298701,16.1264635 7.65550239,16.1264635 Z M9.29596719,23.7797004 L9.29596719,19.6261794 C9.29596719,18.4952087 9.60991114,17.4256005 10.1642515,16.510287 C8.11449077,17.516141 5.83506494,17.1053262 4.30710868,16.0066767 L2.48516746,16.4620443 C1.02460697,16.827008 0,18.1389915 0,19.6440142 L0,22.413051 C0,23.3187979 0.734449761,24.0530303 1.6404648,24.0530303 L9.3075188,24.0530303 C9.30018791,23.9621006 9.29633457,23.8709242 9.29596719,23.7797004 L9.29596719,23.7797004 Z M41.2605605,16.4619759 L39.4386193,16.0066083 C37.5298701,17.3791344 35.2766234,17.3208468 33.5749146,16.4998321 C34.1332194,17.4174689 34.4497608,18.4908354 34.4497608,19.6261794 L34.4497608,23.7797004 C34.4497608,23.8717443 34.4451128,23.9626948 34.4382092,24.0530303 L42.1052632,24.0530303 C43.0112782,24.0530303 43.745728,23.3187979 43.745728,22.413051 L43.745728,19.6440142 C43.745728,18.1389915 42.721121,16.827008 41.2605605,16.4619759 Z" id="users" fill-rule="nonzero"></path>
            <path d="M96.5104647,56.907348 C96.5104647,63.2172983 91.3931747,68.3324725 85.0806944,68.3324725 C84.3520466,68.3324725 83.6396342,68.2635318 82.9488475,68.1332457 L81.3894631,69.8868825 C81.0936899,70.2194965 80.6697353,70.4097956 80.2245357,70.4097796 L77.8072043,70.4097796 L77.8072043,73.0064136 C77.8072043,73.8668731 77.1094038,74.5643939 76.2485992,74.5643939 L73.6509241,74.5643939 L73.6509241,77.1610279 C73.6509241,78.0214875 72.9531237,78.7190083 72.0923191,78.7190083 L64.8188289,78.7190083 C63.9580243,78.7190083 63.2602239,78.0214875 63.2602239,77.1610279 L63.2602239,72.0937616 C63.2602239,71.6805723 63.4244619,71.284261 63.7167003,70.9920748 L74.2244259,60.4885606 C73.8527635,59.362011 73.6509241,58.1582764 73.6509241,56.9072831 C73.6509241,50.5973327 78.7681492,45.4820937 85.0806295,45.4820937 C91.4117481,45.4820937 96.5104647,50.5787019 96.5104647,56.907348 Z M85.0806944,53.7913223 C85.0806944,55.5122415 86.4762954,56.9072831 88.1979045,56.9072831 C89.9195137,56.9072831 91.3151146,55.5122415 91.3151146,53.7913223 C91.3151146,52.0704032 89.9195137,50.6753616 88.1979045,50.6753616 C86.4762954,50.6753616 85.0806944,52.0704032 85.0806944,53.7913223 Z" id="key" fill-rule="nonzero"></path>
            <path d="M96.5550239,0.349862259 L66.6985646,0.349862259 C64.795933,0.349862259 63.2535885,1.81832709 63.2535885,3.62982094 L63.2535885,23.309573 C63.2535885,25.1210668 64.795933,26.5895317 66.6985646,26.5895317 L96.5550239,26.5895317 C98.4576555,26.5895317 100,25.1210668 100,23.309573 L100,3.62982094 C100,1.81832709 98.4576555,0.349862259 96.5550239,0.349862259 Z M81.6267943,19.4146221 C81.6267943,20.1424361 81.0483971,20.7324626 80.3349282,20.7324626 L69.138756,20.7324626 C68.4252871,20.7324626 67.84689,20.1424361 67.84689,19.4146221 L67.84689,18.397542 C67.84689,17.1881305 68.6538038,16.133858 69.8039952,15.8405653 L71.7232775,15.3510608 C73.2897368,16.5004374 75.7339474,16.8306296 77.7504067,15.3510608 L79.6697608,15.8405653 C80.8198804,16.133858 81.6267943,17.1881305 81.6267943,18.397542 L81.6267943,19.4146221 Z M70.430622,11.0682987 C70.430622,8.64222743 72.3585885,6.67549685 74.7368421,6.67549685 C77.1150957,6.67549685 79.0430622,8.64222743 79.0430622,11.0682987 C79.0430622,13.4943699 77.1150957,15.4611005 74.7368421,15.4611005 C72.3585885,15.4611005 70.430622,13.4943699 70.430622,11.0682987 Z M95.4066986,18.6824884 C95.4066986,19.1676734 95.0210766,19.5610488 94.5454545,19.5610488 L84.784689,19.5610488 C84.309067,19.5610488 83.923445,19.1676734 83.923445,18.6824884 L83.923445,18.0967815 C83.923445,17.6115966 84.309067,17.2182212 84.784689,17.2182212 L94.5454545,17.2182212 C95.0210766,17.2182212 95.4066986,17.6115966 95.4066986,18.0967815 L95.4066986,18.6824884 Z M95.4066986,13.9968332 C95.4066986,14.4820181 95.0210766,14.8753935 94.5454545,14.8753935 L84.784689,14.8753935 C84.309067,14.8753935 83.923445,14.4820181 83.923445,13.9968332 L83.923445,13.4111263 C83.923445,12.9259413 84.309067,12.5325659 84.784689,12.5325659 L94.5454545,12.5325659 C95.0210766,12.5325659 95.4066986,12.9259413 95.4066986,13.4111263 L95.4066986,13.9968332 Z M95.4066986,9.31117793 C95.4066986,9.79636289 95.0210766,10.1897383 94.5454545,10.1897383 L84.784689,10.1897383 C84.309067,10.1897383 83.923445,9.79636289 83.923445,9.31117793 L83.923445,8.72547103 C83.923445,8.24028607 84.309067,7.84691067 84.784689,7.84691067 L94.5454545,7.84691067 C95.0210766,7.84691067 95.4066986,8.24028607 95.4066986,8.72547103 L95.4066986,9.31117793 Z" id="id-card" fill-rule="nonzero"></path>
            <path d="M38.4825701,69.535124 L38.4825701,75.6577135 C38.4825701,77.3484411 37.1115972,78.7190083 35.4203691,78.7190083 L4.79835954,78.7190083 C3.10713147,78.7190083 1.73615858,77.3484411 1.73615858,75.6577135 L1.73615858,69.535124 C1.73615858,67.8443964 3.10713147,66.4738292 4.79835954,66.4738292 L35.4203691,66.4738292 C37.1115972,66.4738292 38.4825701,67.8443964 38.4825701,69.535124 Z M35.4203691,64.432966 C36.0944752,64.4323752 36.7619456,64.5660379 37.3838141,64.8261511 L31.2257918,55.5918192 C30.6578215,54.7401957 29.7017058,54.2286501 28.6778492,54.2286501 L11.5408795,54.2286501 C10.5170369,54.2286501 9.56093469,54.7401883 8.99300068,55.5918192 L2.83491456,64.8261511 C3.45678308,64.5660379 4.12425342,64.4323752 4.79835954,64.432966 L35.4203691,64.432966 Z M32.3581681,70.5555556 C31.230704,70.5555556 30.3167008,71.4692883 30.3167008,72.5964187 C30.3167008,73.7235492 31.230704,74.6372819 32.3581681,74.6372819 C33.4856323,74.6372819 34.3996355,73.7235492 34.3996355,72.5964187 C34.3996355,71.4692883 33.4856323,70.5555556 32.3581681,70.5555556 Z M26.2337662,70.5555556 C25.1063021,70.5555556 24.1922989,71.4692883 24.1922989,72.5964187 C24.1922989,73.7235492 25.1063021,74.6372819 26.2337662,74.6372819 C27.3612303,74.6372819 28.2752335,73.7235492 28.2752335,72.5964187 C28.2752335,71.4692883 27.3612303,70.5555556 26.2337662,70.5555556 Z" id="hdd" fill-rule="nonzero"></path>
            <path d="M65.4440878,124.922693 L64.1923554,124.922693 L64.1923554,95.3210658 C64.1923554,94.4606062 63.5198622,93.7630854 62.6902766,93.7630854 L41.6611731,93.7630854 C40.8315875,93.7630854 40.1590943,94.4606062 40.1590943,95.3210658 L40.1590943,124.922693 L38.9073619,124.922693 C38.4926004,124.922693 38.1563225,125.271486 38.1563225,125.701683 L38.1563225,127 L66.1951272,127 L66.1951272,125.701683 C66.1951272,125.271486 65.8588493,124.922693 65.4440878,124.922693 Z M46.1674096,98.6966899 C46.1674096,98.2664926 46.5036875,97.9176997 46.918449,97.9176997 L49.4219137,97.9176997 C49.8366752,97.9176997 50.1729531,98.2664926 50.1729531,98.6966899 L50.1729531,101.293324 C50.1729531,101.723521 49.8366752,102.072314 49.4219137,102.072314 L46.918449,102.072314 C46.5036875,102.072314 46.1674096,101.723521 46.1674096,101.293324 L46.1674096,98.6966899 Z M46.1674096,104.928611 C46.1674096,104.498414 46.5036875,104.149621 46.918449,104.149621 L49.4219137,104.149621 C49.8366752,104.149621 50.1729531,104.498414 50.1729531,104.928611 L50.1729531,107.525245 C50.1729531,107.955443 49.8366752,108.304236 49.4219137,108.304236 L46.918449,108.304236 C46.5036875,108.304236 46.1674096,107.955443 46.1674096,107.525245 L46.1674096,104.928611 Z M49.4219137,114.536157 L46.918449,114.536157 C46.5036875,114.536157 46.1674096,114.187364 46.1674096,113.757167 L46.1674096,111.160533 C46.1674096,110.730336 46.5036875,110.381543 46.918449,110.381543 L49.4219137,110.381543 C49.8366752,110.381543 50.1729531,110.730336 50.1729531,111.160533 L50.1729531,113.757167 C50.1729531,114.187364 49.8366752,114.536157 49.4219137,114.536157 Z M54.1784966,124.922693 L50.1729531,124.922693 L50.1729531,119.469762 C50.1729531,119.039564 50.509231,118.690771 50.9239925,118.690771 L53.4274572,118.690771 C53.8422187,118.690771 54.1784966,119.039564 54.1784966,119.469762 L54.1784966,124.922693 Z M58.1840401,113.757167 C58.1840401,114.187364 57.8477622,114.536157 57.4330007,114.536157 L54.929536,114.536157 C54.5147745,114.536157 54.1784966,114.187364 54.1784966,113.757167 L54.1784966,111.160533 C54.1784966,110.730336 54.5147745,110.381543 54.929536,110.381543 L57.4330007,110.381543 C57.8477622,110.381543 58.1840401,110.730336 58.1840401,111.160533 L58.1840401,113.757167 Z M58.1840401,107.525245 C58.1840401,107.955443 57.8477622,108.304236 57.4330007,108.304236 L54.929536,108.304236 C54.5147745,108.304236 54.1784966,107.955443 54.1784966,107.525245 L54.1784966,104.928611 C54.1784966,104.498414 54.5147745,104.149621 54.929536,104.149621 L57.4330007,104.149621 C57.8477622,104.149621 58.1840401,104.498414 58.1840401,104.928611 L58.1840401,107.525245 Z M58.1840401,101.293324 C58.1840401,101.723521 57.8477622,102.072314 57.4330007,102.072314 L54.929536,102.072314 C54.5147745,102.072314 54.1784966,101.723521 54.1784966,101.293324 L54.1784966,98.6966899 C54.1784966,98.2664926 54.5147745,97.9176997 54.929536,97.9176997 L57.4330007,97.9176997 C57.8477622,97.9176997 58.1840401,98.2664926 58.1840401,98.6966899 L58.1840401,101.293324 Z" id="building" fill-rule="nonzero"></path>
        </g>
    </g>
</svg>