<?xml version="1.0" encoding="UTF-8"?>
<svg width="127px" height="127px" viewBox="0 0 127 127" version="1.1" xmlns="http://www.w3.org/2000/svg" xmlns:xlink="http://www.w3.org/1999/xlink">
    <title>prepurchasing</title>
    <defs>
        <path d="M0,0 L127,0 L127,127 L0,127 L0,0 Z" id="path-1"></path>
    </defs>
    <g id="prepurchasing" stroke="none" fill="none" xlink:href="#path-1" stroke-linecap="round" stroke-linejoin="round" stroke-width="9.82363861">
        <path d="M7,9 L15.0049505,9 C17.950495,9 20.5206271,10.9817778 21.2830033,13.8244444 L23.4950495,22.1271111 M37.3217822,74 C27.752492,74 19.9950495,81.7603977 19.9950495,91.3333333 L110.960396,91.3333333 M37.3217822,74 L102.112211,74 C108.586634,60.7111111 114.240924,46.9368889 119,32.7582222 C87.8114999,24.8031011 55.6687244,21.2251356 23.4950495,22.1271111 M37.3217822,74 L23.4950495,22.1271111 M28.6584158,108.666667 C28.6584158,111.059901 26.7190552,113 24.3267327,113 C21.9344101,113 19.9950495,111.059901 19.9950495,108.666667 C19.9950495,106.273433 21.9344101,104.333333 24.3267327,104.333333 C26.7190552,104.333333 28.6584158,106.273433 28.6584158,108.666667 Z M102.29703,108.666667 C102.29703,111.059901 100.357669,113 97.9653465,113 C95.573024,113 93.6336634,111.059901 93.6336634,108.666667 C93.6336634,106.273433 95.573024,104.333333 97.9653465,104.333333 C100.357669,104.333333 102.29703,106.273433 102.29703,108.666667 Z" id="Shape" stroke="#000000"></path>
    </g>
</svg>