<?xml version="1.0" encoding="UTF-8"?>
<svg width="127px" height="127px" viewBox="0 0 127 127" version="1.1" xmlns="http://www.w3.org/2000/svg" xmlns:xlink="http://www.w3.org/1999/xlink">
    <title>walter</title>
    <defs>
        <path d="M0,0 L127,0 L127,127 L0,127 L0,0 Z" id="path-1"></path>
        <path d="M0.518243483,89.9027857 C3.93350844,83.0305519 7.13514713,84.1226709 13.5962119,60.5932336 C15.5249437,53.5693181 14.6136967,41.2836667 14.3934581,35.1389626 C13.7862421,18.197499 21.0607927,4.48658948 24.5301139,4.48658948 C28.0964117,4.48658948 31.0188082,13.6760248 33.2973033,32.0548955 C37.5349211,28.9840373 41.8439947,27.4486081 46.224524,27.4486081 C52.7953179,27.4486081 54.2378667,28.0192341 59.8282794,32.0548955 C65.4186922,36.090557 66.3627881,38.7492692 73.4766015,40.9517611 C80.5904148,43.154253 92.9657343,39.6146605 92.9828672,46.1515038 C92.9972316,51.6320947 94.5847051,65.5684276 63.2738092,67.2105327 C59.25086,67.421517 58.1023501,68.936736 59.8282794,71.7561899 C62.043943,91.0115454 62.043943,103.456783 59.8282794,109.091903 C56.5047841,117.544583 37.8712744,113.40829 24.5301139,109.091903 C11.1889534,104.775515 -2.89702147,96.7750194 0.518243483,89.9027857 Z" id="path-2"></path>
    </defs>
    <g id="walter" stroke="none" fill="none" xlink:href="#path-1" fill-rule="evenodd" stroke-width="1">
        <g transform="translate(17, 7)">
            <path d="M33.0782581,21.8843919 C39.8204071,8.49901835 44.8433215,1.27191205 48.1470015,0.203072976 C53.1025214,-1.40018564 63.3188159,6.9046247 60.4856935,10.5457861 C59.5844545,11.7040688 53.1025214,10.2252224 53.1025214,12.5570469 C53.1025214,15.536946 53.4844121,20.6751139 54.2481934,27.9715506 L46.4055307,26.5870118 L37.2856689,27.9715506 L34.4224858,27.9715506 L33.9259439,25.7230255 L33.0782581,21.8843919 Z" id="Path-Copy-3" fill-opacity="0.99" fill="#1F1F1F"></path>
            <mask id="mask-3" fill="white">
                <use xlink:href="#path-2"></use>
            </mask>
            <path stroke-opacity="0.99" stroke="#1F1F1F" stroke-width="4.47951889" d="M35.0650533,28.2806388 C38.7006477,26.2372166 42.4274824,25.2088487 46.224524,25.2088487 C53.1735059,25.2088487 55.080075,25.8648332 61.1392406,30.2388825 C62.262989,31.050105 63.2572666,31.8406328 64.34698,32.7688059 C64.7265255,33.0920872 66.343173,34.5021626 66.7594791,34.8522314 C69.0316374,36.7628732 70.8489291,37.7935617 74.1390258,38.8122012 C75.7267173,39.3037629 77.7080572,39.5045821 80.835188,39.570725 C81.2915351,39.5803774 81.6450485,39.5858645 82.4913236,39.5974727 C86.7558314,39.6559686 88.4921148,39.7715087 90.3834066,40.3054923 C93.3909727,41.1546426 95.2146204,43.0938938 95.2226189,46.1456335 C95.2231252,46.3387974 95.2246001,46.4654259 95.2309298,46.9216081 C95.288442,51.0665502 94.9664555,53.6140699 93.4578681,56.655276 C89.7834729,64.0625982 80.3974553,68.5553178 63.3911125,69.4472183 C62.3050507,69.504177 61.6245914,69.6606092 61.336999,69.7725967 C61.4008994,69.9715846 61.5307993,70.2474573 61.7385417,70.5868224 L61.996809,71.0087241 L62.0533568,71.5001561 C64.3120387,91.1293649 64.3120387,103.809222 61.9127038,109.911474 C59.9059876,115.015176 54.1528488,116.756845 45.7645456,116.113504 C39.5623974,115.63783 31.9973875,113.861927 23.8406518,111.222904 C6.49481262,105.610846 -5.5258177,97.0319806 -1.48748669,88.9060064 C-1.26545802,88.4592379 -1.03818143,88.0312237 -0.802742742,87.6149132 C-0.216975471,86.5791398 0.345141267,85.7275398 1.21228091,84.5135377 C5.572811,78.4087622 7.52217689,74.2546952 11.4364003,60.0001602 C12.17895,57.2959965 12.5287473,53.4583148 12.5592868,48.6148142 C12.5764191,45.897679 12.5022339,43.2106341 12.3380755,39.4646403 C12.3159087,38.9588087 12.242974,37.3400852 12.2370981,37.2078793 C12.1997935,36.3685314 12.1747312,35.7659011 12.155136,35.2191885 C11.5863939,19.3511572 18.2993095,2.24683003 24.5301139,2.24683003 C29.6838897,2.24683003 32.6643982,10.6432479 35.0650533,28.2806388 Z"></path>
            <path d="M46.5325647,36.2493768 C41.3430512,37.4380339 40.5692934,39.8014953 41.92584,43.2756014 C43.2823866,46.7497074 53.1085178,43.6885084 53.1085178,42.035179 C53.4823031,40.0697998 51.7220782,35.0607198 46.5325647,36.2493768 Z" id="Path-Copy-2" fill-opacity="0.99" fill="#1F1F1F" mask="url(#mask-3)"></path>
            <path d="M94.414103,43.8926531 L84.9709506,40.4673443 C85.783155,43.213603 86.9761866,45.5970101 88.5500454,47.6175656 C90.1239041,49.6381211 92.07859,51.295825 94.414103,52.5906773 L94.414103,43.8926531 Z" id="Path-Copy" fill-opacity="0.99" fill="#1F1F1F" mask="url(#mask-3)"></path>
            <path d="M41.1725971,66.5155359 C52.0762729,67.2104146 59.1464662,67.4170393 62.3831769,67.13541 C65.6198876,66.8537807 65.3506018,68.9764404 61.5753195,73.5033892 L59.704565,71.6198835 C54.2015535,71.3640462 49.9655279,70.8272392 46.9964883,70.0094626 C44.0274486,69.1916859 42.0861515,68.0270437 41.1725971,66.5155359 Z" id="Path" fill-opacity="0.99" fill="#1F1F1F" mask="url(#mask-3)"></path>
        </g>
    </g>
</svg>